SplineFontDB: 3.0
FontName: Celtica-BoldOblique
FullName: Celtica Bold Oblique
FamilyName: Celtica
Weight: Bold
Copyright: Copyright (c) 2020-2024 by Wojciech Kalinowski "wmk69" with Reserved Font Name "Celtica-BoldOblique".\nThis Font Software is licensed under the SIL Open Font License, Version 1.1.
Version: 1.1.0; 2021-05-14
ItalicAngle: -12
UnderlinePosition: -80
UnderlineWidth: 320
Ascent: 1638
Descent: 410
InvalidEm: 0
LayerCount: 2
Layer: 0 1 "Warstwa t+AUIA-a" 1
Layer: 1 1 "Plan pierwszy" 0
XUID: [1021 783 23647091 2952791]
StyleMap: 0x0021
FSType: 0
OS2Version: 3
OS2_WeightWidthSlopeOnly: 0
OS2_UseTypoMetrics: 1
CreationTime: 1260698820
ModificationTime: 1620981755
PfmFamily: 17
TTFWeight: 700
TTFWidth: 5
LineGap: 300
VLineGap: 0
Panose: 2 14 8 2 5 5 8 13 7 4
OS2TypoAscent: 2000
OS2TypoAOffset: 0
OS2TypoDescent: -500
OS2TypoDOffset: 0
OS2TypoLinegap: 300
OS2WinAscent: 2000
OS2WinAOffset: 0
OS2WinDescent: 500
OS2WinDOffset: 0
HheadAscent: 2000
HheadAOffset: 0
HheadDescent: -500
HheadDOffset: 0
OS2SubXSize: 1434
OS2SubYSize: 1331
OS2SubXOff: 0
OS2SubYOff: 287
OS2SupXSize: 1434
OS2SupYSize: 1331
OS2SupXOff: 0
OS2SupYOff: 977
OS2StrikeYSize: 102
OS2StrikeYPos: 512
OS2CapHeight: 1530
OS2XHeight: 1120
OS2Vendor: '    '
OS2CodePages: 20000093.00000000
OS2UnicodeRanges: 8000002f.4000204b.00000000.00000000
Lookup: 258 0 0 "'kern' Horizontal Kerning lookup 0" { "'kern' Horizontal Kerning lookup 0-1" [307,0,4] } ['kern' ('DFLT' <'dflt' > 'grek' <'dflt' > 'latn' <'dflt' > ) ]
MarkAttachClasses: 1
DEI: 91125
KernClass2: 64 45 "'kern' Horizontal Kerning lookup 0-1"
 84 A Agrave Aacute Acircumflex Atilde Adieresis Aring Amacron Abreve Aogonek Aringacute
 28 B germandbls uni1E02 uni1E9E
 140 C E AE Ccedilla Egrave Eacute Ecircumflex Edieresis Cacute Ccircumflex Cdotaccent Ccaron Emacron Ebreve Edotaccent Eogonek Ecaron OE AEacute
 134 D M O P Q Eth Ograve Oacute Ocircumflex Otilde Odieresis Oslash Dcaron Dcroat Omacron Obreve Ohungarumlaut Oslashacute uni1E0A uni1E56

StartChar: .notdef
Encoding: 65536 -1 0
Width: 1054
Flags: W
HStem: 0 118<333 771> 1392 118<604 1042>
VStem: 120 814<0 814> 441 814<696 1510>
DStem2: 120 0 307.918 0 0.207912 0.978148<159.707 1462.21> 745.918 0 934 0 0.207912 0.978148<120.636 1423.14>
LayerCount: 2
Fore
SplineSet
120 0 m 1,0,-1
 441 1510 l 1,1,-1
 1255 1510 l 1,2,-1
 934 0 l 1,3,-1
 120 0 l 1,0,-1
333 118 m 1,4,-1
 771 118 l 1,5,-1
 1042 1392 l 1,6,-1
 604 1392 l 1,7,-1
 333 118 l 1,4,-1
EndSplineSet
Validated: 1
EndChar

StartChar: exclam
Encoding: 33 33 4
Width: 744
GlyphClass: 2
Flags: W
HStem: -20 370<293.766 472.234>
VStem: 322 293<444 737> 512 342<1213.25 1510>
LayerCount: 2
Fore
SplineSet
344 -20 m 128,-1,1
 268 -20 268 -20 226 34 c 0,2,3
 197 72 197 72 197 124 c 0,4,5
 197 144 197 144 201 165 c 0,6,7
 217 242 217 242 281.5 296 c 128,-1,8
 346 350 346 350 422 350 c 128,-1,9
 498 350 498 350 540 296 c 0,10,11
 569 258 569 258 569 206 c 0,12,13
 569 186 569 186 565 165 c 0,14,15
 549 88 549 88 484.5 34 c 128,-1,0
 420 -20 420 -20 344 -20 c 128,-1,1
512 1510 m 1,16,-1
 854 1510 l 17,17,18
 829 1293 829 1293 786 1093 c 0,19,20
 715 758 715 758 615 444 c 1,21,-1
 322 444 l 1,22,23
 381 644 381 644 423 840 c 0,24,25
 500 1203 500 1203 512 1510 c 1,16,-1
EndSplineSet
Validated: 1
EndChar

StartChar: quotedbl
Encoding: 34 34 5
Width: 605
GlyphClass: 2
Flags: W
HStem: 1120 473
VStem: 348 239<1303.45 1518.69> 664 239<1303.45 1518.69>
LayerCount: 2
Fore
SplineSet
658 1516 m 1,0,-1
 903 1593 l 1,1,2
 901 1487 901 1487 880 1388 c 0,3,4
 859 1288 859 1288 816 1187 c 1,5,-1
 604 1120 l 1,6,7
 631 1196 631 1196 646 1266 c 0,8,9
 664 1351 664 1351 664 1428 c 0,10,11
 664 1474 664 1474 658 1516 c 1,0,-1
342 1516 m 1,12,-1
 587 1593 l 1,13,14
 585 1487 585 1487 564 1388 c 0,15,16
 543 1288 543 1288 500 1187 c 1,17,-1
 288 1120 l 1,18,19
 315 1196 315 1196 330 1266 c 0,20,21
 348 1351 348 1351 348 1428 c 0,22,23
 348 1474 348 1474 342 1516 c 1,12,-1
EndSplineSet
Validated: 1
EndChar

StartChar: numbersign
Encoding: 35 35 6
Width: 1438
GlyphClass: 2
Flags: W
HStem: 487 175<346.531 562 775 908 1121 1338.94> 833 175<420.391 635 848 981 1194 1411.94>
VStem: 535 146<220 287.153> 729 145<1208.6 1276> 881 146<220 287.153> 1075 145<1208.6 1276>
DStem2: 500.088 198 676.571 198 0.207912 0.978148<131.701 295.557 511.018 649.174 864.635 1026.36> 846.088 198 1022.57 198 0.207912 0.978148<131.701 295.557 511.018 649.174 864.635 1026.36>
LayerCount: 2
Fore
SplineSet
799 1296 m 1,0,1
 874 1273 874 1273 874 1169 c 0,2,3
 874 1131 874 1131 864 1082 c 2,4,-1
 848 1008 l 1,5,-1
 1018 1008 l 1,6,-1
 1075 1276 l 1,7,-1
 1145 1296 l 1,8,9
 1220 1273 1220 1273 1220 1169 c 0,10,11
 1220 1131 1220 1131 1210 1082 c 2,12,-1
 1194 1008 l 1,13,-1
 1461 1008 l 1,14,-1
 1468 942 l 1,15,16
 1413 833 1413 833 1230 833 c 2,17,-1
 1157 833 l 1,18,-1
 1121 662 l 1,19,-1
 1388 662 l 1,20,-1
 1395 596 l 1,21,22
 1340 487 1340 487 1157 487 c 2,23,-1
 1084 487 l 1,24,-1
 1027 220 l 1,25,-1
 956 198 l 1,26,27
 881 221 881 221 881 324 c 0,28,29
 881 363 881 363 892 414 c 2,30,-1
 908 487 l 1,31,-1
 738 487 l 1,32,-1
 681 220 l 1,33,-1
 610 198 l 1,34,35
 535 221 535 221 535 324 c 0,36,37
 535 363 535 363 546 414 c 2,38,-1
 562 487 l 1,39,-1
 295 487 l 1,40,-1
 287 552 l 1,41,42
 342 662 342 662 527 662 c 2,43,-1
 599 662 l 1,44,-1
 635 833 l 1,45,-1
 368 833 l 1,46,-1
 361 898 l 1,47,48
 416 1008 416 1008 600 1008 c 2,49,-1
 672 1008 l 1,50,-1
 729 1276 l 1,51,-1
 799 1296 l 1,0,1
981 833 m 1,52,-1
 811 833 l 1,53,-1
 775 662 l 1,54,-1
 945 662 l 1,55,-1
 981 833 l 1,52,-1
EndSplineSet
Validated: 1
EndChar

StartChar: dollar
Encoding: 36 36 7
Width: 1303
GlyphClass: 2
Flags: W
HStem: -20 175<363.375 573> 1365 164<1052 1171.11>
VStem: 346 334<963.911 1198.42> 560 130<-172 -105.895> 935 130<1615.8 1682> 1007 338<420.067 694.774>
DStem2: 537.218 -189 687.102 -189 0.207912 0.978148<97.1417 172.746 452.227 956.875 1158.69 1550.75 1787.49 1864.07>
LayerCount: 2
Fore
SplineSet
573 -20 m 1,0,1
 268 -20 268 -20 99 138 c 1,2,-1
 232 381 l 1,3,4
 303 155 303 155 527 155 c 0,5,6
 570 155 570 155 612 163 c 1,7,-1
 736 747 l 1,8,9
 546 761 546 761 441 855 c 0,10,11
 346 940 346 940 346 1059 c 0,12,13
 346 1094 346 1094 354 1132 c 0,14,15
 391 1307 391 1307 560 1412 c 0,16,17
 712 1505 712 1505 901 1525 c 1,18,-1
 935 1682 l 1,19,-1
 991 1699 l 1,20,21
 1065 1672 1065 1672 1065 1605 c 0,22,23
 1065 1590 1065 1590 1061 1573 c 2,24,-1
 1052 1529 l 1,25,26
 1263 1518 1263 1518 1404 1409 c 1,27,-1
 1262 1147 l 1,28,29
 1237 1365 1237 1365 1017 1365 c 1,30,-1
 921 914 l 1,31,32
 1128 900 1128 900 1235 805 c 0,33,34
 1345 709 1345 709 1345 567 c 0,35,36
 1345 525 1345 525 1335 480 c 0,37,38
 1288 261 1288 261 1075 126 c 0,39,40
 916 25 916 25 726 -6 c 1,41,-1
 690 -172 l 1,42,-1
 634 -189 l 1,43,44
 560 -163 560 -163 560 -95 c 0,45,46
 560 -80 560 -80 564 -63 c 2,47,-1
 573 -20 l 1,0,1
859 1328 m 1,48,49
 792 1295 792 1295 747 1234 c 128,-1,50
 702 1173 702 1173 686 1096 c 0,51,52
 680 1066 680 1066 680 1041 c 0,53,54
 680 992 680 992 704 963 c 0,55,56
 725 937 725 937 774 925 c 1,57,-1
 859 1328 l 1,48,49
774 223 m 1,58,59
 886 286 886 286 945 388 c 0,60,61
 987 461 987 461 1001 531 c 0,62,63
 1007 563 1007 563 1007 590 c 0,64,65
 1007 657 1007 657 969 696 c 0,66,67
 936 728 936 728 883 736 c 1,68,-1
 774 223 l 1,58,59
EndSplineSet
Validated: 1
EndChar

StartChar: percent
Encoding: 37 37 8
Width: 1842
GlyphClass: 2
Flags: W
HStem: -20 158<1286.35 1471.99> 0 21G<647.5 783.542> 539 151<1395.75 1579.78> 820 158<585.354 770.987> 1379 151<694.745 878.777>
VStem: 360 211<990.119 1238.59> 892 209<1116.93 1367.52> 1061 211<150.119 398.591> 1593 209<276.926 527.517>
DStem2: 1385 1510 772 0 0.499844 0.866115<-1597.17 -15.6716>
LayerCount: 2
Fore
SplineSet
1365 138 m 0,0,1
 1416 138 1416 138 1469 180 c 0,2,3
 1518 218 1518 218 1554 286 c 0,4,5
 1578 332 1578 332 1587 378 c 0,6,7
 1593 408 1593 408 1593 432 c 128,-1,8
 1593 456 1593 456 1587 476 c 0,9,10
 1568 539 1568 539 1500 539 c 0,11,12
 1451 539 1451 539 1397 497 c 0,13,14
 1351 461 1351 461 1311 391 c 24,15,16
 1288 351 1288 351 1278 299 c 0,17,18
 1272 269 1272 269 1272 245.5 c 128,-1,19
 1272 222 1272 222 1278 201 c 0,20,21
 1297 138 1297 138 1365 138 c 0,0,1
1356 -20 m 0,22,23
 1201 -20 1201 -20 1123 75 c 0,24,25
 1061 150 1061 150 1061 251 c 0,26,27
 1061 291 1061 291 1071 335 c 0,28,29
 1105 495 1105 495 1234 596 c 0,30,31
 1355 690 1355 690 1507 690 c 0,32,33
 1662 690 1662 690 1740 596 c 0,34,35
 1802 520 1802 520 1802 418 c 0,36,37
 1802 379 1802 379 1793 335 c 0,38,39
 1760 179 1760 179 1629 74 c 0,40,41
 1512 -20 1512 -20 1356 -20 c 0,22,23
664 978 m 0,42,43
 715 978 715 978 768 1020 c 0,44,45
 817 1058 817 1058 853 1126 c 0,46,47
 877 1172 877 1172 886 1218 c 0,48,49
 892 1248 892 1248 892 1272 c 128,-1,50
 892 1296 892 1296 886 1316 c 0,51,52
 867 1379 867 1379 799 1379 c 0,53,54
 750 1379 750 1379 696 1337 c 0,55,56
 650 1301 650 1301 610 1231 c 24,57,58
 587 1191 587 1191 577 1139 c 0,59,60
 571 1109 571 1109 571 1085.5 c 128,-1,61
 571 1062 571 1062 577 1041 c 0,62,63
 596 978 596 978 664 978 c 0,42,43
674 0 m 1,64,65
 621 32 621 32 621 106 c 0,66,67
 621 133 621 133 628 165 c 0,68,69
 642 222 642 222 674 278 c 2,70,-1
 1385 1510 l 1,71,-1
 1484 1510 l 1,72,73
 1537 1478 1537 1478 1537 1405 c 0,74,75
 1537 1379 1537 1379 1530 1347 c 0,76,77
 1516 1290 1516 1290 1483 1232 c 2,78,-1
 772 0 l 1,79,-1
 674 0 l 1,64,65
806 1530 m 0,80,81
 961 1530 961 1530 1039 1436 c 0,82,83
 1101 1360 1101 1360 1101 1258 c 0,84,85
 1101 1219 1101 1219 1092 1175 c 0,86,87
 1059 1019 1059 1019 928 914 c 0,88,89
 811 820 811 820 655 820 c 0,90,91
 500 820 500 820 422 915 c 0,92,93
 360 990 360 990 360 1091 c 0,94,95
 360 1131 360 1131 370 1175 c 0,96,97
 404 1335 404 1335 533 1436 c 0,98,99
 654 1530 654 1530 806 1530 c 0,80,81
EndSplineSet
Validated: 1
EndChar

StartChar: quotesingle
Encoding: 39 39 9
Width: 289
GlyphClass: 2
Flags: W
HStem: 1120 473
VStem: 348 239<1303.45 1518.69>
LayerCount: 2
Fore
SplineSet
342 1516 m 1,0,-1
 587 1593 l 1,1,2
 585 1487 585 1487 564 1388 c 0,3,4
 543 1288 543 1288 500 1187 c 1,5,-1
 288 1120 l 1,6,7
 315 1196 315 1196 330 1266 c 0,8,9
 348 1351 348 1351 348 1428 c 0,10,11
 348 1474 348 1474 342 1516 c 1,0,-1
EndSplineSet
Validated: 1
EndChar

StartChar: parenleft
Encoding: 40 40 10
Width: 908
GlyphClass: 2
Flags: W
VStem: 294 304<132.266 780.899>
LayerCount: 2
Fore
SplineSet
845 -250 m 1,0,1
 448 -250 l 1,2,3
 294 63 294 63 294 407 c 0,4,5
 294 580 294 580 331 755 c 0,6,7
 445 1292 445 1292 875 1760 c 1,8,-1
 1272 1760 l 1,9,10
 754 1342 754 1342 631 755 c 0,11,12
 598 598 598 598 598 449 c 0,13,14
 598 54 598 54 845 -250 c 1,0,1
EndSplineSet
Validated: 1
EndChar

StartChar: parenright
Encoding: 41 41 11
Width: 908
GlyphClass: 2
Flags: W
VStem: 631 304<729.101 1377.98>
LayerCount: 2
Fore
SplineSet
-43 -250 m 1,0,1
 475 168 475 168 598 755 c 0,2,3
 631 912 631 912 631 1061 c 0,4,5
 631 1457 631 1457 384 1760 c 1,6,-1
 781 1760 l 1,7,8
 935 1447 935 1447 935 1103 c 0,9,10
 935 929 935 929 898 755 c 0,11,12
 784 218 784 218 354 -250 c 1,13,-1
 -43 -250 l 1,0,1
EndSplineSet
Validated: 1
EndChar

StartChar: asterisk
Encoding: 42 42 12
Width: 1069
GlyphClass: 2
Flags: W
VStem: 624 144<688 755.063> 775 145<1475.78 1544>
DStem2: 717 1268 387 1254 0.835357 -0.549708<-215.727 -17.5226 275.688 474.727> 516 1075 384 826 0.8894 0.45713<-196.131 70.217 422.64 687.886> 589.088 667 763.871 667 0.207912 0.978148<131.701 303.59 650.846 823.713>
LayerCount: 2
Fore
SplineSet
775 1544 m 1,0,-1
 846 1565 l 1,1,2
 920 1542 920 1542 920 1440 c 0,3,4
 920 1401 920 1401 909 1350 c 2,5,-1
 892 1268 l 1,6,-1
 1160 1406 l 1,7,-1
 1201 1360 l 1,8,9
 1201 1342 1201 1342 1198 1328 c 0,10,11
 1178 1235 1178 1235 1026 1157 c 2,12,-1
 947 1116 l 1,13,-1
 1157 978 l 1,14,-1
 1129 911 l 1,15,16
 1083 874 1083 874 1028 874 c 0,17,18
 965 874 965 874 889 924 c 2,19,-1
 827 964 l 1,20,-1
 768 688 l 1,21,-1
 699 667 l 1,22,23
 624 690 624 690 624 793 c 0,24,25
 624 832 624 832 635 883 c 2,26,-1
 652 964 l 1,27,-1
 384 826 l 1,28,-1
 342 873 l 1,29,30
 343 890 343 890 345 904 c 0,31,32
 365 996 365 996 516 1075 c 2,33,-1
 596 1116 l 1,34,-1
 387 1254 l 1,35,-1
 416 1322 l 1,36,37
 462 1358 462 1358 516 1358 c 0,38,39
 579 1358 579 1358 654 1309 c 2,40,-1
 717 1268 l 1,41,-1
 775 1544 l 1,0,-1
EndSplineSet
Validated: 1
EndChar

StartChar: plus
Encoding: 43 43 13
Width: 1219
GlyphClass: 2
Flags: W
HStem: 639 211<344.139 640 896 1194.42>
VStem: 594 181<281 348.53> 761 181<1139.66 1207>
DStem2: 558.363 255 769.378 255 0.207912 0.978148<139.523 392.582 652.196 905.256>
LayerCount: 2
Fore
SplineSet
851 1234 m 1,0,1
 942 1210 942 1210 942 1100 c 0,2,3
 942 1066 942 1066 933 1024 c 2,4,-1
 896 850 l 1,5,-1
 1253 850 l 1,6,-1
 1262 765 l 1,7,8
 1203 639 1203 639 1025 639 c 2,9,-1
 851 639 l 1,10,-1
 775 281 l 1,11,-1
 687 255 l 1,12,13
 594 279 594 279 594 389 c 0,14,15
 594 423 594 423 603 465 c 2,16,-1
 640 639 l 1,17,-1
 282 639 l 1,18,-1
 273 721 l 1,19,20
 332 850 332 850 511 850 c 2,21,-1
 685 850 l 1,22,-1
 761 1207 l 1,23,-1
 851 1234 l 1,0,1
EndSplineSet
Validated: 1
EndChar

StartChar: comma
Encoding: 44 44 14
Width: 417
GlyphClass: 2
Flags: W
HStem: -322 602
VStem: 165 247<-60.9434 140.561>
LayerCount: 2
Fore
SplineSet
334 280 m 1,0,1
 412 192 412 192 412 96 c 0,2,3
 412 71 412 71 407 45 c 0,4,5
 371 -123 371 -123 189 -251 c 1,6,-1
 -36 -322 l 1,7,8
 132 -164 132 -164 160 -27 c 0,9,10
 165 -2 165 -2 165 21 c 0,11,12
 165 125 165 125 61 194 c 1,13,-1
 334 280 l 1,0,1
EndSplineSet
Validated: 1
EndChar

StartChar: hyphen
Encoding: 45 45 15
Width: 1219
GlyphClass: 2
Flags: W
HStem: 639 211<344.139 1194.42>
LayerCount: 2
Fore
SplineSet
1253 850 m 1,0,-1
 1262 765 l 1,1,2
 1203 639 1203 639 1025 639 c 2,3,-1
 282 639 l 1,4,-1
 273 721 l 1,5,6
 332 850 332 850 511 850 c 2,7,-1
 1253 850 l 1,0,-1
EndSplineSet
Validated: 1
EndChar

StartChar: period
Encoding: 46 46 16
Width: 404
GlyphClass: 2
Flags: W
HStem: -20 370<147.766 326.305>
VStem: 51 372<75.783 254>
LayerCount: 2
Fore
SplineSet
198 -20 m 128,-1,1
 122 -20 122 -20 80 34 c 0,2,3
 51 72 51 72 51 124 c 0,4,5
 51 144 51 144 55 165 c 0,6,7
 71 242 71 242 135.5 296 c 128,-1,8
 200 350 200 350 276 350 c 0,9,10
 354 350 354 350 394 296 c 0,11,12
 423 257 423 257 423 206 c 0,13,14
 423 186 423 186 419 165 c 0,15,16
 403 88 403 88 338.5 34 c 128,-1,0
 274 -20 274 -20 198 -20 c 128,-1,1
EndSplineSet
Validated: 1
EndChar

StartChar: slash
Encoding: 47 47 17
Width: 861
GlyphClass: 2
Flags: W
DStem2: 980 1690 201 -180 0.499125 0.86653<-1996.44 -10.0597>
LayerCount: 2
Fore
SplineSet
78 -180 m 1,0,1
 12 -133 12 -133 12 -57 c 0,2,3
 12 -37 12 -37 17 -15 c 0,4,5
 28 36 28 36 63 98 c 2,6,-1
 980 1690 l 1,7,-1
 1104 1690 l 1,8,9
 1171 1644 1171 1644 1171 1569 c 0,10,11
 1171 1549 1171 1549 1166 1527 c 0,12,13
 1155 1475 1155 1475 1118 1412 c 2,14,-1
 201 -180 l 1,15,-1
 78 -180 l 1,0,1
EndSplineSet
Validated: 1
EndChar

StartChar: zero
Encoding: 48 48 18
Width: 1786
GlyphClass: 2
Flags: W
HStem: -20 180<659.574 1056.11> 1348 182<1049.73 1448>
VStem: 210 307<341.552 746.286> 1589 307<756.593 1165.93>
LayerCount: 2
Fore
SplineSet
839 160 m 0,0,1
 1010 160 1010 160 1176 268 c 0,2,3
 1361 388 1361 388 1470 586 c 0,4,5
 1546 723 1546 723 1575 874 c 0,6,7
 1589 950 1589 950 1589 1014 c 0,8,9
 1589 1101 1589 1101 1563 1166 c 0,10,11
 1488 1348 1488 1348 1268 1348 c 0,12,13
 1093 1348 1093 1348 932 1240 c 0,14,15
 743 1114 743 1114 637 921 c 0,16,17
 564 788 564 788 532 634 c 16,18,19
 517 560 517 560 517 496 c 0,20,21
 517 410 517 410 544 342 c 0,22,23
 617 160 617 160 839 160 c 0,0,1
888 -20 m 128,-1,25
 544 -20 544 -20 351 191 c 0,26,27
 210 347 210 347 210 574 c 0,28,29
 210 659 210 659 230 755 c 0,30,31
 305 1109 305 1109 590 1319 c 0,32,33
 876 1530 876 1530 1217 1530 c 0,34,35
 1570 1530 1570 1530 1754 1319 c 0,36,37
 1896 1158 1896 1158 1896 933 c 0,38,39
 1896 849 1896 849 1876 755 c 0,40,41
 1802 406 1802 406 1515 191 c 0,42,24
 1232 -20 1232 -20 888 -20 c 128,-1,25
EndSplineSet
Validated: 1
EndChar

StartChar: one
Encoding: 49 49 19
Width: 760
GlyphClass: 2
Flags: W
HStem: -20 21G<334.5 465.818> 1390 34<341.157 385.578> 1510 20G<613.415 746.5>
VStem: 502 314<1119.86 1435.11>
DStem2: 220.464 -20 530.464 -20 0.207912 0.978148<178.512 1370.66>
LayerCount: 2
Fore
SplineSet
404 -20 m 1,0,1
 265 16 265 16 265 152 c 0,2,3
 265 185 265 185 273 224 c 2,4,-1
 497 1281 l 2,5,6
 502 1304 502 1304 502 1322 c 0,7,8
 502 1399 502 1399 417 1399 c 0,9,10
 379 1399 379 1399 342 1390 c 1,11,-1
 340 1424 l 1,12,-1
 677 1530 l 1,13,14
 816 1491 816 1491 816 1355 c 0,15,16
 816 1321 816 1321 807 1281 c 2,17,-1
 540 24 l 1,18,-1
 404 -20 l 1,0,1
EndSplineSet
Validated: 1
EndChar

StartChar: two
Encoding: 50 50 20
Width: 1473
GlyphClass: 2
Flags: W
HStem: 0 178<603 1274.68> 0 133<166 217.092> 1360 170<919.385 1176.63>
VStem: 356 314<758.425 1077.8> 1212 304<1007.88 1325.02>
LayerCount: 2
Fore
SplineSet
166 0 m 1,0,-1
 148 133 l 1,1,2
 897 511 897 511 1133 936 c 0,3,4
 1183 1026 1183 1026 1202 1127 c 0,5,6
 1212 1177 1212 1177 1212 1215 c 0,7,8
 1212 1258 1212 1258 1199 1286 c 0,9,10
 1164 1360 1164 1360 1067 1360 c 0,11,12
 984 1360 984 1360 906 1309 c 0,13,14
 796 1237 796 1237 739 1131 c 0,15,16
 696 1050 696 1050 679 968 c 0,17,18
 670 923 670 923 670 886 c 0,19,20
 670 836 670 836 686 800 c 0,21,22
 706 755 706 755 762 720 c 1,23,-1
 788 540 l 1,24,25
 561 550 561 550 446 681 c 0,26,27
 356 783 356 783 356 924 c 0,28,29
 356 977 356 977 369 1035 c 0,30,31
 416 1254 416 1254 596 1388 c 0,32,33
 787 1530 787 1530 1050 1530 c 0,34,35
 1300 1530 1300 1530 1426 1388 c 0,36,37
 1516 1288 1516 1288 1516 1147 c 0,38,39
 1516 1095 1516 1095 1503 1037 c 0,40,41
 1403 568 1403 568 603 178 c 1,42,-1
 1214 178 l 2,43,44
 1305 178 1305 178 1393 289 c 1,45,-1
 1414 289 l 1,46,-1
 1297 74 l 2,47,48
 1257 0 1257 0 1152 0 c 2,49,-1
 166 0 l 1,0,-1
EndSplineSet
Validated: 1
EndChar

StartChar: three
Encoding: 51 51 21
Width: 1311
GlyphClass: 2
Flags: W
HStem: -20 170<492.541 739.913> 1332 178<567.321 1049>
VStem: 146 315<185.46 358> 997 307<446.888 761.692>
LayerCount: 2
Fore
SplineSet
611 -20 m 0,0,1
 360 -20 360 -20 235 123 c 0,2,3
 147 223 147 223 146 358 c 1,4,-1
 480 464 l 1,5,6
 461 376 461 376 461 314 c 0,7,8
 461 277 461 277 468 248 c 0,9,10
 491 150 491 150 594 150 c 0,11,12
 676 150 676 150 755 202 c 0,13,14
 867 276 867 276 922 381 c 0,15,16
 965 463 965 463 983 544 c 0,17,18
 997 608 997 608 997 656 c 0,19,20
 997 694 997 694 988 720 c 0,21,22
 961 803 961 803 853 803 c 0,23,24
 737 803 737 803 631 719 c 1,25,-1
 605 883 l 1,26,27
 928 1098 928 1098 1049 1332 c 1,28,-1
 628 1332 l 2,29,30
 537 1332 537 1332 449 1221 c 1,31,-1
 428 1221 l 1,32,-1
 545 1436 l 2,33,34
 585 1510 585 1510 690 1510 c 2,35,-1
 1393 1510 l 1,36,-1
 1409 1384 l 1,37,38
 1255 1103 1255 1103 996 949 c 1,39,40
 1136 914 1136 914 1214 825 c 0,41,42
 1304 724 1304 724 1304 582 c 0,43,44
 1304 530 1304 530 1292 473 c 0,45,46
 1246 257 1246 257 1064 122 c 0,47,48
 872 -20 872 -20 611 -20 c 0,0,1
EndSplineSet
Validated: 1
EndChar

StartChar: five
Encoding: 53 53 22
Width: 1311
GlyphClass: 2
Flags: W
HStem: -20 170<498.018 744.892> 799 171<700.805 964.089> 1332 178<824.219 1372.5>
VStem: 146 316<187.346 357> 401 275<954.749 1121.59> 996 309<440.667 764.93>
LayerCount: 2
Fore
SplineSet
611 -20 m 0,0,1
 360 -20 360 -20 235 123 c 0,2,3
 152 218 152 218 146 357 c 1,4,-1
 478 458 l 1,5,6
 462 382 462 382 462 325 c 0,7,8
 462 277 462 277 473 241 c 0,9,10
 502 150 502 150 594 150 c 0,11,12
 675 150 675 150 755 201 c 0,13,14
 860 267 860 267 922 379 c 0,15,16
 967 460 967 460 984 542 c 0,17,18
 996 599 996 599 996 643 c 0,19,20
 996 685 996 685 985 716 c 0,21,22
 957 799 957 799 858 799 c 0,23,24
 766 799 766 799 688 746 c 0,25,26
 603 688 603 688 538 607 c 1,27,28
 401 791 401 791 401 985 c 0,29,30
 401 1044 401 1044 414 1103 c 0,31,32
 456 1301 456 1301 638 1510 c 1,33,-1
 1313 1510 l 2,34,35
 1404 1510 1404 1510 1493 1621 c 1,36,-1
 1514 1621 l 1,37,-1
 1396 1406 l 2,38,39
 1355 1332 1355 1332 1251 1332 c 2,40,-1
 858 1332 l 1,41,42
 716 1169 716 1169 684 1018 c 0,43,44
 677 986 677 986 676 954 c 1,45,46
 757 970 757 970 839 970 c 0,47,48
 1089 970 1089 970 1215 828 c 0,49,50
 1305 728 1305 728 1305 586 c 0,51,52
 1305 533 1305 533 1292 475 c 0,53,54
 1246 257 1246 257 1064 122 c 0,55,56
 872 -20 872 -20 611 -20 c 0,0,1
EndSplineSet
Validated: 1
EndChar

StartChar: six
Encoding: 54 54 23
Width: 1434
GlyphClass: 2
Flags: W
HStem: -20 170<601.876 863.319> 1510 20G<791 1216.86>
VStem: 236 307<250.661 651.421> 1120 310<446.813 769.471>
LayerCount: 2
Fore
SplineSet
734 -20 m 0,0,1
 484 -20 484 -20 359 126 c 0,2,3
 236 270 236 270 236 469 c 0,4,5
 236 545 236 545 254 630 c 0,6,7
 385 1247 385 1247 1197 1530 c 1,8,-1
 1338 1388 l 1,9,10
 1007 1220 1007 1220 836 1051 c 0,11,12
 620 838 620 838 563 560 c 0,13,14
 543 462 543 462 543 386 c 0,15,16
 543 298 543 298 570 240 c 0,17,18
 612 150 612 150 717 150 c 0,19,20
 799 150 799 150 878 203 c 0,21,22
 985 274 985 274 1047 385 c 0,23,24
 1088 458 1088 458 1109 551 c 0,25,26
 1120 602 1120 602 1120 643 c 0,27,28
 1120 693 1120 693 1104 729 c 0,29,30
 1075 795 1075 795 975 818 c 1,31,-1
 952 986 l 1,32,33
 1216 986 1216 986 1341 841 c 0,34,35
 1430 739 1430 739 1430 596 c 0,36,37
 1430 542 1430 542 1417 483 c 0,38,39
 1369 259 1369 259 1188 124 c 0,40,41
 997 -20 997 -20 734 -20 c 0,0,1
EndSplineSet
Validated: 1
EndChar

StartChar: seven
Encoding: 55 55 24
Width: 1118
GlyphClass: 2
Flags: W
HStem: 1330 180<408.321 1006>
LayerCount: 2
Fore
SplineSet
255 -40 m 1,0,1
 547 868 547 868 1006 1330 c 1,2,-1
 468 1330 l 2,3,4
 376 1330 376 1330 290 1221 c 1,5,-1
 269 1221 l 1,6,-1
 386 1436 l 2,7,8
 426 1510 426 1510 531 1510 c 2,9,-1
 1384 1510 l 1,10,-1
 1401 1381 l 1,11,12
 885 877 885 877 605 68 c 1,13,-1
 255 -40 l 1,0,1
EndSplineSet
Validated: 1
EndChar

StartChar: eight
Encoding: 56 56 25
Width: 1401
GlyphClass: 2
Flags: W
HStem: -20 170<555.186 834.378> 745 171<732.996 1026.07> 1360 170<864.4 1151.56>
VStem: 198 310<203.256 473.41> 393 307<947.844 1200.33> 1076 317<419.092 699.942> 1190 293<1072.19 1316.72>
LayerCount: 2
Fore
SplineSet
647 -20 m 0,0,1
 433 -20 433 -20 307 90 c 0,2,3
 198 185 198 185 198 325 c 0,4,5
 198 367 198 367 208 414 c 0,6,7
 254 631 254 631 467 766 c 1,8,-1
 781 687 l 1,9,10
 647 620 647 620 584 532 c 0,11,12
 535 462 535 462 515 367 c 0,13,14
 508 335 508 335 508 307 c 0,15,16
 508 242 508 242 545 202 c 0,17,18
 593 150 593 150 688 150 c 0,19,20
 788 150 788 150 881 225 c 24,21,22
 958 287 958 287 1005 367 c 0,23,24
 1051 447 1051 447 1069 531 c 0,25,26
 1076 564 1076 564 1076 592 c 0,27,28
 1076 657 1076 657 1039 694 c 0,29,30
 988 745 988 745 851 745 c 0,31,32
 614 745 614 745 489 855 c 0,33,34
 393 939 393 939 393 1059 c 0,35,36
 393 1094 393 1094 401 1132 c 0,37,38
 438 1304 438 1304 607 1412 c 0,39,40
 792 1530 792 1530 1034 1530 c 0,41,42
 1266 1530 1266 1530 1387 1421 c 0,43,44
 1483 1335 1483 1335 1483 1216 c 0,45,46
 1483 1182 1483 1182 1475 1146 c 0,47,48
 1445 1003 1445 1003 1314 900 c 1,49,-1
 1007 947 l 1,50,51
 1082 983 1082 983 1123 1038 c 0,52,53
 1169 1099 1169 1099 1185 1176 c 0,54,55
 1190 1200 1190 1200 1190 1221 c 0,56,57
 1190 1276 1190 1276 1158 1311 c 0,58,59
 1113 1360 1113 1360 1033 1360 c 0,60,61
 956 1360 956 1360 899 1334 c 0,62,63
 819 1298 819 1298 777 1247 c 0,64,65
 722 1180 722 1180 705 1098 c 0,66,67
 700 1071 700 1071 700 1048 c 0,68,69
 700 997 700 997 726 964 c 0,70,71
 765 916 765 916 894 916 c 0,72,73
 1162 916 1162 916 1284 805 c 0,74,75
 1393 706 1393 706 1393 567 c 0,76,77
 1393 525 1393 525 1383 480 c 0,78,79
 1337 264 1337 264 1124 126 c 0,80,81
 898 -20 898 -20 647 -20 c 0,0,1
EndSplineSet
Validated: 1
EndChar

StartChar: nine
Encoding: 57 57 26
Width: 1434
GlyphClass: 2
Flags: W
HStem: -20 21G<538.141 964> 1360 170<891.681 1153.12>
VStem: 325 310<740.529 1063.19> 1212 307<858.579 1259.34>
LayerCount: 2
Fore
SplineSet
558 -20 m 1,0,-1
 417 122 l 1,1,2
 748 290 748 290 919 459 c 0,3,4
 1135 672 1135 672 1192 950 c 0,5,6
 1212 1048 1212 1048 1212 1124 c 0,7,8
 1212 1212 1212 1212 1185 1270 c 0,9,10
 1143 1360 1143 1360 1038 1360 c 0,11,12
 956 1360 956 1360 877 1307 c 0,13,14
 770 1236 770 1236 708 1125 c 0,15,16
 667 1052 667 1052 646 959 c 0,17,18
 635 908 635 908 635 867 c 0,19,20
 635 817 635 817 651 781 c 0,21,22
 680 715 680 715 780 692 c 1,23,-1
 803 524 l 1,24,25
 539 524 539 524 414 669 c 0,26,27
 325 771 325 771 325 914 c 0,28,29
 325 968 325 968 338 1027 c 0,30,31
 386 1251 386 1251 567 1386 c 0,32,33
 758 1530 758 1530 1021 1530 c 0,34,35
 1271 1530 1271 1530 1396 1384 c 0,36,37
 1519 1240 1519 1240 1519 1041 c 0,38,39
 1519 965 1519 965 1501 880 c 0,40,41
 1370 263 1370 263 558 -20 c 1,0,-1
EndSplineSet
Validated: 1
EndChar

StartChar: colon
Encoding: 58 58 27
Width: 404
GlyphClass: 2
Flags: W
HStem: -19 370<148.695 326.644> 569 370<273.356 451.305>
VStem: 52 496
LayerCount: 2
Fore
SplineSet
402 939 m 128,-1,1
 478 939 478 939 520 885 c 0,2,3
 548 849 548 849 548 796 c 0,4,5
 548 771 548 771 544 754 c 0,6,7
 528 677 528 677 463.5 623 c 128,-1,8
 399 569 399 569 323 569 c 0,9,10
 248 569 248 569 206 623 c 0,11,12
 176 662 176 662 176 712 c 0,13,14
 176 732 176 732 180 754 c 0,15,16
 196 831 196 831 261 885 c 128,-1,0
 326 939 326 939 402 939 c 128,-1,1
198 -19 m 128,-1,18
 122 -19 122 -19 80 35 c 0,19,20
 52 71 52 71 52 124 c 0,21,22
 52 147 52 147 56 166 c 0,23,24
 72 243 72 243 136.5 297 c 128,-1,25
 201 351 201 351 277 351 c 0,26,27
 352 351 352 351 394 297 c 0,28,29
 424 258 424 258 424 208 c 0,30,31
 424 188 424 188 420 166 c 0,32,33
 404 89 404 89 339 35 c 128,-1,17
 274 -19 274 -19 198 -19 c 128,-1,18
EndSplineSet
Validated: 1
EndChar

StartChar: semicolon
Encoding: 59 59 28
Width: 417
GlyphClass: 2
Flags: W
HStem: 569 370<273.356 451.305>
VStem: 165 247<-60.9434 140.561>
LayerCount: 2
Fore
SplineSet
402 939 m 128,-1,1
 478 939 478 939 520 885 c 0,2,3
 548 849 548 849 548 796 c 0,4,5
 548 772 548 772 544 754 c 0,6,7
 528 677 528 677 463.5 623 c 128,-1,8
 399 569 399 569 323 569 c 0,9,10
 248 569 248 569 206 623 c 0,11,12
 176 662 176 662 176 712 c 0,13,14
 176 732 176 732 180 754 c 0,15,16
 196 831 196 831 261 885 c 128,-1,0
 326 939 326 939 402 939 c 128,-1,1
334 280 m 1,17,18
 412 192 412 192 412 96 c 0,19,20
 412 71 412 71 407 45 c 0,21,22
 371 -123 371 -123 189 -251 c 1,23,-1
 -36 -322 l 1,24,25
 132 -164 132 -164 160 -27 c 0,26,27
 165 -2 165 -2 165 21 c 0,28,29
 165 125 165 125 61 194 c 1,30,-1
 334 280 l 1,17,18
EndSplineSet
Validated: 1
EndChar

StartChar: less
Encoding: 60 60 29
Width: 1311
GlyphClass: 2
Flags: W
DStem2: 662 725 263 675 0.888486 -0.458904<0 526.951> 473 886 662 725 0.920594 0.390522<111.118 876.84>
LayerCount: 2
Fore
SplineSet
1324 1247 m 1,0,-1
 1387 1161 l 1,1,2
 1359 1012 1359 1012 1198 946 c 2,3,-1
 662 725 l 1,4,-1
 1235 441 l 1,5,-1
 1210 366 l 1,6,7
 1152 320 1152 320 1049 320 c 0,8,9
 950 320 950 320 869 362 c 2,10,-1
 263 675 l 1,11,12
 291 809 291 809 473 886 c 2,13,-1
 1324 1247 l 1,0,-1
EndSplineSet
Validated: 1
EndChar

StartChar: equal
Encoding: 61 61 30
Width: 1219
GlyphClass: 2
Flags: W
HStem: 438 211<301.961 1151.42> 840 211<386.961 1236.59>
LayerCount: 2
Fore
SplineSet
1210 649 m 1,0,-1
 1219 564 l 1,1,2
 1160 438 1160 438 982 438 c 2,3,-1
 239 438 l 1,4,-1
 231 520 l 1,5,6
 290 649 290 649 468 649 c 2,7,-1
 1210 649 l 1,0,-1
1295 1051 m 1,8,-1
 1304 966 l 1,9,10
 1245 840 1245 840 1068 840 c 2,11,-1
 325 840 l 1,12,-1
 316 922 l 1,13,14
 375 1051 375 1051 553 1051 c 2,15,-1
 1295 1051 l 1,8,-1
EndSplineSet
Validated: 1
EndChar

StartChar: greater
Encoding: 62 62 31
Width: 1311
GlyphClass: 2
Flags: W
DStem2: 770 1183 404 1104 0.888486 -0.458904<-176.452 350.499> 441 599 315 298 0.920594 0.390522<-174.876 579.744>
LayerCount: 2
Fore
SplineSet
315 298 m 1,0,-1
 252 384 l 1,1,2
 280 533 280 533 441 599 c 2,3,-1
 977 820 l 1,4,-1
 404 1104 l 1,5,-1
 429 1179 l 1,6,7
 487 1225 487 1225 590 1225 c 0,8,9
 689 1225 689 1225 770 1183 c 2,10,-1
 1376 870 l 1,11,12
 1348 736 1348 736 1166 659 c 2,13,-1
 315 298 l 1,0,-1
EndSplineSet
Validated: 1
EndChar

StartChar: question
Encoding: 63 63 32
Width: 1374
GlyphClass: 2
Flags: W
HStem: -20 370<609.356 786.644> 1360 170<890.385 1147.44>
VStem: 1182 305<1014.32 1325.01>
LayerCount: 2
Fore
SplineSet
659 -20 m 0,0,1
 584 -20 584 -20 542 34 c 0,2,3
 512 73 512 73 512 124 c 0,4,5
 512 144 512 144 516 165 c 0,6,7
 532 242 532 242 596.5 296 c 128,-1,8
 661 350 661 350 737 350 c 0,9,10
 812 350 812 350 854 296 c 0,11,12
 884 257 884 257 884 206 c 0,13,14
 884 186 884 186 880 165 c 0,15,16
 864 88 864 88 799.5 34 c 128,-1,17
 735 -20 735 -20 659 -20 c 0,0,1
1021 1530 m 0,18,19
 1271 1530 1271 1530 1397 1388 c 0,20,21
 1487 1288 1487 1288 1487 1147 c 0,22,23
 1487 1095 1487 1095 1474 1037 c 0,24,25
 1396 672 1396 672 938 444 c 1,26,-1
 579 444 l 1,27,28
 985 709 985 709 1104 936 c 0,29,30
 1158 1039 1158 1039 1173 1122 c 0,31,32
 1182 1172 1182 1172 1182 1211 c 0,33,34
 1182 1259 1182 1259 1168 1288 c 0,35,36
 1133 1360 1133 1360 1038 1360 c 0,37,38
 955 1360 955 1360 877 1309 c 0,39,40
 767 1237 767 1237 710 1131 c 0,41,42
 667 1050 667 1050 650 968 c 1,43,-1
 331 868 l 1,44,45
 328 896 328 896 328 924 c 0,46,47
 328 978 328 978 340 1035 c 0,48,49
 387 1254 387 1254 567 1388 c 0,50,51
 758 1530 758 1530 1021 1530 c 0,18,19
EndSplineSet
Validated: 1
EndChar

StartChar: at
Encoding: 64 64 33
Width: 1639
GlyphClass: 2
Flags: W
HStem: -430 148<542.364 955.29> -20 21G<1439.5 1560.77> 0 30<983.9 1014> 962 158<920.91 1168>
VStem: 123 249<-69.834 338.974> 501 317<123.468 394.562> 1376 290<27.6405 443.329>
LayerCount: 2
Fore
SplineSet
1495 -20 m 1,0,1
 1384 5 1384 5 1376 104 c 0,2,3
 1337 616 1337 616 1176 906 c 0,4,5
 1145 962 1145 962 1071 962 c 0,6,7
 1005 962 1005 962 908 911 c 0,8,9
 858 885 858 885 809 852 c 0,10,11
 606 715 606 715 496 519 c 0,12,13
 418 380 418 380 387 225 c 0,14,15
 372 148 372 148 372 81 c 0,16,17
 372 -16 372 -16 404 -89 c 0,18,19
 432 -154 432 -154 488 -202 c 0,20,21
 583 -282 583 -282 741 -282 c 0,22,23
 939 -282 939 -282 1122 -142 c 1,24,-1
 1462 -186 l 1,25,26
 1149 -430 1149 -430 801 -430 c 0,27,28
 455 -430 455 -430 263 -219 c 16,29,30
 123 -63 123 -63 123 162 c 0,31,32
 123 248 123 248 143 345 c 0,33,34
 218 698 218 698 503 909 c 128,-1,35
 788 1120 788 1120 1130 1120 c 0,36,37
 1375 1120 1375 1120 1459 971 c 0,38,39
 1632 667 1632 667 1666 32 c 1,40,-1
 1495 -20 l 1,0,1
1014 0 m 1,41,42
 501 0 501 0 501 239 c 0,43,44
 501 268 501 268 508 300 c 0,45,46
 572 579 572 579 1136 824 c 1,47,-1
 1149 800 l 1,48,49
 875 544 875 544 824 304 c 0,50,51
 818 274 818 274 818 247 c 0,52,53
 818 94 818 94 1020 30 c 1,54,-1
 1014 0 l 1,41,42
EndSplineSet
Validated: 1
EndChar

StartChar: A
Encoding: 65 65 34
Width: 1626
GlyphClass: 2
Flags: W
HStem: -20 21G<1396.5 1516.44> 0 30<733.363 772> 1100 20G<605.5 991.833> 1395 34<826.735 871.982> 1510 20G<1090.46 1200.5>
VStem: 144 344<168.471 488.959> 1330 325<38.5509 398.203>
LayerCount: 2
Fore
SplineSet
1452 -20 m 5,0,1
 1341 -1 1341 -1 1330 96 c 4,2,3
 1252 806 1252 806 989 1340 c 4,4,5
 957 1405 957 1405 893 1405 c 4,6,7
 858 1405 858 1405 828 1395 c 5,8,-1
 825 1429 l 5,9,-1
 1156 1530 l 5,10,11
 1245 1514 1245 1514 1297 1420 c 4,12,13
 1582 898 1582 898 1655 43 c 5,14,-1
 1452 -20 l 5,0,1
772 0 m 1,15,16
 144 0 144 0 144 312 c 0,17,18
 144 349 144 349 153 390 c 0,19,20
 230 751 230 751 981 1120 c 1,21,-1
 994 1096 l 1,22,23
 563 705 563 705 498 402 c 0,24,25
 488 357 488 357 488 317 c 0,26,27
 488 97 488 97 778 30 c 1,28,-1
 772 0 l 1,15,16
EndSplineSet
Validated: 1
EndChar

StartChar: C
Encoding: 67 67 35
Width: 1568
GlyphClass: 2
Flags: W
HStem: -20 180<659.369 1058.9> 1348 182<1047.63 1443.26>
VStem: 210 307<340.868 746.707>
LayerCount: 2
Fore
SplineSet
887 -20 m 0,0,1
 544 -20 544 -20 351 191 c 0,2,3
 210 345 210 345 210 572 c 0,4,5
 210 658 210 658 230 755 c 0,6,7
 305 1109 305 1109 590 1319 c 0,8,9
 876 1530 876 1530 1217 1530 c 0,10,11
 1561 1530 1561 1530 1754 1319 c 1,12,-1
 1586 1014 l 1,13,14
 1558 1348 1558 1348 1266 1348 c 0,15,16
 1088 1348 1088 1348 928 1239 c 0,17,18
 744 1113 744 1113 637 921 c 0,19,20
 564 790 564 790 532 634 c 0,21,22
 517 560 517 560 517 496 c 0,23,24
 517 410 517 410 544 342 c 0,25,26
 617 160 617 160 839 160 c 0,27,28
 1056 160 1056 160 1238 319 c 1,29,-1
 1543 213 l 1,30,31
 1234 -20 1234 -20 887 -20 c 0,0,1
EndSplineSet
Validated: 1
EndChar

StartChar: E
Encoding: 69 69 36
Width: 1568
GlyphClass: 2
Flags: W
HStem: -20 180<659.369 1058.9> 622 178<580 1390.5> 1348 182<1047.63 1443.26>
VStem: 210 307<340.868 621.245>
LayerCount: 2
Fore
SplineSet
887 -20 m 0,0,1
 544 -20 544 -20 351 191 c 0,2,3
 210 345 210 345 210 572 c 0,4,5
 210 658 210 658 230 755 c 0,6,7
 305 1109 305 1109 590 1319 c 0,8,9
 876 1530 876 1530 1217 1530 c 0,10,11
 1561 1530 1561 1530 1754 1319 c 1,12,-1
 1586 1014 l 1,13,14
 1558 1348 1558 1348 1266 1348 c 0,15,16
 1088 1348 1088 1348 928 1239 c 0,17,18
 741 1111 741 1111 637 921 c 0,19,20
 605 863 605 863 580 800 c 1,21,-1
 1331 800 l 2,22,23
 1422 800 1422 800 1511 911 c 1,24,-1
 1532 911 l 1,25,-1
 1414 696 l 2,26,27
 1373 622 1373 622 1269 622 c 2,28,-1
 529 622 l 1,29,30
 517 563 517 563 517 496 c 0,31,32
 517 410 517 410 544 342 c 0,33,34
 617 160 617 160 839 160 c 0,35,36
 1056 160 1056 160 1238 319 c 1,37,-1
 1543 213 l 1,38,39
 1234 -20 1234 -20 887 -20 c 0,0,1
EndSplineSet
Validated: 1
EndChar

StartChar: F
Encoding: 70 70 37
Width: 1454
GlyphClass: 2
Flags: W
HStem: -430 21G<192 323.818> 309 178<584 1221.38> 1348 182<1040.53 1443.67> 1390 34<286.157 330.578>
DStem2: 78.1362 -430 388.921 -430 0.207912 0.978148<179.32 820.125 1002.14 1599.24>
LayerCount: 2
Fore
SplineSet
262 -430 m 1,0,1
 122 -394 122 -394 122 -257 c 0,2,3
 122 -225 122 -225 130 -186 c 2,4,-1
 442 1281 l 2,5,6
 447 1304 447 1304 447 1322 c 0,7,8
 447 1399 447 1399 362 1399 c 0,9,10
 324 1399 324 1399 287 1390 c 1,11,-1
 285 1424 l 1,12,-1
 622 1530 l 1,13,14
 729 1500 729 1500 754 1411 c 1,15,16
 966 1530 966 1530 1217 1530 c 0,17,18
 1561 1530 1561 1530 1754 1319 c 1,19,-1
 1586 1014 l 1,20,21
 1558 1348 1558 1348 1268 1348 c 0,22,23
 1080 1348 1080 1348 922 1240 c 0,24,25
 714 1097 714 1097 653 814 c 2,26,-1
 584 487 l 1,27,-1
 1162 487 l 2,28,29
 1253 487 1253 487 1341 598 c 1,30,-1
 1362 598 l 1,31,-1
 1244 383 l 2,32,33
 1203 309 1203 309 1100 309 c 2,34,-1
 546 309 l 1,35,-1
 398 -386 l 1,36,-1
 262 -430 l 1,0,1
EndSplineSet
Validated: 1
EndChar

StartChar: G
Encoding: 71 71 38
Width: 1749
GlyphClass: 2
Flags: W
HStem: -430 21G<1291 1422.82> -20 180<659.369 1058.25> 1348 182<1047.63 1443.26>
VStem: 210 307<340.868 746.942>
DStem2: 1177.14 -430 1487.65 -430 0.207912 0.978148<178.372 502.073 733.114 1037.32>
LayerCount: 2
Fore
SplineSet
887 -20 m 0,0,1
 544 -20 544 -20 351 191 c 0,2,3
 210 345 210 345 210 572 c 0,4,5
 210 658 210 658 230 755 c 0,6,7
 305 1109 305 1109 590 1319 c 0,8,9
 876 1530 876 1530 1217 1530 c 0,10,11
 1561 1530 1561 1530 1754 1319 c 1,12,-1
 1586 1014 l 1,13,14
 1558 1348 1558 1348 1266 1348 c 0,15,16
 1088 1348 1088 1348 928 1239 c 0,17,18
 744 1113 744 1113 637 921 c 0,19,20
 564 791 564 791 532 634 c 0,21,22
 517 560 517 560 517 496 c 0,23,24
 517 410 517 410 544 342 c 0,25,26
 617 160 617 160 839 160 c 0,27,28
 1056 160 1056 160 1238 319 c 1,29,-1
 1330 287 l 1,30,-1
 1408 652 l 1,31,-1
 1544 696 l 1,32,33
 1683 660 1683 660 1683 524 c 0,34,35
 1683 491 1683 491 1675 452 c 2,36,-1
 1497 -386 l 1,37,-1
 1361 -430 l 1,38,39
 1221 -394 1221 -394 1221 -258 c 0,40,41
 1221 -225 1221 -225 1229 -186 c 2,42,-1
 1282 61 l 1,43,44
 1091 -20 1091 -20 887 -20 c 0,0,1
EndSplineSet
Validated: 1
EndChar

StartChar: I
Encoding: 73 73 39
Width: 660
GlyphClass: 2
Flags: W
HStem: -20 21G<284.5 415.818> 1390 34<291.157 335.578> 1510 20G<563.415 696.5>
VStem: 452 314<1119.86 1435.11>
DStem2: 170.464 -20 480.464 -20 0.207912 0.978148<178.512 1370.66>
LayerCount: 2
Fore
SplineSet
354 -20 m 1,0,1
 215 16 215 16 215 152 c 0,2,3
 215 185 215 185 223 224 c 2,4,-1
 447 1281 l 2,5,6
 452 1304 452 1304 452 1322 c 0,7,8
 452 1399 452 1399 367 1399 c 0,9,10
 329 1399 329 1399 292 1390 c 1,11,-1
 290 1424 l 1,12,-1
 627 1530 l 1,13,14
 766 1491 766 1491 766 1355 c 0,15,16
 766 1321 766 1321 757 1281 c 2,17,-1
 490 24 l 1,18,-1
 354 -20 l 1,0,1
EndSplineSet
Validated: 1
EndChar

StartChar: J
Encoding: 74 74 40
Width: 660
GlyphClass: 2
Flags: W
HStem: -430 21G<-92 149> 1390 34<291.157 335.578> 1510 20G<563.415 696.5>
VStem: 452 314<1130.23 1435.11>
DStem2: 84.0061 -430 393.644 -430 0.207912 0.978148<222.733 1789.67>
LayerCount: 2
Fore
SplineSet
-96 -430 m 1,0,1
 -90 -400 l 1,2,3
 106 -327 106 -327 155 -96 c 2,4,-1
 447 1281 l 2,5,6
 452 1304 452 1304 452 1322 c 0,7,8
 452 1399 452 1399 367 1399 c 0,9,10
 329 1399 329 1399 292 1390 c 1,11,-1
 290 1424 l 1,12,-1
 627 1530 l 1,13,14
 766 1491 766 1491 766 1355 c 0,15,16
 766 1321 766 1321 757 1281 c 2,17,-1
 464 -99 l 2,18,19
 394 -430 394 -430 -96 -430 c 1,0,1
EndSplineSet
Validated: 1
EndChar

StartChar: L
Encoding: 76 76 41
Width: 1044
GlyphClass: 2
Flags: W
HStem: 0 178<525.003 984.396> 1390 34<286.157 330.578> 1510 20G<558.415 691.5>
VStem: 208 317<88.5 389.156> 447 314<1115.84 1435.11>
DStem2: 170.387 0 480.387 0 0.207912 0.978148<268.687 1350.07>
LayerCount: 2
Fore
SplineSet
294 0 m 1,0,1
 208 34 208 34 208 143 c 0,2,3
 208 179 208 179 218 224 c 2,4,-1
 442 1281 l 2,5,6
 447 1304 447 1304 447 1322 c 0,7,8
 447 1399 447 1399 362 1399 c 0,9,10
 324 1399 324 1399 287 1390 c 1,11,-1
 285 1424 l 1,12,-1
 622 1530 l 1,13,14
 761 1491 761 1491 761 1355 c 0,15,16
 761 1321 761 1321 752 1281 c 2,17,-1
 528 224 l 2,18,19
 525 209 525 209 525 199 c 0,20,21
 525 178 525 178 539 178 c 2,22,-1
 925 178 l 2,23,24
 1016 178 1016 178 1104 289 c 1,25,-1
 1125 289 l 1,26,-1
 1008 74 l 2,27,28
 967 0 967 0 863 0 c 2,29,-1
 294 0 l 1,0,1
EndSplineSet
Validated: 1
EndChar

StartChar: O
Encoding: 79 79 42
Width: 1786
GlyphClass: 2
Flags: W
HStem: -20 180<659.574 1056.11> 1348 182<1049.73 1448>
VStem: 210 307<341.552 746.286> 1589 307<756.593 1165.93>
LayerCount: 2
Fore
SplineSet
839 160 m 0,0,1
 1010 160 1010 160 1176 268 c 0,2,3
 1361 388 1361 388 1470 586 c 0,4,5
 1546 723 1546 723 1575 874 c 0,6,7
 1589 950 1589 950 1589 1014 c 0,8,9
 1589 1101 1589 1101 1563 1166 c 0,10,11
 1488 1348 1488 1348 1268 1348 c 0,12,13
 1093 1348 1093 1348 932 1240 c 0,14,15
 743 1114 743 1114 637 921 c 0,16,17
 564 788 564 788 532 634 c 16,18,19
 517 560 517 560 517 496 c 0,20,21
 517 410 517 410 544 342 c 0,22,23
 617 160 617 160 839 160 c 0,0,1
888 -20 m 128,-1,25
 544 -20 544 -20 351 191 c 0,26,27
 210 347 210 347 210 574 c 0,28,29
 210 659 210 659 230 755 c 0,30,31
 305 1109 305 1109 590 1319 c 0,32,33
 876 1530 876 1530 1217 1530 c 0,34,35
 1570 1530 1570 1530 1754 1319 c 0,36,37
 1896 1158 1896 1158 1896 933 c 0,38,39
 1896 849 1896 849 1876 755 c 0,40,41
 1802 406 1802 406 1515 191 c 0,42,24
 1232 -20 1232 -20 888 -20 c 128,-1,25
EndSplineSet
Validated: 1
EndChar

StartChar: Q
Encoding: 81 81 43
Width: 1786
GlyphClass: 2
Flags: W
HStem: -430 24<1370.91 1387> -20 180<651.423 805> 1348 182<1057.49 1447.54>
VStem: 210 307<340.868 744.82> 868 308<-289.338 -49.9084> 1589 307<754.08 1165.93>
LayerCount: 2
Fore
SplineSet
828 -20 m 1,0,1
 544 -20 544 -20 351 191 c 0,2,3
 210 345 210 345 210 572 c 0,4,5
 210 658 210 658 230 755 c 0,6,7
 305 1109 305 1109 590 1319 c 0,8,9
 876 1530 876 1530 1217 1530 c 0,10,11
 1568 1530 1568 1530 1754 1319 c 0,12,13
 1896 1158 1896 1158 1896 933 c 0,14,15
 1896 849 1896 849 1876 755 c 0,16,17
 1802 404 1802 404 1515 191 c 0,18,19
 1277 14 1277 14 1236 -31 c 128,-1,20
 1195 -76 1195 -76 1182 -137 c 0,21,22
 1176 -167 1176 -167 1176 -193 c 0,23,24
 1176 -355 1176 -355 1410 -406 c 1,25,-1
 1387 -430 l 1,26,27
 868 -407 868 -407 868 -172 c 0,28,29
 868 -127 868 -127 877 -82 c 0,30,31
 896 13 896 13 958 90 c 0,32,33
 1030 178 1030 178 1173 271 c 0,34,35
 1362 393 1362 393 1470 586 c 0,36,37
 1547 722 1547 722 1575 874 c 0,38,39
 1589 950 1589 950 1589 1014 c 0,40,41
 1589 1101 1589 1101 1563 1166 c 0,42,43
 1488 1348 1488 1348 1268 1348 c 0,44,45
 1094 1348 1094 1348 931 1237 c 0,46,47
 745 1111 745 1111 637 921 c 0,48,49
 569 802 569 802 532 634 c 0,50,51
 517 566 517 566 517 496 c 0,52,53
 517 410 517 410 544 342 c 0,54,55
 616 160 616 160 805 160 c 1,56,-1
 828 -20 l 1,0,1
EndSplineSet
Validated: 1
EndChar

StartChar: T
Encoding: 84 84 44
Width: 1608
GlyphClass: 2
Flags: W
HStem: -20 180<659.369 1058.9> 1330 180<379.321 651 1030.28 1791.5>
VStem: 210 307<340.868 747.304>
LayerCount: 2
Fore
SplineSet
887 -20 m 0,0,1
 544 -20 544 -20 351 191 c 0,2,3
 210 345 210 345 210 572 c 0,4,5
 210 658 210 658 230 755 c 0,6,7
 299 1081 299 1081 608 1302 c 0,8,9
 629 1317 629 1317 651 1330 c 1,10,-1
 439 1330 l 2,11,12
 347 1330 347 1330 261 1221 c 1,13,-1
 240 1221 l 1,14,-1
 357 1436 l 2,15,16
 397 1510 397 1510 502 1510 c 2,17,-1
 1732 1510 l 2,18,19
 1823 1510 1823 1510 1912 1621 c 1,20,-1
 1933 1621 l 1,21,-1
 1815 1406 l 2,22,23
 1773 1330 1773 1330 1670 1330 c 2,24,-1
 1268 1330 l 2,25,26
 1079 1330 1079 1330 926 1232 c 0,27,28
 750 1119 750 1119 637 921 c 0,29,30
 565 796 565 796 532 634 c 0,31,32
 517 560 517 560 517 496 c 0,33,34
 517 410 517 410 544 342 c 0,35,36
 617 160 617 160 839 160 c 0,37,38
 1056 160 1056 160 1238 319 c 1,39,-1
 1543 213 l 1,40,41
 1234 -20 1234 -20 887 -20 c 0,0,1
EndSplineSet
Validated: 1
EndChar

StartChar: V
Encoding: 86 86 45
Width: 1866
GlyphClass: 2
Flags: W
HStem: -20 21G<904 1019.85> 1388 34<283.735 329.256> 1480 30<1350 1391.59> 1510 20G<572.074 692.5>
VStem: 1682 344<922.797 1299.06>
LayerCount: 2
Fore
SplineSet
954 -20 m 1,0,1
 854 -20 854 -20 793 84 c 0,2,3
 495 587 495 587 453 1328 c 0,4,5
 449 1398 449 1398 350 1398 c 0,6,7
 315 1398 315 1398 285 1388 c 1,8,-1
 282 1422 l 1,9,-1
 638 1530 l 1,10,11
 747 1505 747 1505 754 1363 c 0,12,13
 789 687 789 687 1168 45 c 1,14,-1
 954 -20 l 1,0,1
1350 1510 m 1,15,16
 2026 1510 2026 1510 2026 1135 c 0,17,18
 2026 1083 2026 1083 2013 1023 c 0,19,20
 1911 564 1911 564 1201 122 c 1,21,-1
 1188 146 l 1,22,23
 1603 703 1603 703 1668 1011 c 0,24,25
 1682 1076 1682 1076 1682 1133 c 0,26,27
 1682 1413 1682 1413 1344 1480 c 1,28,-1
 1350 1510 l 1,15,16
EndSplineSet
Validated: 1
EndChar

StartChar: Y
Encoding: 89 89 46
Width: 1866
GlyphClass: 2
Flags: W
HStem: -430 21G<336 1103.5> 1388 34<283.735 329.123> 1480 30<1350 1391.53> 1510 20G<571.259 694.5>
VStem: 448 304<901.82 1391.11> 1682 343<928.379 1297.38>
LayerCount: 2
Fore
SplineSet
637 1530 m 1,0,1
 752 1503 752 1503 752 1300 c 0,2,3
 752 769 752 769 1044 253 c 1,4,-1
 830 188 l 1,5,6
 733 188 733 188 669 292 c 0,7,8
 448 649 448 649 448 1334 c 0,9,10
 448 1398 448 1398 350 1398 c 0,11,12
 315 1398 315 1398 285 1388 c 1,13,-1
 282 1422 l 1,14,-1
 637 1530 l 1,0,1
1350 1510 m 1,15,16
 2025 1510 2025 1510 2025 1132 c 0,17,18
 2025 1081 2025 1081 2013 1023 c 0,19,20
 1851 264 1851 264 356 -430 c 1,21,-1
 336 -411 l 1,22,23
 1558 492 1558 492 1668 1011 c 0,24,25
 1682 1076 1682 1076 1682 1132 c 0,26,27
 1682 1410 1682 1410 1344 1480 c 1,28,-1
 1350 1510 l 1,15,16
EndSplineSet
Validated: 1
EndChar

StartChar: bracketleft
Encoding: 91 91 47
Width: 876
GlyphClass: 2
Flags: W
HStem: -250 174<474 770.641> 1586 174<827 1158.58>
DStem2: 117 -250 437.015 -250 0.207912 0.978148<244.422 1943.5>
LayerCount: 2
Fore
SplineSet
117 -250 m 1,0,-1
 532 1702 l 1,1,-1
 715 1760 l 1,2,-1
 1209 1760 l 1,3,-1
 1216 1696 l 1,4,5
 1161 1586 1161 1586 991 1586 c 2,6,-1
 827 1586 l 1,7,-1
 474 -76 l 1,8,-1
 819 -76 l 1,9,-1
 826 -140 l 1,10,11
 773 -250 773 -250 609 -250 c 2,12,-1
 117 -250 l 1,0,-1
EndSplineSet
Validated: 1
EndChar

StartChar: backslash
Encoding: 92 92 48
Width: 836
GlyphClass: 2
Flags: W
VStem: 338 481
DStem2: 574 1690 343 1412 0.149677 -0.988735<185.847 1663.26>
LayerCount: 2
Fore
SplineSet
697 -180 m 1,0,1
 584 -180 l 1,2,-1
 343 1412 l 2,3,4
 338 1445 338 1445 338 1467 c 0,5,6
 338 1488 338 1488 345 1527 c 0,7,8
 367 1652 367 1652 460 1690 c 1,9,-1
 574 1690 l 1,10,-1
 815 98 l 2,11,12
 819 72 819 72 819 44 c 0,13,14
 819 19 819 19 813 -15 c 0,15,16
 791 -131 791 -131 697 -180 c 1,0,1
EndSplineSet
Validated: 1
EndChar

StartChar: bracketright
Encoding: 93 93 49
Width: 875
GlyphClass: 2
Flags: W
HStem: -250 174<37.5625 370> 1586 174<426.359 723>
DStem2: 333.015 -250 652.672 -250 0.207912 0.978148<177.887 1876.96>
LayerCount: 2
Fore
SplineSet
1080 1760 m 1,0,-1
 665 -192 l 1,1,-1
 482 -250 l 1,2,-1
 -12 -250 l 1,3,-1
 -20 -186 l 1,4,5
 35 -76 35 -76 206 -76 c 2,6,-1
 370 -76 l 1,7,-1
 723 1586 l 1,8,-1
 378 1586 l 1,9,-1
 371 1650 l 1,10,11
 424 1760 424 1760 588 1760 c 2,12,-1
 1080 1760 l 1,0,-1
EndSplineSet
Validated: 1
EndChar

StartChar: asciicircum
Encoding: 94 94 50
Width: 888
GlyphClass: 2
Flags: W
HStem: 1159 432
LayerCount: 2
Fore
SplineSet
907 1591 m 1,0,1
 947 1380 947 1380 1132 1242 c 1,2,-1
 868 1159 l 1,3,4
 773 1253 773 1253 762 1418 c 1,5,6
 682 1251 682 1251 512 1159 c 1,7,-1
 284 1242 l 1,8,9
 504 1326 504 1326 593 1493 c 1,10,-1
 907 1591 l 1,0,1
EndSplineSet
Validated: 1
EndChar

StartChar: underscore
Encoding: 95 95 51
Width: 1219
GlyphClass: 2
Flags: W
HStem: -245 175<141.391 1013.94>
LayerCount: 2
Fore
SplineSet
1063 -70 m 1,0,-1
 1070 -136 l 1,1,2
 1015 -245 1015 -245 832 -245 c 2,3,-1
 89 -245 l 1,4,-1
 82 -180 l 1,5,6
 137 -70 137 -70 321 -70 c 2,7,-1
 1063 -70 l 1,0,-1
EndSplineSet
Validated: 1
EndChar

StartChar: grave
Encoding: 96 96 52
Width: 478
GlyphClass: 2
Flags: W
HStem: 1160 400
VStem: 557 158<1205.46 1272.86>
LayerCount: 2
Fore
SplineSet
581 1560 m 1,0,1
 690 1416 690 1416 715 1210 c 1,2,-1
 557 1160 l 1,3,4
 503 1362 503 1362 335 1482 c 1,5,-1
 581 1560 l 1,0,1
EndSplineSet
Validated: 1
EndChar

StartChar: a
Encoding: 97 97 53
Width: 1280
GlyphClass: 2
Flags: W
HStem: -20 21G<1065.5 1187.26> 0 30<609.9 640> 983 34<617.157 662.766> 1100 20G<886.757 988>
VStem: 127 317<124.501 386.688>
LayerCount: 2
Fore
SplineSet
1122 -20 m 1,0,1
 1009 6 1009 6 1003 104 c 0,2,3
 978 578 978 578 778 946 c 0,4,5
 753 992 753 992 693 992 c 0,6,7
 655 992 655 992 618 983 c 1,8,-1
 616 1017 l 1,9,-1
 952 1120 l 1,10,11
 1024 1106 1024 1106 1067 1024 c 0,12,13
 1262 641 1262 641 1308 37 c 1,14,-1
 1122 -20 l 1,0,1
640 0 m 1,15,16
 127 0 127 0 127 241 c 0,17,18
 127 269 127 269 134 300 c 0,19,20
 189 553 189 553 763 824 c 1,21,-1
 776 800 l 1,22,23
 500 543 500 543 450 304 c 0,24,25
 444 274 444 274 444 247 c 0,26,27
 444 94 444 94 646 30 c 1,28,-1
 640 0 l 1,15,16
EndSplineSet
Validated: 1
EndChar

StartChar: b
Encoding: 98 98 54
Width: 1388
GlyphClass: 2
Flags: W
HStem: -20 149<564.066 808.919> 971 149<853.156 1102.57> 1394 34<287.157 331.819> 1510 20G<548.078 681.5>
VStem: 260 282<160.713 542.875> 448 303<1115.88 1437.11> 1156 293<525.413 869.564>
DStem2: 165.432 -20 465.432 -20 0.207912 0.978148<385.86 1374.78>
LayerCount: 2
Fore
SplineSet
687 -20 m 0,0,1
 422 -20 422 -20 314 145 c 0,2,3
 260 227 260 227 260 352 c 0,4,5
 260 428 260 428 280 519 c 2,6,-1
 443 1285 l 2,7,8
 448 1308 448 1308 448 1326 c 0,9,10
 448 1403 448 1403 363 1403 c 0,11,12
 325 1403 325 1403 288 1394 c 1,13,-1
 286 1428 l 1,14,-1
 612 1530 l 1,15,16
 751 1491 751 1491 751 1355 c 0,17,18
 751 1321 751 1321 742 1281 c 2,19,-1
 580 519 l 2,20,21
 542 340 542 340 542 264 c 0,22,23
 542 129 542 129 656 129 c 0,24,25
 750 129 750 129 865 208 c 0,26,27
 994 298 994 298 1070 435 c 0,28,29
 1124 532 1124 532 1144 636 c 0,30,31
 1156 700 1156 700 1156 753.5 c 128,-1,32
 1156 807 1156 807 1144 850 c 0,33,34
 1110 971 1110 971 988 971 c 0,35,36
 932 971 932 971 877 953 c 1,37,-1
 759 1102 l 1,38,39
 842 1120 842 1120 932 1120 c 0,40,41
 1200 1120 1200 1120 1340 964 c 0,42,43
 1449 843 1449 843 1449 675 c 0,44,45
 1449 615 1449 615 1435 550 c 0,46,47
 1381 297 1381 297 1164 136 c 0,48,49
 954 -20 954 -20 687 -20 c 0,0,1
EndSplineSet
Validated: 1
EndChar

StartChar: c
Encoding: 99 99 55
Width: 1232
GlyphClass: 2
Flags: W
HStem: -20 149<519.96 810.845> 971 149<816.354 1098.31>
VStem: 173 293<228.449 573.517>
LayerCount: 2
Fore
SplineSet
690 -20 m 0,0,1
 424 -20 424 -20 282 136 c 0,2,3
 173 256 173 256 173 424 c 0,4,5
 173 484 173 484 187 550 c 0,6,7
 241 803 241 803 458 964 c 0,8,9
 668 1120 668 1120 932 1120 c 0,10,11
 1160 1120 1160 1120 1302 998 c 1,12,-1
 1157 736 l 1,13,14
 1151 971 1151 971 985 971 c 0,15,16
 870 971 870 971 757 892 c 0,17,18
 625 800 625 800 551 665 c 0,19,20
 497 567 497 567 478 464 c 0,21,22
 466 400 466 400 466 346.5 c 128,-1,23
 466 293 466 293 478 250 c 0,24,25
 512 129 512 129 635 129 c 0,26,27
 796 129 796 129 920 257 c 1,28,-1
 1196 161 l 1,29,30
 955 -20 955 -20 690 -20 c 0,0,1
EndSplineSet
Validated: 1
EndChar

StartChar: e
Encoding: 101 101 56
Width: 1232
GlyphClass: 2
Flags: W
HStem: -20 149<519.96 810.845> 435 158<516 1009.79> 971 149<816.354 1098.31>
VStem: 173 293<228.449 435>
LayerCount: 2
Fore
SplineSet
690 -20 m 0,0,1
 424 -20 424 -20 282 136 c 0,2,3
 173 256 173 256 173 424 c 0,4,5
 173 484 173 484 187 550 c 0,6,7
 241 803 241 803 458 964 c 0,8,9
 668 1120 668 1120 932 1120 c 0,10,11
 1160 1120 1160 1120 1302 998 c 1,12,-1
 1157 736 l 1,13,14
 1151 971 1151 971 985 971 c 0,15,16
 870 971 870 971 757 892 c 0,17,18
 625 800 625 800 551 665 c 0,19,20
 531 629 531 629 516 593 c 1,21,-1
 939 593 l 2,22,23
 1030 593 1030 593 1119 704 c 1,24,-1
 1140 704 l 1,25,-1
 1033 509 l 2,26,27
 992 435 992 435 888 435 c 2,28,-1
 473 435 l 1,29,30
 466 388 466 388 466 346 c 0,31,32
 466 292 466 292 478 250 c 0,33,34
 512 129 512 129 635 129 c 0,35,36
 796 129 796 129 920 257 c 1,37,-1
 1196 161 l 1,38,39
 955 -20 955 -20 690 -20 c 0,0,1
EndSplineSet
Validated: 1
EndChar

StartChar: h
Encoding: 104 104 57
Width: 1388
GlyphClass: 2
Flags: W
HStem: -20 149<690 802.574> 971 149<809.924 1102.09> 1397 34<287.735 331.759> 1510 20G<538.162 671.5>
VStem: 449 292<1116.97 1399.4> 1156 293<526.394 868.168>
DStem2: 166.073 -20 455.254 -20 0.207912 0.978148<181.35 914.033 1184.89 1377.79>
LayerCount: 2
Fore
SplineSet
349 -20 m 1,0,1
 210 19 210 19 210 155 c 0,2,3
 210 189 210 189 219 229 c 2,4,-1
 444 1288 l 2,5,6
 449 1311 449 1311 449 1329 c 0,7,8
 449 1406 449 1406 364 1406 c 0,9,10
 326 1406 326 1406 289 1397 c 1,11,-1
 286 1431 l 1,12,-1
 602 1530 l 1,13,14
 741 1491 741 1491 741 1355 c 0,15,16
 741 1321 741 1321 732 1281 c 2,17,-1
 690 1080 l 1,18,19
 801 1120 801 1120 932 1120 c 0,20,21
 1200 1120 1200 1120 1340 964 c 0,22,23
 1449 843 1449 843 1449 675 c 0,24,25
 1449 615 1449 615 1435 550 c 0,26,27
 1381 296 1381 296 1164 136 c 0,28,29
 953 -20 953 -20 690 -20 c 1,30,-1
 671 129 l 1,31,32
 782 151 782 151 865 208 c 0,33,34
 994 298 994 298 1070 435 c 0,35,36
 1124 533 1124 533 1144 636 c 0,37,38
 1156 700 1156 700 1156 753.5 c 128,-1,39
 1156 807 1156 807 1144 850 c 0,40,41
 1108 971 1108 971 988 971 c 0,42,43
 860 971 860 971 757 892 c 24,44,45
 628 793 628 793 583 581 c 2,46,-1
 463 16 l 1,47,-1
 349 -20 l 1,0,1
EndSplineSet
Validated: 1
EndChar

StartChar: i
Encoding: 105 105 58
Width: 640
GlyphClass: 2
Flags: W
HStem: -20 21G<284.5 417.838> 79 34<624.241 668.265> 987 34<205.735 249.759> 1100 20G<456.162 589.5> 1170 370<499.356 676.644>
VStem: 215 292<111.115 287.063> 367 292<707.18 989.397>
DStem2: 171.073 -20 460.561 -20 0.207912 0.978148<267.002 958.664>
LayerCount: 2
Fore
SplineSet
627 1540 m 0,0,1
 702 1540 702 1540 744 1486 c 0,2,3
 774 1447 774 1447 774 1396 c 0,4,5
 774 1376 774 1376 770 1355 c 0,6,7
 754 1278 754 1278 689.5 1224 c 128,-1,8
 625 1170 625 1170 549 1170 c 0,9,10
 474 1170 474 1170 432 1224 c 0,11,12
 402 1263 402 1263 402 1314 c 0,13,14
 402 1334 402 1334 406 1355 c 0,15,16
 422 1432 422 1432 486.5 1486 c 128,-1,17
 551 1540 551 1540 627 1540 c 0,0,1
354 -20 m 1,18,19
 215 19 215 19 215 155 c 0,20,21
 215 189 215 189 224 229 c 2,22,-1
 362 878 l 2,23,24
 367 901 367 901 367 919 c 0,25,26
 367 996 367 996 282 996 c 0,27,28
 244 996 244 996 207 987 c 1,29,-1
 204 1021 l 1,30,-1
 520 1120 l 1,31,32
 659 1081 659 1081 659 945 c 0,33,34
 659 911 659 911 650 871 c 2,35,-1
 512 222 l 2,36,37
 507 199 507 199 507 181 c 0,38,39
 507 104 507 104 592 104 c 0,40,41
 630 104 630 104 667 113 c 1,42,-1
 670 79 l 1,43,-1
 354 -20 l 1,18,19
EndSplineSet
Validated: 1
EndChar

StartChar: j
Encoding: 106 106 59
Width: 666
GlyphClass: 2
Flags: W
HStem: -430 21G<-51 181> 987 34<231.735 275.759> 1100 20G<482.162 615.5> 1170 370<525.356 702.644>
VStem: 393 292<705.945 989.397>
DStem2: 109.234 -430 399.871 -430 0.207912 0.978148<332.727 1377.97>
LayerCount: 2
Fore
SplineSet
653 1540 m 0,0,1
 728 1540 728 1540 770 1486 c 0,2,3
 800 1447 800 1447 800 1396 c 0,4,5
 800 1376 800 1376 796 1355 c 0,6,7
 780 1278 780 1278 715.5 1224 c 128,-1,8
 651 1170 651 1170 575 1170 c 0,9,10
 500 1170 500 1170 458 1224 c 0,11,12
 428 1263 428 1263 428 1314 c 0,13,14
 428 1334 428 1334 432 1355 c 0,15,16
 448 1432 448 1432 512.5 1486 c 128,-1,17
 577 1540 577 1540 653 1540 c 0,0,1
-55 -430 m 1,18,-1
 -51 -410 l 1,19,20
 148 -248 148 -248 217 77 c 2,21,-1
 388 878 l 2,22,23
 393 901 393 901 393 919 c 0,24,25
 393 996 393 996 308 996 c 0,26,27
 270 996 270 996 233 987 c 1,28,-1
 230 1021 l 1,29,-1
 546 1120 l 1,30,31
 685 1081 685 1081 685 945 c 0,32,33
 685 911 685 911 676 871 c 2,34,-1
 507 74 l 2,35,36
 417 -348 417 -348 -55 -430 c 1,18,-1
EndSplineSet
Validated: 1
EndChar

StartChar: l
Encoding: 108 108 60
Width: 640
GlyphClass: 2
Flags: W
HStem: -20 21G<284.5 417.838> 79 34<624.241 668.265> 1397 34<292.735 336.759> 1510 20G<543.162 676.5>
VStem: 215 292<111.115 288.008> 454 292<1119.03 1399.4>
DStem2: 171.073 -20 460.561 -20 0.207912 0.978148<267.002 1377.79>
LayerCount: 2
Fore
SplineSet
354 -20 m 1,0,1
 215 19 215 19 215 155 c 0,2,3
 215 189 215 189 224 229 c 2,4,-1
 449 1288 l 2,5,6
 454 1311 454 1311 454 1329 c 0,7,8
 454 1406 454 1406 369 1406 c 0,9,10
 331 1406 331 1406 294 1397 c 1,11,-1
 291 1431 l 1,12,-1
 607 1530 l 1,13,14
 746 1491 746 1491 746 1355 c 0,15,16
 746 1321 746 1321 737 1281 c 2,17,-1
 512 222 l 2,18,19
 507 199 507 199 507 181 c 0,20,21
 507 104 507 104 592 104 c 0,22,23
 630 104 630 104 667 113 c 1,24,-1
 670 79 l 1,25,-1
 354 -20 l 1,0,1
EndSplineSet
Validated: 1
EndChar

StartChar: m
Encoding: 109 109 61
Width: 2136
GlyphClass: 2
Flags: W
HStem: -20 149<528.788 671 1438 1550.57> 971 149<812.862 1057 1560.83 1850.57>
VStem: 173 293<228.449 573.517> 1904 293<526.394 868.168>
DStem2: 913.254 -20 1213.25 -20 0.207912 0.978148<178.286 869.824>
LayerCount: 2
Fore
SplineSet
1100 -20 m 1,0,1
 957 17 957 17 957 152 c 0,2,3
 957 183 957 183 965 219 c 2,4,-1
 1041 581 l 2,5,6
 1080 767 1080 767 1080 836 c 0,7,8
 1080 971 1080 971 965 971 c 0,9,10
 871 971 871 971 757 892 c 0,11,12
 625 800 625 800 551 665 c 0,13,14
 497 567 497 567 478 464 c 0,15,16
 466 400 466 400 466 346.5 c 128,-1,17
 466 293 466 293 478 250 c 0,18,19
 512 129 512 129 671 129 c 1,20,-1
 690 -20 l 1,21,22
 424 -20 424 -20 282 136 c 0,23,24
 173 256 173 256 173 424 c 0,25,26
 173 484 173 484 187 550 c 0,27,28
 241 803 241 803 458 964 c 0,29,30
 668 1120 668 1120 935 1120 c 0,31,32
 1167 1120 1167 1120 1279 993 c 1,33,34
 1446 1120 1446 1120 1680 1120 c 0,35,36
 1948 1120 1948 1120 2088 964 c 0,37,38
 2197 843 2197 843 2197 675 c 0,39,40
 2197 615 2197 615 2183 550 c 0,41,42
 2129 296 2129 296 1912 136 c 0,43,44
 1701 -20 1701 -20 1438 -20 c 1,45,-1
 1419 129 l 1,46,47
 1524 150 1524 150 1613 208 c 0,48,49
 1737 288 1737 288 1818 435 c 0,50,51
 1872 534 1872 534 1892 636 c 0,52,53
 1904 700 1904 700 1904 753.5 c 128,-1,54
 1904 807 1904 807 1892 850 c 0,55,56
 1858 971 1858 971 1736 971 c 0,57,58
 1606 971 1606 971 1506 889 c 0,59,60
 1386 792 1386 792 1341 581 c 2,61,-1
 1221 16 l 1,62,-1
 1100 -20 l 1,0,1
EndSplineSet
Validated: 1
EndChar

StartChar: n
Encoding: 110 110 62
Width: 1432
GlyphClass: 2
Flags: W
HStem: -20 21G<234 335.586 880 1061.88> 989 34<203.735 248.851> 1012 34<1156.74 1201.11> 1100 20G<453.639 568.5 1328.68 1431>
VStem: 200 166<9 76.4398> 1278 191<771.094 1059.56>
DStem2: 169.322 -20 359.848 -20 0.207912 0.978148<121.647 752.184> 1067.75 -20 1257.72 -20 0.207912 0.978148<232.071 1022.47>
LayerCount: 2
Fore
SplineSet
268 -20 m 1,0,1
 200 14 200 14 200 97 c 0,2,3
 200 124 200 124 206 152 c 2,4,-1
 367 910 l 2,5,6
 370 924 370 924 370 935 c 0,7,8
 370 998 370 998 280 998 c 0,9,10
 242 998 242 998 205 989 c 1,11,-1
 202 1023 l 1,12,-1
 519 1120 l 1,13,14
 618 1105 618 1105 660 985 c 0,15,16
 864 410 864 410 1116 207 c 1,17,-1
 1276 960 l 2,18,19
 1278 969 1278 969 1278 981 c 0,20,21
 1278 1021 1278 1021 1233 1021 c 0,22,23
 1195 1021 1195 1021 1158 1012 c 1,24,-1
 1155 1046 l 1,25,-1
 1393 1120 l 1,26,27
 1469 1082 1469 1082 1469 998 c 0,28,29
 1469 974 1469 974 1464 950 c 2,30,-1
 1276 66 l 1,31,-1
 997 -20 l 1,32,33
 763 144 763 144 508 677 c 1,34,-1
 366 9 l 1,35,-1
 268 -20 l 1,0,1
EndSplineSet
Validated: 1
EndChar

StartChar: o
Encoding: 111 111 63
Width: 1388
GlyphClass: 2
Flags: W
HStem: -20 149<520.36 805.193> 971 149<816.636 1102.09>
VStem: 173 293<231.832 573.517> 1156 293<525.369 869.564>
LayerCount: 2
Fore
SplineSet
634 129 m 0,0,1
 751 129 751 129 865 208 c 0,2,3
 994 298 994 298 1070 435 c 0,4,5
 1124 532 1124 532 1144 636 c 0,6,7
 1156 700 1156 700 1156 753.5 c 128,-1,8
 1156 807 1156 807 1144 850 c 0,9,10
 1108 971 1108 971 988 971 c 0,11,12
 871 971 871 971 757 892 c 0,13,14
 627 802 627 802 551 665 c 0,15,16
 497 568 497 568 478 464 c 0,17,18
 466 400 466 400 466 346.5 c 128,-1,19
 466 293 466 293 478 250 c 0,20,21
 514 129 514 129 634 129 c 0,0,1
690 -20 m 0,22,23
 424 -20 424 -20 282 136 c 0,24,25
 173 257 173 257 173 425 c 0,26,27
 173 485 173 485 187 550 c 0,28,29
 241 803 241 803 458 964 c 0,30,31
 668 1120 668 1120 932 1120 c 0,32,33
 1200 1120 1200 1120 1340 964 c 0,34,35
 1449 843 1449 843 1449 675 c 0,36,37
 1449 615 1449 615 1435 550 c 0,38,39
 1381 296 1381 296 1164 136 c 0,40,41
 953 -20 953 -20 690 -20 c 0,22,23
EndSplineSet
Validated: 1
EndChar

StartChar: p
Encoding: 112 112 64
Width: 1388
GlyphClass: 2
Flags: W
HStem: -430 21G<192.5 325.333> -20 149<690 802.574> 971 149<811.249 1102.09> 987 34<200.735 244.759>
VStem: 1156 293<526.394 868.168>
DStem2: 78.976 -430 368.105 -430 0.207912 0.978148<181.37 1333.18>
LayerCount: 2
Fore
SplineSet
262 -430 m 1,0,1
 123 -391 123 -391 123 -255 c 0,2,3
 123 -221 123 -221 132 -181 c 2,4,-1
 357 878 l 2,5,6
 362 901 362 901 362 919 c 0,7,8
 362 996 362 996 277 996 c 0,9,10
 239 996 239 996 202 987 c 1,11,-1
 199 1021 l 1,12,-1
 515 1120 l 1,13,14
 589 1099 589 1099 623 1051 c 1,15,16
 759 1120 759 1120 932 1120 c 0,17,18
 1200 1120 1200 1120 1340 964 c 0,19,20
 1449 843 1449 843 1449 675 c 0,21,22
 1449 615 1449 615 1435 550 c 0,23,24
 1381 296 1381 296 1164 136 c 0,25,26
 953 -20 953 -20 690 -20 c 1,27,-1
 671 129 l 1,28,29
 780 150 780 150 865 208 c 0,30,31
 994 298 994 298 1070 435 c 0,32,33
 1124 533 1124 533 1144 636 c 0,34,35
 1156 700 1156 700 1156 753.5 c 128,-1,36
 1156 807 1156 807 1144 850 c 0,37,38
 1108 971 1108 971 988 971 c 0,39,40
 860 971 860 971 757 892 c 24,41,42
 628 793 628 793 583 581 c 2,43,-1
 376 -394 l 1,44,-1
 262 -430 l 1,0,1
EndSplineSet
Validated: 1
EndChar

StartChar: v
Encoding: 118 118 65
Width: 1443
GlyphClass: 2
Flags: W
HStem: -20 21G<685 799.158> 980 34<197.157 241.983> 1070 30<973 1007.82> 1100 20G<471.849 579.5>
VStem: 360 268<647.795 981.685> 1206 333<648.071 944.709>
LayerCount: 2
Fore
SplineSet
736 -20 m 1,0,1
 634 -20 634 -20 596 44 c 0,2,3
 366 436 366 436 360 906 c 0,4,5
 359 989 359 989 273 989 c 0,6,7
 235 989 235 989 198 980 c 1,8,-1
 196 1014 l 1,9,-1
 536 1120 l 1,10,11
 623 1089 623 1089 628 975 c 0,12,13
 648 488 648 488 916 37 c 1,14,-1
 736 -20 l 1,0,1
973 1100 m 1,15,16
 1539 1100 1539 1100 1539 814 c 0,17,18
 1539 777 1539 777 1529 735 c 0,19,20
 1467 463 1467 463 931 112 c 1,21,-1
 918 136 l 1,22,23
 1156 508 1156 508 1194 689 c 0,24,25
 1206 743 1206 743 1206 790 c 0,26,27
 1206 1005 1206 1005 966 1070 c 1,28,-1
 973 1100 l 1,15,16
EndSplineSet
Validated: 1
EndChar

StartChar: w
Encoding: 119 119 66
Width: 2078
GlyphClass: 2
Flags: W
HStem: -20 21G<685 799.158 1320 1434.16> 980 34<197.157 241.983 832.157 876.983> 1070 30<1608 1642.82> 1100 20G<471.849 579.5 1106.85 1214.5>
VStem: 360 268<647.795 981.685> 995 268<647.795 981.685> 1841 333<648.071 944.709>
LayerCount: 2
Fore
SplineSet
1371 -20 m 1,0,1
 1269 -20 1269 -20 1231 44 c 0,2,3
 1001 436 1001 436 995 906 c 0,4,5
 994 989 994 989 908 989 c 0,6,7
 870 989 870 989 833 980 c 1,8,-1
 831 1014 l 1,9,-1
 1171 1120 l 1,10,11
 1258 1089 1258 1089 1263 975 c 0,12,13
 1283 488 1283 488 1551 37 c 1,14,-1
 1371 -20 l 1,0,1
1608 1100 m 1,15,16
 2174 1100 2174 1100 2174 814 c 0,17,18
 2174 777 2174 777 2164 735 c 0,19,20
 2102 463 2102 463 1566 112 c 1,21,-1
 1553 136 l 1,22,23
 1791 508 1791 508 1829 689 c 0,24,25
 1841 743 1841 743 1841 790 c 0,26,27
 1841 1005 1841 1005 1601 1070 c 1,28,-1
 1608 1100 l 1,15,16
736 -20 m 1,29,30
 634 -20 634 -20 596 44 c 0,31,32
 366 436 366 436 360 906 c 0,33,34
 359 989 359 989 273 989 c 0,35,36
 235 989 235 989 198 980 c 1,37,-1
 196 1014 l 1,38,-1
 536 1120 l 1,39,40
 623 1089 623 1089 628 975 c 0,41,42
 648 488 648 488 916 37 c 1,43,-1
 736 -20 l 1,29,30
EndSplineSet
Validated: 1
EndChar

StartChar: braceleft
Encoding: 123 123 67
Width: 856
GlyphClass: 2
Flags: W
HStem: -151 34<708.241 752.265> 734 50<295.158 426.812>
VStem: 299 292<-118.885 57.0391> 444 287<434.148 728.057>
DStem2: 255.073 -250 544.561 -250 0.207912 0.978148<267.002 925.908 1124.79 1975.5>
LayerCount: 2
Fore
SplineSet
438 -250 m 1,0,1
 299 -211 299 -211 299 -75 c 0,2,3
 299 -41 299 -41 308 -1 c 2,4,-1
 439 616 l 2,5,6
 444 639 444 639 444 657 c 0,7,8
 444 734 444 734 359 734 c 0,9,10
 321 734 321 734 284 725 c 1,11,-1
 281 759 l 1,12,-1
 299 793 l 1,13,14
 332 784 332 784 369 784 c 0,15,16
 474 784 474 784 499 902 c 2,17,-1
 628 1511 l 2,18,19
 671 1711 671 1711 864 1760 c 1,20,-1
 1138 1661 l 1,21,-1
 1121 1627 l 1,22,23
 1088 1636 1088 1636 1050 1636 c 0,24,25
 945 1636 945 1636 920 1518 c 2,26,-1
 790 909 l 2,27,28
 768 804 768 804 653 762 c 1,29,30
 731 718 731 718 731 644 c 0,31,32
 731 627 731 627 727 609 c 2,33,-1
 596 -8 l 2,34,35
 591 -31 591 -31 591 -49 c 0,36,37
 591 -126 591 -126 676 -126 c 0,38,39
 714 -126 714 -126 751 -117 c 1,40,-1
 754 -151 l 1,41,-1
 438 -250 l 1,0,1
EndSplineSet
Validated: 1
EndChar

StartChar: bar
Encoding: 124 124 68
Width: 720
GlyphClass: 2
Flags: W
VStem: 222 596
LayerCount: 2
Fore
SplineSet
345 -180 m 1,0,1
 222 -153 222 -153 222 -23 c 0,2,3
 222 12 222 12 231 54 c 2,4,-1
 571 1649 l 1,5,-1
 696 1690 l 1,6,7
 818 1663 818 1663 818 1534 c 0,8,9
 818 1498 818 1498 809 1455 c 2,10,-1
 470 -140 l 1,11,-1
 345 -180 l 1,0,1
EndSplineSet
Validated: 1
EndChar

StartChar: braceright
Encoding: 125 125 69
Width: 856
GlyphClass: 2
Flags: W
HStem: 734 50<753.707 883.628> 1627 34<425.735 469.759>
VStem: 448 288<790.214 1086.3> 587 292<1347.98 1629.4>
DStem2: 204.561 -250 495.073 -250 0.207912 0.978148<140.958 998.124 1197.77 1848.43>
LayerCount: 2
Fore
SplineSet
312 -250 m 1,0,1
 38 -151 l 1,2,-1
 55 -117 l 1,3,4
 88 -126 88 -126 126 -126 c 0,5,6
 231 -126 231 -126 256 -8 c 2,7,-1
 387 609 l 2,8,9
 408 708 408 708 527 762 c 1,10,11
 448 796 448 796 448 872 c 0,12,13
 448 889 448 889 452 909 c 2,14,-1
 582 1518 l 2,15,16
 587 1541 587 1541 587 1559 c 0,17,18
 587 1636 587 1636 502 1636 c 0,19,20
 464 1636 464 1636 427 1627 c 1,21,-1
 424 1661 l 1,22,-1
 740 1760 l 1,23,24
 879 1721 879 1721 879 1585 c 0,25,26
 879 1551 879 1551 870 1511 c 2,27,-1
 741 902 l 2,28,29
 736 879 736 879 736 861 c 0,30,31
 736 784 736 784 821 784 c 0,32,33
 858 784 858 784 895 793 c 1,34,-1
 897 759 l 1,35,-1
 880 725 l 1,36,37
 847 734 847 734 809 734 c 0,38,39
 704 734 704 734 679 616 c 2,40,-1
 548 -1 l 2,41,42
 505 -201 505 -201 312 -250 c 1,0,1
EndSplineSet
Validated: 1
EndChar

StartChar: asciitilde
Encoding: 126 126 70
Width: 1307
GlyphClass: 2
Flags: W
HStem: 497 237<856.275 1126.58> 743 237<492.129 761.873>
LayerCount: 2
Fore
SplineSet
1389 952 m 1,0,-1
 1178 565 l 1,1,2
 1068 497 1068 497 961 497 c 0,3,4
 835 497 835 497 775 668 c 2,5,-1
 769 684 l 2,6,7
 749 743 749 743 672 743 c 256,8,9
 462 743 462 743 304 525 c 1,10,-1
 232 525 l 1,11,-1
 444 913 l 1,12,13
 545 980 545 980 656 980 c 0,14,15
 784 980 784 980 846 802 c 2,16,-1
 852 786 l 2,17,18
 870 734 870 734 947 734 c 256,19,20
 1156 734 1156 734 1317 952 c 1,21,-1
 1389 952 l 1,0,-1
EndSplineSet
Validated: 1
EndChar

StartChar: exclamdown
Encoding: 161 161 72
Width: 774
GlyphClass: 2
Flags: W
HStem: 750 370<505.766 684.234>
VStem: 124 342<-410 -113.248> 363 293<363 656>
LayerCount: 2
Fore
SplineSet
634 1120 m 128,-1,1
 710 1120 710 1120 752 1066 c 0,2,3
 781 1028 781 1028 781 976 c 0,4,5
 781 956 781 956 777 935 c 0,6,7
 761 858 761 858 696.5 804 c 128,-1,8
 632 750 632 750 556 750 c 128,-1,9
 480 750 480 750 438 804 c 0,10,11
 409 842 409 842 409 894 c 0,12,13
 409 914 409 914 413 935 c 0,14,15
 429 1012 429 1012 493.5 1066 c 128,-1,0
 558 1120 558 1120 634 1120 c 128,-1,1
466 -410 m 1,16,-1
 124 -410 l 17,17,18
 149 -193 149 -193 192 7 c 0,19,20
 263 342 263 342 363 656 c 1,21,-1
 656 656 l 1,22,23
 597 456 597 456 555 260 c 0,24,25
 478 -103 478 -103 466 -410 c 1,16,-1
EndSplineSet
Validated: 1
EndChar

StartChar: cent
Encoding: 162 162 73
Width: 1232
GlyphClass: 2
Flags: W
HStem: -17 146<525.042 613> 971 146<1004 1089.38>
VStem: 173 290<230.047 565.723> 600 130<-172 -106.223> 887 131<1204.66 1272>
DStem2: 577.218 -189 727.228 -189 0.207912 0.978148<97.1417 175.681 394.955 1141.82 1366.19 1444.94>
LayerCount: 2
Fore
SplineSet
613 -17 m 1,0,1
 402 3 402 3 282 136 c 0,2,3
 173 256 173 256 173 424 c 0,4,5
 173 484 173 484 187 550 c 0,6,7
 241 803 241 803 458 964 c 0,8,9
 637 1097 637 1097 854 1117 c 1,10,-1
 887 1272 l 1,11,-1
 944 1289 l 1,12,13
 1018 1262 1018 1262 1018 1195 c 0,14,15
 1018 1180 1018 1180 1014 1163 c 2,16,-1
 1004 1117 l 1,17,18
 1182 1100 1182 1100 1302 998 c 1,19,-1
 1157 736 l 1,20,21
 1151 966 1151 966 973 971 c 1,22,-1
 802 167 l 1,23,24
 862 199 862 199 920 257 c 1,25,-1
 1196 161 l 1,26,27
 988 5 988 5 764 -16 c 1,28,-1
 730 -172 l 1,29,-1
 674 -189 l 1,30,31
 600 -163 600 -163 600 -95 c 0,32,33
 600 -80 600 -80 604 -63 c 2,34,-1
 613 -17 l 1,0,1
814 928 m 1,35,36
 786 913 786 913 757 892 c 0,37,38
 628 802 628 802 551 665 c 0,39,40
 499 571 499 571 477 464 c 0,41,42
 463 396 463 396 463 341 c 0,43,44
 463 290 463 290 475 251 c 0,45,46
 510 134 510 134 644 129 c 1,47,-1
 814 928 l 1,35,36
EndSplineSet
Validated: 1
EndChar

StartChar: sterling
Encoding: 163 163 74
Width: 1283
GlyphClass: 2
Flags: W
HStem: 0 178<525.003 1183.4> 487 150<174.088 274 615 1056.47> 708 150<221.088 320 662 1103.36> 1381 149<915.864 1184.23>
VStem: 210 315<98 396.594>
DStem2: 170.387 0 480.387 0 0.207912 0.978148<268.687 497.9 715.52 723.635 941.463 1292.3>
LayerCount: 2
Fore
SplineSet
294 0 m 1,0,1
 210 45 210 45 210 151 c 0,2,3
 210 184 210 184 218 224 c 2,4,-1
 274 487 l 1,5,-1
 141 487 l 1,6,-1
 135 540 l 1,7,8
 188 637 188 637 281 637 c 2,9,-1
 305 637 l 1,10,-1
 320 708 l 1,11,-1
 187 708 l 1,12,-1
 182 761 l 1,13,14
 235 858 235 858 328 858 c 2,15,-1
 352 858 l 1,16,-1
 381 991 l 2,17,18
 435 1246 435 1246 587 1378 c 0,19,20
 762 1530 762 1530 1019 1530 c 0,21,22
 1247 1530 1247 1530 1389 1408 c 1,23,-1
 1245 1146 l 1,24,25
 1239 1381 1239 1381 1063 1381 c 0,26,27
 965 1381 965 1381 863 1302 c 0,28,29
 736 1204 736 1204 691 991 c 2,30,-1
 662 858 l 1,31,-1
 1137 858 l 1,32,-1
 1143 805 l 1,33,34
 1089 708 1089 708 996 708 c 2,35,-1
 630 708 l 1,36,-1
 615 637 l 1,37,-1
 1090 637 l 1,38,-1
 1096 584 l 1,39,40
 1042 487 1042 487 950 487 c 2,41,-1
 584 487 l 1,42,-1
 528 224 l 2,43,44
 525 209 525 209 525 199 c 0,45,46
 525 178 525 178 539 178 c 2,47,-1
 1124 178 l 2,48,49
 1215 178 1215 178 1303 289 c 1,50,-1
 1324 289 l 1,51,-1
 1207 74 l 2,52,53
 1166 0 1166 0 1062 0 c 2,54,-1
 294 0 l 1,0,1
EndSplineSet
Validated: 1
EndChar

StartChar: currency
Encoding: 164 164 75
Width: 1664
GlyphClass: 2
Flags: W
HStem: 185 149<712.096 996.888> 1176 149<1004.79 1293.63>
VStem: 363 294<436.006 783.785> 1347 292<729.541 1100.2>
DStem2: 164 208 304 30 0.769344 0.638835<0 338.871 1649.66 1961.8> 611 1466 394 1287 0.614071 -0.789251<8.02248 271.786 1334.25 1591.86>
LayerCount: 2
Fore
SplineSet
825 334 m 0,0,1
 942 334 942 334 1056 413 c 0,2,3
 1185 503 1185 503 1261 640 c 0,4,5
 1315 737 1315 737 1335 841 c 0,6,7
 1347 905 1347 905 1347 958.5 c 128,-1,8
 1347 1012 1347 1012 1335 1055 c 0,9,10
 1299 1176 1299 1176 1179 1176 c 0,11,12
 1062 1176 1062 1176 948 1097 c 0,13,14
 818 1007 818 1007 742 870 c 0,15,16
 688 773 688 773 669 669 c 0,17,18
 657 605 657 605 657 551.5 c 128,-1,19
 657 498 657 498 669 455 c 0,20,21
 705 334 705 334 825 334 c 0,0,1
1123 1325 m 0,22,23
 1303 1325 1303 1325 1425 1255 c 1,24,-1
 1679 1466 l 1,25,-1
 1818 1287 l 1,26,-1
 1586 1094 l 1,27,28
 1639 999 1639 999 1639 882 c 0,29,30
 1639 821 1639 821 1625 755 c 0,31,32
 1582 551 1582 551 1434 408 c 1,33,-1
 1589 210 l 1,34,-1
 1372 30 l 1,35,-1
 1200 251 l 1,36,37
 1051 185 1051 185 880 185 c 0,38,39
 700 185 700 185 577 256 c 1,40,-1
 304 30 l 1,41,-1
 164 208 l 1,42,-1
 417 418 l 1,43,44
 363 513 363 513 363 630 c 0,45,46
 363 689 363 689 377 755 c 0,47,48
 418 946 418 946 551 1084 c 1,49,-1
 394 1287 l 1,50,-1
 611 1466 l 1,51,-1
 779 1249 l 1,52,53
 938 1325 938 1325 1123 1325 c 0,22,23
EndSplineSet
Validated: 1
EndChar

StartChar: yen
Encoding: 165 165 76
Width: 1615
GlyphClass: 2
Flags: W
HStem: -20 21G<824.5 920.544> 203 150<365.196 763 1095 1413.36> 424 150<412.196 727 1068 1460.36> 1379 34<286.735 330.581> 1480 30<1232 1267.01> 1510 20G<593.41 685>
VStem: 789 319<54.4879 200.906> 1452 349<1068.41 1364.68>
DStem2: 1043 574 727 574 0.156422 -0.98769<-454.52 -49.4292 152.064 174.482 374.567 516.986>
LayerCount: 2
Fore
SplineSet
857 -20 m 1,0,1
 792 4 792 4 789 67 c 0,2,3
 786 136 786 136 780 203 c 1,4,-1
 332 203 l 1,5,-1
 326 256 l 1,6,7
 379 353 379 353 473 353 c 2,8,-1
 763 353 l 1,9,10
 759 389 759 389 753 424 c 1,11,-1
 379 424 l 1,12,-1
 373 477 l 1,13,14
 426 574 426 574 520 574 c 2,15,-1
 727 574 l 1,16,17
 641 1011 641 1011 452 1341 c 0,18,19
 425 1388 425 1388 363 1388 c 0,20,21
 325 1388 325 1388 288 1379 c 1,22,-1
 285 1413 l 1,23,-1
 657 1530 l 1,24,25
 713 1508 713 1508 747 1445 c 0,26,27
 960 1051 960 1051 1043 574 c 1,28,-1
 1494 574 l 1,29,-1
 1500 521 l 1,30,31
 1446 424 1446 424 1353 424 c 2,32,-1
 1068 424 l 1,33,34
 1074 389 1074 389 1078 353 c 1,35,-1
 1447 353 l 1,36,-1
 1453 300 l 1,37,38
 1399 203 1399 203 1306 203 c 2,39,-1
 1095 203 l 1,40,41
 1105 118 1105 118 1108 59 c 1,42,-1
 857 -20 l 1,0,1
1232 1510 m 1,43,44
 1801 1510 1801 1510 1801 1233 c 0,45,46
 1801 1201 1801 1201 1793 1165 c 0,47,48
 1725 844 1725 844 1117 631 c 1,49,-1
 1104 655 l 1,50,51
 1392 922 1392 922 1443 1158 c 0,52,53
 1452 1199 1452 1199 1452 1235 c 0,54,55
 1452 1420 1452 1420 1226 1480 c 1,56,-1
 1232 1510 l 1,43,44
EndSplineSet
Validated: 1
EndChar

StartChar: brokenbar
Encoding: 166 166 77
Width: 720
GlyphClass: 2
Flags: W
VStem: 222 596
LayerCount: 2
Fore
SplineSet
345 -180 m 1,0,1
 222 -154 222 -154 222 -24 c 0,2,3
 222 11 222 11 231 54 c 2,4,-1
 355 636 l 1,5,-1
 481 677 l 1,6,7
 603 651 603 651 603 521 c 0,8,9
 603 485 603 485 594 442 c 2,10,-1
 470 -140 l 1,11,-1
 345 -180 l 1,0,1
696 1690 m 1,12,13
 818 1664 818 1664 818 1534 c 0,14,15
 818 1498 818 1498 809 1455 c 2,16,-1
 686 873 l 1,17,-1
 560 833 l 1,18,19
 438 859 438 859 438 988 c 0,20,21
 438 1024 438 1024 447 1067 c 2,22,-1
 571 1649 l 1,23,-1
 696 1690 l 1,12,13
EndSplineSet
Validated: 1
EndChar

StartChar: section
Encoding: 167 167 78
Width: 1199
GlyphClass: 2
Flags: W
HStem: -20 143<438.599 685.331> 413 159<617.885 760.302> 938 159<759.729 901.115> 1387 143<834.669 1081.4>
VStem: 270 320<598.817 803.863> 434 308<1114.97 1297.26> 778 308<212.74 395.518> 930 319<706.238 911.183>
LayerCount: 2
Fore
SplineSet
561 -20 m 0,0,1
 382 -20 382 -20 254 60 c 1,2,-1
 390 306 l 1,3,4
 402 123 402 123 549 123 c 0,5,6
 593 123 593 123 644 144 c 0,7,8
 692 164 692 164 724 201 c 0,9,10
 764 248 764 248 775 303 c 0,11,12
 778 320 778 320 778 335 c 0,13,14
 778 368 778 368 761 388 c 0,15,16
 739 413 739 413 674 413 c 0,17,18
 458 413 458 413 355 501 c 0,19,20
 270 574 270 574 270 678 c 0,21,22
 270 707 270 707 277 739 c 0,23,24
 308 883 308 883 443 979 c 1,25,-1
 700 885 l 1,26,27
 669 856 669 856 642 816 c 0,28,29
 607 763 607 763 594 705 c 0,30,31
 590 685 590 685 590 668 c 0,32,33
 590 624 590 624 617 598 c 0,34,35
 645 572 645 572 713 572 c 0,36,37
 914 572 914 572 1011 486 c 0,38,39
 1086 419 1086 419 1086 330 c 0,40,41
 1086 306 1086 306 1080 280 c 0,42,43
 1053 154 1053 154 923 72 c 0,44,45
 779 -20 779 -20 561 -20 c 0,0,1
959 1530 m 0,46,47
 1138 1530 1138 1530 1266 1450 c 1,48,-1
 1130 1204 l 1,49,50
 1118 1387 1118 1387 971 1387 c 0,51,52
 927 1387 927 1387 876 1366 c 0,53,54
 828 1346 828 1346 796 1309 c 0,55,56
 756 1262 756 1262 745 1207 c 0,57,58
 742 1190 742 1190 742 1175 c 0,59,60
 742 1142 742 1142 759 1123 c 0,61,62
 782 1097 782 1097 846 1097 c 0,63,64
 1062 1097 1062 1097 1164 1009 c 0,65,66
 1249 936 1249 936 1249 832 c 0,67,68
 1248 803 1248 803 1242 771 c 0,69,70
 1212 627 1212 627 1077 531 c 1,71,-1
 820 625 l 1,72,73
 851 654 851 654 878 694 c 0,74,75
 915 750 915 750 926 805 c 0,76,77
 930 824 930 824 930 841 c 0,78,79
 930 886 930 886 902 912 c 128,-1,80
 874 938 874 938 807 938 c 0,81,82
 606 938 606 938 509 1024 c 0,83,84
 434 1091 434 1091 434 1180 c 0,85,86
 434 1204 434 1204 440 1230 c 0,87,88
 467 1356 467 1356 597 1438 c 0,89,90
 741 1530 741 1530 959 1530 c 0,46,47
EndSplineSet
Validated: 1
EndChar

StartChar: dieresis
Encoding: 168 168 79
Width: 698
GlyphClass: 2
Flags: W
HStem: 1180 314<375.359 544.133 723.359 892.133>
VStem: 300 318<1252.48 1418.92> 648 318<1252.02 1418.92>
LayerCount: 2
Fore
SplineSet
841 1494 m 128,-1,1
 906 1494 906 1494 941 1448 c 0,2,3
 966 1415 966 1415 966 1372 c 0,4,5
 966 1354 966 1354 962 1336 c 0,6,7
 948 1270 948 1270 893.5 1225 c 128,-1,8
 839 1180 839 1180 774 1180 c 0,9,10
 710 1180 710 1180 674 1226 c 0,11,12
 648 1259 648 1259 648 1301 c 0,13,14
 648 1318 648 1318 652 1336 c 0,15,16
 666 1402 666 1402 721 1448 c 128,-1,0
 776 1494 776 1494 841 1494 c 128,-1,1
493 1494 m 128,-1,18
 558 1494 558 1494 593 1448 c 0,19,20
 618 1415 618 1415 618 1372 c 0,21,22
 618 1354 618 1354 614 1336 c 0,23,24
 600 1270 600 1270 545.5 1225 c 128,-1,25
 491 1180 491 1180 426 1180 c 0,26,27
 362 1180 362 1180 326 1226 c 0,28,29
 300 1260 300 1260 300 1301 c 0,30,31
 300 1318 300 1318 304 1336 c 0,32,33
 318 1402 318 1402 373 1448 c 128,-1,17
 428 1494 428 1494 493 1494 c 128,-1,18
EndSplineSet
Validated: 1
EndChar

StartChar: copyright
Encoding: 169 169 80
Width: 1358
GlyphClass: 2
Flags: W
HStem: 386 77<594.878 969.312> 546 129<676.969 923.793> 1230 130<845.182 1113.29> 1453 77<795.688 1170.37>
VStem: 313 82<659.426 1055.31> 446 194<712.138 1009.58> 1370 82<860.688 1256.57>
LayerCount: 2
Fore
SplineSet
988 1530 m 0,0,1
 1230 1530 1230 1530 1357 1368 c 0,2,3
 1452 1247 1452 1247 1452 1097 c 0,4,5
 1452 1019 1452 1019 1443 964 c 0,6,7
 1403 718 1403 718 1204 553 c 0,8,9
 1002 386 1002 386 777 386 c 0,10,11
 535 386 535 386 408 548 c 0,12,13
 313 669 313 669 313 819 c 0,14,15
 313 897 313 897 322 952 c 0,16,17
 362 1199 362 1199 561 1363 c 0,18,19
 763 1530 763 1530 988 1530 c 0,0,1
987 1453 m 0,20,21
 797 1453 797 1453 625 1312 c 0,22,23
 447 1166 447 1166 406 953 c 0,24,25
 395 896 395 896 395 849 c 0,26,27
 395 701 395 701 471 602 c 0,28,29
 578 463 578 463 778 463 c 0,30,31
 968 463 968 463 1140 604 c 0,32,33
 1318 750 1318 750 1359 963 c 0,34,35
 1370 1020 1370 1020 1370 1067 c 0,36,37
 1370 1213 1370 1213 1294 1314 c 0,38,39
 1188 1453 1188 1453 987 1453 c 0,20,21
975 1360 m 0,40,41
 1154 1360 1154 1360 1263 1241 c 1,42,-1
 1162 1058 l 1,43,44
 1150 1230 1150 1230 990 1230 c 0,45,46
 909 1230 909 1230 827 1174 c 0,47,48
 680 1074 680 1074 647 896 c 0,49,50
 640 859 640 859 640 829 c 0,51,52
 640 787 640 787 653 758 c 0,53,54
 690 675 690 675 786 675 c 0,55,56
 787 675 787 675 788 675 c 0,57,58
 886 676 886 676 979 758 c 1,59,-1
 1174 690 l 1,60,61
 1002 546 1002 546 801 546 c 0,62,63
 621 546 621 546 519 658 c 0,64,65
 446 738 446 738 446 857 c 0,66,67
 446 903 446 903 457 954 c 0,68,69
 496 1139 496 1139 647 1250 c 0,70,71
 797 1360 797 1360 975 1360 c 0,40,41
EndSplineSet
Validated: 1
EndChar

StartChar: ordfeminine
Encoding: 170 170 81
Width: 692
GlyphClass: 2
Flags: W
HStem: 710 174<237.188 793.352> 929 30<515.267 542> 1413 54<475.938 519.649> 1510 20G<612.921 702>
VStem: 250 197<985.533 1177.67>
LayerCount: 2
Fore
SplineSet
839 884 m 1,0,-1
 846 819 l 1,1,2
 790 710 790 710 638 710 c 2,3,-1
 192 710 l 1,4,-1
 185 775 l 1,5,6
 240 884 240 884 393 884 c 2,7,-1
 839 884 l 1,0,-1
750 918 m 1,8,9
 678 934 678 934 674 996 c 0,10,11
 657 1260 657 1260 570 1403 c 24,12,13
 559 1421 559 1421 537 1421 c 0,14,15
 512 1421 512 1421 477 1413 c 1,16,-1
 473 1467 l 1,17,-1
 678 1530 l 1,18,19
 726 1521 726 1521 751 1473 c 0,20,21
 851 1279 851 1279 875 956 c 1,22,-1
 750 918 l 1,8,9
542 929 m 1,23,24
 250 929 250 929 250 1066 c 0,25,26
 250 1082 250 1082 254 1099 c 0,27,28
 281 1226 281 1226 548 1349 c 1,29,-1
 561 1326 l 1,30,31
 475 1212 475 1212 451 1101 c 0,32,33
 447 1084 447 1084 447 1069 c 0,34,35
 447 989 447 989 549 959 c 1,36,-1
 542 929 l 1,23,24
EndSplineSet
Validated: 1
EndChar

StartChar: guillemotleft
Encoding: 171 171 82
Width: 1168
GlyphClass: 2
Flags: W
DStem2: 497 726 288 668 0.436334 -0.899785<0 396.936> 376 902 497 726 0.674536 0.738242<-48.3118 501.514> 898 726 689 668 0.436334 -0.899785<0 396.936> 777 902 898 726 0.674536 0.738242<-48.3118 501.514>
LayerCount: 2
Fore
SplineSet
1137 1296 m 1,0,-1
 1232 1268 l 1,1,2
 1241 1243 1241 1243 1241 1211 c 0,3,4
 1241 1189 1241 1189 1237 1164 c 0,5,6
 1222 1083 1222 1083 1155 1009 c 2,7,-1
 898 726 l 1,8,-1
 1075 361 l 1,9,-1
 1003 286 l 1,10,11
 988 283 988 283 974 283 c 0,12,13
 879 283 879 283 820 402 c 2,14,-1
 689 668 l 2,15,16
 677 693 677 693 677 721 c 0,17,18
 677 744 677 744 685 770 c 0,19,20
 702 820 702 820 777 902 c 2,21,-1
 1137 1296 l 1,0,-1
736 1296 m 1,22,-1
 831 1268 l 1,23,24
 840 1243 840 1243 840 1211 c 0,25,26
 840 1189 840 1189 836 1164 c 0,27,28
 821 1083 821 1083 754 1009 c 2,29,-1
 497 726 l 1,30,-1
 674 361 l 1,31,-1
 602 286 l 1,32,33
 587 283 587 283 573 283 c 0,34,35
 478 283 478 283 419 402 c 2,36,-1
 288 668 l 2,37,38
 276 693 276 693 276 721 c 0,39,40
 276 744 276 744 284 770 c 0,41,42
 301 820 301 820 376 902 c 2,43,-1
 736 1296 l 1,22,-1
EndSplineSet
Validated: 1
EndChar

StartChar: logicalnot
Encoding: 172 172 83
Width: 1219
GlyphClass: 2
Flags: W
HStem: 639 211<327 1069.53>
LayerCount: 2
Fore
SplineSet
327 850 m 1,0,-1
 1070 850 l 2,1,2
 1233 850 1233 850 1253 724 c 1,3,-1
 1080 409 l 1,4,-1
 1048 419 l 1,5,6
 1064 454 1064 454 1073 492 c 0,7,8
 1079 522 1079 522 1079 546 c 0,9,10
 1079 639 1079 639 982 639 c 2,11,-1
 466 639 l 2,12,13
 288 639 288 639 283 768 c 1,14,-1
 327 850 l 1,0,-1
EndSplineSet
Validated: 1
EndChar

StartChar: uni00AD
Encoding: 173 173 84
Width: 1219
GlyphClass: 2
Flags: W
HStem: 639 211<344.139 1194.42>
LayerCount: 2
Fore
SplineSet
1253 850 m 1,0,-1
 1262 765 l 1,1,2
 1203 639 1203 639 1025 639 c 2,3,-1
 282 639 l 1,4,-1
 273 721 l 1,5,6
 332 850 332 850 511 850 c 2,7,-1
 1253 850 l 1,0,-1
EndSplineSet
Validated: 1
EndChar

StartChar: registered
Encoding: 174 174 85
Width: 1358
GlyphClass: 2
Flags: W
HStem: 386 77<594.878 969.251> 1219 124<847.595 1000.43> 1453 77<795.688 1170.37>
VStem: 313 82<659.426 1052.94> 529 167<554 621.874> 1004 186<1009.31 1215.45> 1370 82<860.396 1256.57>
DStem2: 472.421 386 660.29 386 0.207912 0.978148<252.999 858.699>
LayerCount: 2
Fore
SplineSet
987 1453 m 0,0,1
 797 1453 797 1453 625 1312 c 0,2,3
 615 1304 615 1304 606 1296 c 1,4,-1
 759 1344 l 1,5,6
 793 1334 793 1334 811 1315 c 1,7,8
 876 1343 876 1343 945 1343 c 0,9,10
 1077 1342 1077 1342 1143 1266 c 0,11,12
 1190 1212 1190 1212 1190 1130 c 0,13,14
 1190 1097 1190 1097 1182 1059 c 0,15,16
 1154 922 1154 922 1011 833 c 1,17,18
 1082 708 1082 708 1178 637 c 1,19,20
 1323 773 1323 773 1359 963 c 0,21,22
 1370 1020 1370 1020 1370 1067 c 0,23,24
 1370 1213 1370 1213 1294 1314 c 0,25,26
 1188 1453 1188 1453 987 1453 c 0,0,1
988 1530 m 0,27,28
 1230 1530 1230 1530 1357 1368 c 0,29,30
 1452 1247 1452 1247 1452 1097 c 0,31,32
 1452 1019 1452 1019 1443 964 c 0,33,34
 1403 718 1403 718 1204 553 c 0,35,36
 1002 386 1002 386 777 386 c 0,37,38
 535 386 535 386 408 548 c 0,39,40
 313 669 313 669 313 819 c 0,41,42
 313 897 313 897 322 952 c 0,43,44
 362 1199 362 1199 561 1363 c 0,45,46
 763 1530 763 1530 988 1530 c 0,27,28
1036 533 m 1,47,48
 877 651 877 651 778 917 c 1,49,50
 855 917 855 917 894 942 c 0,51,52
 977 997 977 997 999 1105 c 0,53,54
 1004 1130 1004 1130 1004 1150 c 0,55,56
 1004 1219 1004 1219 938 1219 c 0,57,58
 894 1219 894 1219 858 1186 c 0,59,60
 822 1152 822 1152 809 1089 c 2,61,-1
 696 554 l 1,62,-1
 614 528 l 1,63,64
 529 552 529 552 529 632 c 0,65,66
 529 652 529 652 533 671 c 2,67,-1
 645 1199 l 2,68,69
 648 1213 648 1213 648 1227 c 0,70,71
 648 1262 648 1262 619 1262 c 0,72,73
 591 1262 591 1262 566 1253 c 1,74,-1
 566 1258 l 1,75,76
 440 1128 440 1128 406 953 c 0,77,78
 395 896 395 896 395 849 c 0,79,80
 395 701 395 701 471 602 c 0,81,82
 578 463 578 463 778 463 c 0,83,84
 911 463 911 463 1036 533 c 1,47,48
EndSplineSet
Validated: 1
EndChar

StartChar: macron
Encoding: 175 175 86
Width: 698
GlyphClass: 2
Flags: W
HStem: 1230 174<347.188 910.222>
VStem: 302 661<1216.52 1287.48>
LayerCount: 2
Fore
SplineSet
955 1404 m 1,0,-1
 963 1339 l 1,1,2
 907 1230 907 1230 754 1230 c 2,3,-1
 302 1230 l 1,4,-1
 295 1295 l 1,5,6
 350 1404 350 1404 503 1404 c 2,7,-1
 955 1404 l 1,0,-1
EndSplineSet
Validated: 1
EndChar

StartChar: degree
Encoding: 176 176 87
Width: 654
GlyphClass: 2
Flags: W
HStem: 926 139<464.28 629.707> 1398 132<550.255 714.674>
VStem: 273 183<1069.69 1296.1> 723 180<1167.98 1392.62>
LayerCount: 2
Fore
SplineSet
650 1398 m 0,0,1
 602 1398 602 1398 560 1363 c 0,2,3
 515 1326 515 1326 488 1275 c 0,4,5
 470 1241 470 1241 461 1198 c 0,6,7
 456 1173 456 1173 456 1153 c 0,8,9
 456 1137 456 1137 459 1124 c 0,10,11
 472 1065 472 1065 529 1065 c 0,12,13
 577 1065 577 1065 619 1100 c 0,14,15
 663 1136 663 1136 690 1188 c 0,16,17
 710 1225 710 1225 718 1265 c 0,18,19
 723 1290 723 1290 723 1310 c 0,20,21
 723 1326 723 1326 720 1339 c 0,22,23
 707 1398 707 1398 650 1398 c 0,0,1
652 1530 m 0,24,25
 784 1530 784 1530 850 1450 c 0,26,27
 903 1386 903 1386 903 1299 c 0,28,29
 903 1266 903 1266 895 1228 c 0,30,31
 867 1096 867 1096 756 1006 c 0,32,33
 656 926 656 926 524 926 c 0,34,35
 390 926 390 926 326 1007 c 0,36,37
 273 1071 273 1071 273 1158 c 0,38,39
 273 1191 273 1191 281 1228 c 0,40,41
 309 1361 309 1361 420 1450 c 0,42,43
 523 1530 523 1530 652 1530 c 0,24,25
EndSplineSet
Validated: 1
EndChar

StartChar: plusminus
Encoding: 177 177 88
Width: 1219
GlyphClass: 2
Flags: W
HStem: 176 211<245.961 1095.42> 782 211<374.961 670 926 1224.42>
VStem: 624 181<424 491.53> 791 181<1282.66 1350>
DStem2: 541.176 176 752.191 176 0.207912 0.978148<367.46 619.542 879.156 1134.14>
LayerCount: 2
Fore
SplineSet
1154 387 m 1,0,-1
 1163 302 l 1,1,2
 1104 176 1104 176 926 176 c 2,3,-1
 183 176 l 1,4,-1
 175 258 l 1,5,6
 234 387 234 387 412 387 c 2,7,-1
 1154 387 l 1,0,-1
882 1377 m 1,8,9
 972 1353 972 1353 972 1245 c 0,10,11
 972 1210 972 1210 963 1167 c 2,12,-1
 926 993 l 1,13,-1
 1283 993 l 1,14,-1
 1292 908 l 1,15,16
 1233 782 1233 782 1055 782 c 2,17,-1
 881 782 l 1,18,-1
 805 424 l 1,19,-1
 718 398 l 1,20,21
 624 423 624 423 624 533 c 0,22,23
 624 567 624 567 633 608 c 2,24,-1
 670 782 l 1,25,-1
 312 782 l 1,26,-1
 304 864 l 1,27,28
 363 993 363 993 541 993 c 2,29,-1
 715 993 l 1,30,-1
 791 1350 l 1,31,-1
 882 1377 l 1,8,9
EndSplineSet
Validated: 1
EndChar

StartChar: uni00B2
Encoding: 178 178 89
Width: 709
GlyphClass: 2
Flags: W
HStem: 853 130<551 832.133> 853 94<234 306.184> 1533 105<601.3 752.822>
VStem: 325 200<1222.07 1454.49> 754 191<1333.17 1530.67>
LayerCount: 2
Fore
SplineSet
692 1638 m 0,0,1
 830 1638 830 1638 896 1565 c 0,2,3
 945 1510 945 1510 945 1436 c 0,4,5
 945 1409 945 1409 939 1380 c 0,6,7
 893 1164 893 1164 551 983 c 1,8,-1
 801 983 l 2,9,10
 836 983 836 983 880 1038 c 1,11,-1
 910 1038 l 1,12,-1
 836 904 l 2,13,14
 808 853 808 853 741 853 c 2,15,-1
 234 853 l 1,16,-1
 221 947 l 1,17,18
 695 1183 695 1183 749 1434 c 0,19,20
 754 1457 754 1457 754 1474 c 0,21,22
 754 1533 754 1533 699 1533 c 0,23,24
 664 1533 664 1533 623 1506 c 0,25,26
 551 1459 551 1459 529 1357 c 0,27,28
 525 1341 525 1341 525 1326 c 0,29,30
 525 1274 525 1274 570 1247 c 1,31,-1
 491 1127 l 1,32,33
 421 1140 421 1140 366 1200 c 0,34,35
 325 1245 325 1245 325 1316 c 0,36,37
 325 1345 325 1345 332 1378 c 0,38,39
 356 1492 356 1492 457 1565 c 0,40,41
 556 1638 556 1638 692 1638 c 0,0,1
EndSplineSet
Validated: 1
EndChar

StartChar: uni00B3
Encoding: 179 179 90
Width: 643
GlyphClass: 2
Flags: W
HStem: 823 125<446.791 585.567> 1498 130<448.045 681>
VStem: 242 201<949.629 1045> 667 194<1035.9 1231.68>
LayerCount: 2
Fore
SplineSet
539 1628 m 2,0,1
 905 1628 l 1,2,-1
 915 1545 l 1,3,4
 843 1414 843 1414 733 1335 c 1,5,6
 783 1315 783 1315 813 1280 c 0,7,8
 861 1225 861 1225 861 1148 c 0,9,10
 861 1120 861 1120 854 1088 c 0,11,12
 829 972 829 972 728.5 897.5 c 128,-1,13
 628 823 628 823 492.5 823 c 128,-1,14
 357 823 357 823 290 899 c 0,15,16
 243 954 243 954 242 1045 c 1,17,-1
 455 1112 l 1,18,19
 443 1058 443 1058 443 1022 c 0,20,21
 443 948 443 948 491 948 c 0,22,23
 532 948 532 948 566 975 c 0,24,25
 640 1033 640 1033 661 1128 c 0,26,27
 667 1153 667 1153 667 1173 c 0,28,29
 667 1234 667 1234 611 1234 c 0,30,31
 559 1234 559 1234 512 1197 c 1,32,-1
 470 1301 l 1,33,34
 619 1400 619 1400 681 1498 c 1,35,-1
 479 1498 l 2,36,37
 444 1498 444 1498 401 1443 c 1,38,-1
 371 1443 l 1,39,-1
 444 1577 l 2,40,41
 472 1628 472 1628 539 1628 c 2,0,1
EndSplineSet
Validated: 1
EndChar

StartChar: acute
Encoding: 180 180 91
Width: 478
GlyphClass: 2
Flags: W
HStem: 1160 400
VStem: 279 492
LayerCount: 2
Fore
SplineSet
533 1560 m 1,0,1
 771 1473 l 1,2,3
 546 1344 546 1344 443 1160 c 1,4,-1
 279 1219 l 1,5,6
 360 1420 360 1420 533 1560 c 1,0,1
EndSplineSet
Validated: 1
EndChar

StartChar: uni00B5
Encoding: 181 181 92
Width: 1388
GlyphClass: 2
Flags: W
HStem: -430 21G<77.5 202.222> -20 149<522.461 813.859> 79 34<1377.24 1421.26> 971 149<811.812 932>
DStem2: -21.801 -430 248.348 -430 0.207912 0.978148<169.201 568.393> 836.284 -430 1126.41 -430 0.207912 0.978148<725.57 1463.61>
LayerCount: 2
Fore
SplineSet
690 -20 m 0,0,1
 485 -20 485 -20 355 71 c 1,2,-1
 256 -394 l 1,3,-1
 135 -430 l 1,4,5
 20 -394 20 -394 20 -267 c 0,6,7
 20 -232 20 -232 29 -191 c 2,8,-1
 187 550 l 2,9,10
 241 804 241 804 458 964 c 0,11,12
 669 1120 669 1120 932 1120 c 1,13,-1
 950 971 l 1,14,15
 871 971 871 971 757 892 c 0,16,17
 628 802 628 802 552 665 c 0,18,19
 498 568 498 568 479 464 c 0,20,21
 467 400 467 400 467 346.5 c 128,-1,22
 467 293 467 293 479 250 c 0,23,24
 515 129 515 129 635 129 c 0,25,26
 764 129 764 129 866 208 c 24,27,28
 993 306 993 306 1038 519 c 2,29,-1
 1158 1084 l 1,30,-1
 1273 1120 l 1,31,32
 1412 1081 1412 1081 1412 945 c 0,33,34
 1412 911 1412 911 1403 871 c 2,35,-1
 1265 222 l 2,36,37
 1260 199 1260 199 1260 181 c 0,38,39
 1260 104 1260 104 1345 104 c 0,40,41
 1383 104 1383 104 1420 113 c 1,42,-1
 1423 79 l 1,43,-1
 1107 -20 l 1,44,45
 1033 1 1033 1 998 49 c 1,46,47
 863 -20 863 -20 690 -20 c 0,0,1
EndSplineSet
Validated: 1
EndChar

StartChar: paragraph
Encoding: 182 182 93
Width: 1162
GlyphClass: 2
Flags: W
HStem: -20 21G<925.246 981.976>
DStem2: 738.157 -20 854.686 -20 0.207912 0.978148<197.184 768.8> 921 -20 1037.29 -20 0.207912 0.978148<66.093 1165.4>
LayerCount: 2
Fore
SplineSet
921 -20 m 1,0,-1
 1163 1120 l 1,1,-1
 1097 1120 l 1,2,-1
 863 17 l 1,3,4
 784 74 784 74 784 171 c 0,5,6
 784 198 784 198 790 228 c 2,7,-1
 898 732 l 1,8,9
 809 709 809 709 710 709 c 0,10,11
 473 709 473 709 377 824 c 0,12,13
 299 918 299 918 299 1037 c 0,14,15
 299 1078 299 1078 308 1121 c 0,16,17
 345 1296 345 1296 491 1407 c 0,18,19
 653 1530 653 1530 878 1530 c 0,20,21
 1115 1530 1115 1530 1211 1415 c 0,22,23
 1289 1321 1289 1321 1289 1203 c 0,24,25
 1289 1162 1289 1162 1280 1119 c 2,26,-1
 1046 21 l 1,27,-1
 921 -20 l 1,0,-1
EndSplineSet
Validated: 1
EndChar

StartChar: periodcentered
Encoding: 183 183 94
Width: 404
GlyphClass: 2
Flags: W
HStem: 569 370<273.356 451.305>
VStem: 176 372<664.783 843.217>
LayerCount: 2
Fore
SplineSet
402 939 m 128,-1,1
 478 939 478 939 520 885 c 0,2,3
 548 849 548 849 548 796 c 0,4,5
 548 773 548 773 544 754 c 0,6,7
 528 677 528 677 463.5 623 c 128,-1,8
 399 569 399 569 323 569 c 0,9,10
 248 569 248 569 206 623 c 0,11,12
 176 662 176 662 176 712 c 0,13,14
 176 732 176 732 180 754 c 0,15,16
 196 831 196 831 261 885 c 128,-1,0
 326 939 326 939 402 939 c 128,-1,1
EndSplineSet
Validated: 1
EndChar

StartChar: cedilla
Encoding: 184 184 95
Width: 422
GlyphClass: 2
Flags: W
HStem: -486 189<-72 110.812> -20 20G<95.3333 286>
VStem: 130 222<-266.396 -160.465>
LayerCount: 2
Fore
SplineSet
107 0 m 1,0,-1
 286 0 l 1,1,-1
 239 -75 l 1,2,3
 352 -121 352 -121 352 -214 c 0,4,5
 352 -232 352 -232 348 -252 c 0,6,7
 298 -486 298 -486 -72 -486 c 1,8,-1
 -74 -297 l 1,9,10
 114 -297 114 -297 129 -224 c 0,11,12
 130 -217 130 -217 130 -211 c 0,13,14
 130 -157 130 -157 23 -144 c 1,15,-1
 107 0 l 1,0,-1
EndSplineSet
Validated: 1
EndChar

StartChar: uni00B9
Encoding: 185 185 96
Width: 383
GlyphClass: 2
Flags: W
HStem: 1540 30<355 399.435>
VStem: 440 197<1314.17 1578.49>
DStem2: 288.643 799 482.935 799 0.207912 0.978148<96.2828 733.595>
LayerCount: 2
Fore
SplineSet
548 1631 m 1,0,1
 637 1611 637 1611 637 1538 c 0,2,3
 637 1523 637 1523 633 1505 c 2,4,-1
 489 827 l 1,5,-1
 401 799 l 1,6,7
 312 817 312 817 312 892 c 0,8,9
 312 907 312 907 315 923 c 2,10,-1
 439 1505 l 2,11,12
 440 1511 440 1511 440 1517 c 0,13,14
 440 1546 440 1546 400 1546 c 0,15,16
 382 1546 382 1546 355 1540 c 1,17,-1
 354 1570 l 1,18,-1
 548 1631 l 1,0,1
EndSplineSet
Validated: 1
EndChar

StartChar: ordmasculine
Encoding: 186 186 97
Width: 705
GlyphClass: 2
Flags: W
HStem: 710 174<237.188 806.352> 920 115<465.765 641.267> 1415 115<585.013 760.168>
VStem: 273 186<1060.91 1280.42> 767 186<1167.54 1390.83>
LayerCount: 2
Fore
SplineSet
852 884 m 1,0,-1
 859 819 l 1,1,2
 803 710 803 710 651 710 c 2,3,-1
 192 710 l 1,4,-1
 185 775 l 1,5,6
 240 884 240 884 393 884 c 2,7,-1
 852 884 l 1,0,-1
692 1415 m 0,8,9
 646 1414 646 1414 591 1376 c 128,-1,10
 536 1338 536 1338 501 1276 c 0,11,12
 475 1229 475 1229 466 1185 c 0,13,14
 459 1151 459 1151 459 1124 c 0,15,16
 459 1099 459 1099 465 1080 c 0,17,18
 479 1035 479 1035 533 1035 c 0,19,20
 581 1035 581 1035 636 1074 c 0,21,22
 737 1146 737 1146 761 1268 c 0,23,24
 767 1301 767 1301 767 1327 c 0,25,26
 767 1355 767 1355 760 1373 c 0,27,28
 743 1415 743 1415 692 1415 c 0,8,9
679 1530 m 0,29,30
 820 1530 820 1530 897 1444 c 0,31,32
 953 1382 953 1382 953 1294 c 0,33,34
 953 1261 953 1261 945 1224 c 0,35,36
 916 1089 916 1089 802 1005 c 0,37,38
 687 920 687 920 547 920 c 0,39,40
 408 920 408 920 330 1006 c 0,41,42
 273 1069 273 1069 273 1157 c 0,43,44
 273 1193 273 1193 280 1225 c 0,45,46
 308 1358 308 1358 425 1445 c 0,47,48
 539 1530 539 1530 679 1530 c 0,29,30
EndSplineSet
Validated: 1
EndChar

StartChar: guillemotright
Encoding: 187 187 98
Width: 1167
GlyphClass: 2
Flags: W
DStem2: 684 1177 429 1218 0.436334 -0.899785<-141.605 257.496> 606 853 367 283 0.674536 0.738242<-549.826 0> 1085 1177 830 1218 0.436334 -0.899785<-141.605 257.496> 1007 853 768 283 0.674536 0.738242<-549.826 0>
LayerCount: 2
Fore
SplineSet
367 283 m 1,0,-1
 272 311 l 1,1,2
 263 336 263 336 263 368 c 0,3,4
 263 390 263 390 267 415 c 0,5,6
 282 496 282 496 349 570 c 2,7,-1
 606 853 l 1,8,-1
 429 1218 l 1,9,-1
 501 1293 l 1,10,11
 516 1296 516 1296 530 1296 c 0,12,13
 625 1296 625 1296 684 1177 c 2,14,-1
 815 911 l 2,15,16
 827 886 827 886 827 858 c 0,17,18
 827 835 827 835 819 809 c 0,19,20
 802 759 802 759 727 677 c 2,21,-1
 367 283 l 1,0,-1
768 283 m 1,22,-1
 673 311 l 1,23,24
 664 336 664 336 664 368 c 0,25,26
 664 390 664 390 668 415 c 0,27,28
 683 496 683 496 750 570 c 2,29,-1
 1007 853 l 1,30,-1
 830 1218 l 1,31,-1
 902 1293 l 1,32,33
 917 1296 917 1296 931 1296 c 0,34,35
 1026 1296 1026 1296 1085 1177 c 2,36,-1
 1216 911 l 2,37,38
 1228 886 1228 886 1228 858 c 0,39,40
 1228 835 1228 835 1220 809 c 0,41,42
 1203 759 1203 759 1128 677 c 2,43,-1
 768 283 l 1,22,-1
EndSplineSet
Validated: 1
EndChar

StartChar: onequarter
Encoding: 188 188 99
Width: 1554
GlyphClass: 2
Flags: W
HStem: 0 1G<409.5 545.542 1221 1327.57> 157 129<1084 1189 1412 1424> 1439 30<433.044 477.436> 1510 20G<562.393 670.5>
VStem: 518 197<1213.17 1477.49> 1178 175<8 76.9053> 1257 176<407.262 475>
DStem2: 215.027 -20 408.433 -20 0.207912 0.978148<829.138 1467.43> 1147 1510 534 0 0.499844 0.866115<-1597.17 -15.6716>
LayerCount: 2
Fore
SplineSet
626 1530 m 1,0,1
 715 1510 715 1510 715 1437 c 0,2,3
 715 1422 715 1422 711 1404 c 2,4,-1
 567 726 l 1,5,-1
 479 698 l 1,6,7
 390 716 390 716 390 790 c 0,8,9
 390 805 390 805 394 822 c 2,10,-1
 517 1404 l 2,11,12
 518 1410 518 1410 518 1416 c 0,13,14
 518 1445 518 1445 478 1445 c 0,15,16
 460 1445 460 1445 434 1439 c 1,17,-1
 432 1469 l 1,18,-1
 626 1530 l 1,0,1
1264 -20 m 1,19,20
 1178 4 1178 4 1178 84 c 0,21,22
 1178 102 1178 102 1182 123 c 2,23,-1
 1189 157 l 1,24,-1
 829 157 l 1,25,-1
 817 244 l 1,26,27
 1056 453 1056 453 1186 742 c 1,28,-1
 1411 812 l 1,29,30
 1294 492 1294 492 1084 286 c 1,31,-1
 1217 286 l 1,32,-1
 1257 475 l 1,33,-1
 1346 503 l 1,34,35
 1433 482 1433 482 1433 403 c 0,36,37
 1433 386 1433 386 1429 366 c 2,38,-1
 1412 286 l 1,39,-1
 1495 286 l 1,40,-1
 1424 157 l 1,41,-1
 1384 157 l 1,42,-1
 1353 8 l 1,43,-1
 1264 -20 l 1,19,20
436 0 m 1,44,45
 383 32 383 32 383 106 c 0,46,47
 383 133 383 133 390 165 c 0,48,49
 401 218 401 218 436 278 c 2,50,-1
 1147 1510 l 1,51,-1
 1246 1510 l 1,52,53
 1299 1478 1299 1478 1299 1405 c 0,54,55
 1299 1379 1299 1379 1292 1347 c 0,56,57
 1281 1295 1281 1295 1245 1232 c 2,58,-1
 534 0 l 1,59,-1
 436 0 l 1,44,45
EndSplineSet
Validated: 1
EndChar

StartChar: onehalf
Encoding: 189 189 100
Width: 1656
GlyphClass: 2
Flags: W
HStem: 0 130<1217 1497.96> 0 94<900 972.175> 680 105<1267.24 1416.41> 1439 30<433.044 477.436> 1510 20G<562.393 670.5>
VStem: 518 197<1213.17 1477.49> 991 200<369.073 601.495> 1419 192<480.169 678.997>
DStem2: 219.279 0 412.684 0 0.207912 0.978148<808.691 1446.98> 1147 1510 534 0 0.499844 0.866115<-1597.17 -15.6716>
LayerCount: 2
Fore
SplineSet
626 1530 m 1,0,1
 715 1510 715 1510 715 1437 c 0,2,3
 715 1422 715 1422 711 1404 c 2,4,-1
 567 726 l 1,5,-1
 479 698 l 1,6,7
 390 716 390 716 390 790 c 0,8,9
 390 805 390 805 394 822 c 2,10,-1
 517 1404 l 2,11,12
 518 1410 518 1410 518 1416 c 0,13,14
 518 1445 518 1445 478 1445 c 0,15,16
 460 1445 460 1445 434 1439 c 1,17,-1
 432 1469 l 1,18,-1
 626 1530 l 1,0,1
1358 785 m 0,19,20
 1496 785 1496 785 1561 712 c 0,21,22
 1611 656 1611 656 1611 581 c 0,23,24
 1611 555 1611 555 1605 527 c 0,25,26
 1559 311 1559 311 1217 130 c 1,27,-1
 1467 130 l 2,28,29
 1502 130 1502 130 1545 185 c 1,30,-1
 1575 185 l 1,31,-1
 1502 51 l 2,32,33
 1474 0 1474 0 1407 0 c 2,34,-1
 900 0 l 1,35,-1
 887 94 l 1,36,37
 1361 330 1361 330 1414 581 c 0,38,39
 1419 604 1419 604 1419 621 c 0,40,41
 1419 680 1419 680 1365 680 c 0,42,43
 1330 680 1330 680 1289 653 c 0,44,45
 1217 606 1217 606 1195 504 c 0,46,47
 1191 488 1191 488 1191 473 c 0,48,49
 1191 421 1191 421 1236 394 c 1,50,-1
 1156 274 l 1,51,52
 1086 287 1086 287 1032 347 c 0,53,54
 991 392 991 392 991 463 c 0,55,56
 991 492 991 492 998 525 c 0,57,58
 1022 639 1022 639 1122 712 c 128,-1,59
 1222 785 1222 785 1358 785 c 0,19,20
436 0 m 1,60,61
 383 32 383 32 383 106 c 0,62,63
 383 133 383 133 390 165 c 0,64,65
 401 218 401 218 436 278 c 2,66,-1
 1147 1510 l 1,67,-1
 1246 1510 l 1,68,69
 1299 1478 1299 1478 1299 1405 c 0,70,71
 1299 1379 1299 1379 1292 1347 c 0,72,73
 1281 1295 1281 1295 1245 1232 c 2,74,-1
 534 0 l 1,75,-1
 436 0 l 1,60,61
EndSplineSet
Validated: 1
EndChar

StartChar: threequarters
Encoding: 190 190 101
Width: 1828
GlyphClass: 2
Flags: W
HStem: 0 1G<683.5 819.542 1495 1601.57> 157 129<1358 1463 1686 1698> 705 125<521.597 660.567> 1380 130<523.045 756>
VStem: 317 201<831.629 927> 742 194<917.905 1113.68> 1452 175<8 76.9053> 1531 176<407.262 475>
DStem2: 1421 1510 808 0 0.499844 0.866115<-1597.17 -15.6716>
LayerCount: 2
Fore
SplineSet
1538 -20 m 1,0,1
 1452 4 1452 4 1452 84 c 0,2,3
 1452 102 1452 102 1456 123 c 2,4,-1
 1463 157 l 1,5,-1
 1103 157 l 1,6,-1
 1091 244 l 1,7,8
 1330 453 1330 453 1460 742 c 1,9,-1
 1685 812 l 1,10,11
 1568 492 1568 492 1358 286 c 1,12,-1
 1491 286 l 1,13,-1
 1531 475 l 1,14,-1
 1620 503 l 1,15,16
 1707 482 1707 482 1707 403 c 0,17,18
 1707 386 1707 386 1703 366 c 2,19,-1
 1686 286 l 1,20,-1
 1769 286 l 1,21,-1
 1698 157 l 1,22,-1
 1658 157 l 1,23,-1
 1627 8 l 1,24,-1
 1538 -20 l 1,0,1
614 1510 m 2,25,-1
 980 1510 l 1,26,-1
 990 1427 l 1,27,28
 918 1296 918 1296 808 1217 c 1,29,30
 858 1197 858 1197 888 1162 c 0,31,32
 936 1107 936 1107 936 1030 c 0,33,34
 936 1002 936 1002 929 970 c 0,35,36
 904 854 904 854 803.5 779.5 c 128,-1,37
 703 705 703 705 567.5 705 c 128,-1,38
 432 705 432 705 365 781 c 0,39,40
 318 836 318 836 317 927 c 1,41,-1
 530 994 l 1,42,43
 518 939 518 939 518 903 c 0,44,45
 518 830 518 830 565 830 c 0,46,47
 606 830 606 830 641 857 c 0,48,49
 715 915 715 915 736 1010 c 0,50,51
 742 1035 742 1035 742 1055 c 0,52,53
 742 1116 742 1116 686 1116 c 0,54,55
 634 1116 634 1116 587 1079 c 1,56,-1
 544 1183 l 1,57,58
 693 1282 693 1282 756 1380 c 1,59,-1
 554 1380 l 2,60,61
 519 1380 519 1380 476 1325 c 1,62,-1
 446 1325 l 1,63,-1
 519 1459 l 2,64,65
 547 1510 547 1510 614 1510 c 2,25,-1
710 0 m 1,66,67
 657 32 657 32 657 106 c 0,68,69
 657 133 657 133 664 165 c 0,70,71
 675 218 675 218 710 278 c 2,72,-1
 1421 1510 l 1,73,-1
 1520 1510 l 1,74,75
 1573 1478 1573 1478 1573 1405 c 0,76,77
 1573 1379 1573 1379 1566 1347 c 0,78,79
 1555 1295 1555 1295 1519 1232 c 2,80,-1
 808 0 l 1,81,-1
 710 0 l 1,66,67
EndSplineSet
Validated: 1
EndChar

StartChar: questiondown
Encoding: 191 191 102
Width: 1374
GlyphClass: 2
Flags: W
HStem: -430 170<460.56 717.615> 750 370<821.356 998.644>
VStem: 121 305<-225.011 85.6787>
LayerCount: 2
Fore
SplineSet
949 1120 m 0,0,1
 1024 1120 1024 1120 1066 1066 c 0,2,3
 1096 1027 1096 1027 1096 976 c 0,4,5
 1096 956 1096 956 1092 935 c 0,6,7
 1076 858 1076 858 1011.5 804 c 128,-1,8
 947 750 947 750 871 750 c 0,9,10
 796 750 796 750 754 804 c 0,11,12
 724 843 724 843 724 894 c 0,13,14
 724 914 724 914 728 935 c 0,15,16
 744 1012 744 1012 808.5 1066 c 128,-1,17
 873 1120 873 1120 949 1120 c 0,0,1
587 -430 m 0,18,19
 337 -430 337 -430 211 -288 c 0,20,21
 121 -188 121 -188 121 -47 c 0,22,23
 121 5 121 5 134 63 c 0,24,25
 212 428 212 428 670 656 c 1,26,-1
 1029 656 l 1,27,28
 623 391 623 391 504 164 c 0,29,30
 450 61 450 61 435 -22 c 0,31,32
 426 -72 426 -72 426 -111 c 0,33,34
 426 -159 426 -159 440 -188 c 0,35,36
 475 -260 475 -260 570 -260 c 0,37,38
 653 -260 653 -260 731 -209 c 0,39,40
 841 -137 841 -137 898 -31 c 0,41,42
 941 50 941 50 958 132 c 1,43,-1
 1277 232 l 1,44,45
 1280 204 1280 204 1280 176 c 0,46,47
 1280 122 1280 122 1268 65 c 0,48,49
 1221 -154 1221 -154 1041 -288 c 0,50,51
 850 -430 850 -430 587 -430 c 0,18,19
EndSplineSet
Validated: 1
EndChar

StartChar: multiply
Encoding: 215 215 103
Width: 1144
GlyphClass: 2
Flags: W
DStem2: 664 1017 382 997 0.618481 -0.7858<-136.675 157.265 352.636 645.187> 580 744 391 342 0.771091 0.636725<-375.241 -3.8833 235.847 610.589>
LayerCount: 2
Fore
SplineSet
440 1076 m 1,0,1
 484 1099 484 1099 524 1099 c 0,2,3
 600 1099 600 1099 664 1017 c 2,4,-1
 762 894 l 1,5,-1
 1068 1146 l 1,6,-1
 1138 1105 l 1,7,8
 1147 1081 1147 1081 1147 1056 c 0,9,10
 1147 1041 1147 1041 1144 1026 c 0,11,12
 1128 950 1128 950 1028 868 c 2,13,-1
 879 744 l 1,14,-1
 1078 491 l 1,15,-1
 1022 415 l 1,16,17
 977 391 977 391 935 391 c 0,18,19
 859 391 859 391 795 472 c 2,20,-1
 698 595 l 1,21,-1
 391 342 l 1,22,-1
 323 382 l 1,23,24
 314 407 314 407 314 433 c 0,25,26
 314 448 314 448 317 464 c 0,27,28
 333 540 333 540 431 621 c 2,29,-1
 580 744 l 1,30,-1
 382 997 l 1,31,-1
 440 1076 l 1,0,1
EndSplineSet
Validated: 1
EndChar

StartChar: divide
Encoding: 247 247 104
Width: 1219
GlyphClass: 2
Flags: W
HStem: 100 370<573.356 751.305> 639 211<344.139 1194.42> 998 370<779.356 957.305>
LayerCount: 2
Fore
SplineSet
908 1368 m 128,-1,1
 984 1368 984 1368 1026 1314 c 0,2,3
 1054 1278 1054 1278 1054 1225 c 0,4,5
 1054 1202 1054 1202 1050 1183 c 0,6,7
 1034 1106 1034 1106 969.5 1052 c 128,-1,8
 905 998 905 998 829 998 c 0,9,10
 754 998 754 998 712 1052 c 0,11,12
 682 1091 682 1091 682 1141 c 0,13,14
 682 1161 682 1161 686 1183 c 0,15,16
 702 1260 702 1260 767 1314 c 128,-1,0
 832 1368 832 1368 908 1368 c 128,-1,1
623 100 m 0,17,18
 548 100 548 100 506 154 c 0,19,20
 476 193 476 193 476 243 c 0,21,22
 476 263 476 263 480 285 c 0,23,24
 496 362 496 362 561 416 c 128,-1,25
 626 470 626 470 702 470 c 128,-1,26
 778 470 778 470 820 416 c 0,27,28
 848 380 848 380 848 327 c 0,29,30
 848 303 848 303 844 285 c 0,31,32
 828 208 828 208 763.5 154 c 128,-1,33
 699 100 699 100 623 100 c 0,17,18
1253 850 m 1,34,-1
 1262 765 l 1,35,36
 1203 639 1203 639 1025 639 c 2,37,-1
 282 639 l 1,38,-1
 273 721 l 1,39,40
 332 850 332 850 511 850 c 2,41,-1
 1253 850 l 1,34,-1
EndSplineSet
Validated: 1
EndChar

StartChar: endash
Encoding: 8211 8211 105
Width: 1219
GlyphClass: 2
Flags: W
HStem: 639 211<344.139 1194.42>
LayerCount: 2
Fore
SplineSet
1253 850 m 1,0,-1
 1262 765 l 1,1,2
 1203 639 1203 639 1025 639 c 2,3,-1
 282 639 l 1,4,-1
 273 721 l 1,5,6
 332 850 332 850 511 850 c 2,7,-1
 1253 850 l 1,0,-1
EndSplineSet
Validated: 1
EndChar

StartChar: emdash
Encoding: 8212 8212 106
Width: 1592
GlyphClass: 2
Flags: W
HStem: 639 211<344.139 1567.42>
LayerCount: 2
Fore
SplineSet
1626 850 m 1,0,-1
 1635 765 l 1,1,2
 1576 639 1576 639 1398 639 c 2,3,-1
 282 639 l 1,4,-1
 273 721 l 1,5,6
 332 850 332 850 511 850 c 2,7,-1
 1626 850 l 1,0,-1
EndSplineSet
Validated: 1
EndChar

StartChar: afii00208
Encoding: 8213 8213 107
Width: 1592
GlyphClass: 2
Flags: W
HStem: 639 211<344.139 1567.42>
LayerCount: 2
Fore
SplineSet
1626 850 m 1,0,-1
 1635 765 l 1,1,2
 1576 639 1576 639 1398 639 c 2,3,-1
 282 639 l 1,4,-1
 273 721 l 1,5,6
 332 850 332 850 511 850 c 2,7,-1
 1626 850 l 1,0,-1
EndSplineSet
Validated: 1
EndChar

StartChar: quoteleft
Encoding: 8216 8216 108
Width: 417
GlyphClass: 2
Flags: W
HStem: 968 602
VStem: 271 247<1105 1308.94>
LayerCount: 2
Fore
SplineSet
719 1570 m 1,0,1
 552 1412 552 1412 523 1275 c 0,2,3
 518 1250 518 1250 518 1226 c 0,4,5
 518 1122 518 1122 621 1054 c 1,6,-1
 349 968 l 1,7,8
 271 1056 271 1056 271 1152 c 0,9,10
 271 1177 271 1177 276 1203 c 0,11,12
 312 1371 312 1371 494 1499 c 1,13,-1
 719 1570 l 1,0,1
EndSplineSet
Validated: 1
EndChar

StartChar: quoteright
Encoding: 8217 8217 109
Width: 417
GlyphClass: 2
Flags: W
HStem: 968 602
VStem: 439 247<1229.06 1430.56>
LayerCount: 2
Fore
SplineSet
608 1570 m 1,0,1
 686 1482 686 1482 686 1386 c 0,2,3
 686 1361 686 1361 681 1335 c 0,4,5
 645 1167 645 1167 463 1039 c 1,6,-1
 238 968 l 1,7,8
 405 1126 405 1126 434 1263 c 0,9,10
 439 1288 439 1288 439 1312 c 0,11,12
 439 1416 439 1416 335 1484 c 1,13,-1
 608 1570 l 1,0,1
EndSplineSet
Validated: 1
EndChar

StartChar: quotesinglbase
Encoding: 8218 8218 110
Width: 417
GlyphClass: 2
Flags: W
HStem: -322 602
VStem: 165 247<-60.9434 140.561>
LayerCount: 2
Fore
SplineSet
334 280 m 1,0,1
 412 192 412 192 412 96 c 0,2,3
 412 71 412 71 407 45 c 0,4,5
 371 -123 371 -123 189 -251 c 1,6,-1
 -36 -322 l 1,7,8
 132 -164 132 -164 160 -27 c 0,9,10
 165 -2 165 -2 165 21 c 0,11,12
 165 125 165 125 61 194 c 1,13,-1
 334 280 l 1,0,1
EndSplineSet
Validated: 1
EndChar

StartChar: quotereversed
Encoding: 8219 8219 111
Width: 417
GlyphClass: 2
Flags: W
HStem: 968 602
VStem: 296 217<1109.62 1352.61>
LayerCount: 2
Fore
SplineSet
477 1570 m 1,0,1
 712 1484 l 1,2,3
 549 1400 549 1400 520 1263 c 0,4,5
 513 1232 513 1232 513 1200 c 0,6,7
 513 1090 513 1090 591 968 c 1,8,-1
 396 1039 l 1,9,10
 296 1139 296 1139 296 1263 c 0,11,12
 296 1298 296 1298 304 1335 c 0,13,14
 330 1459 330 1459 477 1570 c 1,0,1
EndSplineSet
Validated: 1
EndChar

StartChar: quotedblleft
Encoding: 8220 8220 112
Width: 805
GlyphClass: 2
Flags: W
HStem: 968 602
VStem: 271 247<1105 1308.94> 659 247<1105 1308.94>
LayerCount: 2
Fore
SplineSet
719 1570 m 1,0,1
 552 1412 552 1412 523 1275 c 0,2,3
 518 1250 518 1250 518 1226 c 0,4,5
 518 1122 518 1122 621 1054 c 1,6,-1
 349 968 l 1,7,8
 271 1056 271 1056 271 1152 c 0,9,10
 271 1177 271 1177 276 1203 c 0,11,12
 312 1371 312 1371 494 1499 c 1,13,-1
 719 1570 l 1,0,1
1107 1570 m 1,14,15
 940 1412 940 1412 911 1275 c 0,16,17
 906 1250 906 1250 906 1226 c 0,18,19
 906 1122 906 1122 1009 1054 c 1,20,-1
 737 968 l 1,21,22
 659 1056 659 1056 659 1152 c 0,23,24
 659 1177 659 1177 664 1203 c 0,25,26
 700 1371 700 1371 882 1499 c 1,27,-1
 1107 1570 l 1,14,15
EndSplineSet
Validated: 1
EndChar

StartChar: quotedblright
Encoding: 8221 8221 113
Width: 805
GlyphClass: 2
Flags: W
HStem: 968 602
VStem: 439 247<1229.06 1430.56> 827 247<1229.06 1430.56>
LayerCount: 2
Fore
SplineSet
996 1570 m 1,0,1
 1074 1482 1074 1482 1074 1386 c 0,2,3
 1074 1361 1074 1361 1069 1335 c 0,4,5
 1033 1167 1033 1167 851 1039 c 1,6,-1
 626 968 l 1,7,8
 793 1126 793 1126 822 1263 c 0,9,10
 827 1288 827 1288 827 1312 c 0,11,12
 827 1416 827 1416 723 1484 c 1,13,-1
 996 1570 l 1,0,1
608 1570 m 1,14,15
 686 1482 686 1482 686 1386 c 0,16,17
 686 1361 686 1361 681 1335 c 0,18,19
 645 1167 645 1167 463 1039 c 1,20,-1
 238 968 l 1,21,22
 405 1126 405 1126 434 1263 c 0,23,24
 439 1288 439 1288 439 1312 c 0,25,26
 439 1416 439 1416 335 1484 c 1,27,-1
 608 1570 l 1,14,15
EndSplineSet
Validated: 1
EndChar

StartChar: quotedblbase
Encoding: 8222 8222 114
Width: 805
GlyphClass: 2
Flags: W
HStem: -322 602
VStem: 165 247<-60.9434 140.561> 553 247<-60.9434 140.561>
LayerCount: 2
Fore
SplineSet
722 280 m 1,0,1
 800 192 800 192 800 96 c 0,2,3
 800 71 800 71 795 45 c 0,4,5
 759 -123 759 -123 577 -251 c 1,6,-1
 352 -322 l 1,7,8
 520 -164 520 -164 548 -27 c 0,9,10
 553 -2 553 -2 553 21 c 0,11,12
 553 125 553 125 449 194 c 1,13,-1
 722 280 l 1,0,1
334 280 m 1,14,15
 412 192 412 192 412 96 c 0,16,17
 412 71 412 71 407 45 c 0,18,19
 371 -123 371 -123 189 -251 c 1,20,-1
 -36 -322 l 1,21,22
 132 -164 132 -164 160 -27 c 0,23,24
 165 -2 165 -2 165 21 c 0,25,26
 165 125 165 125 61 194 c 1,27,-1
 334 280 l 1,14,15
EndSplineSet
Validated: 1
EndChar

StartChar: dagger
Encoding: 8224 8224 115
Width: 1219
GlyphClass: 2
Flags: W
HStem: -20 21G<564.5 702.103> 951 280<435.194 661 1021 1245.81> 1510 20G<838.5 975>
DStem2: 454.608 -20 754.608 -20 0.207912 0.978148<151.049 992.693 1341.42 1496.23>
LayerCount: 2
Fore
SplineSet
638 -20 m 1,0,1
 491 11 491 11 491 126 c 0,2,3
 491 148 491 148 496 173 c 2,4,-1
 661 951 l 1,5,-1
 361 951 l 1,6,-1
 347 1068 l 1,7,8
 416 1231 416 1231 576 1231 c 2,9,-1
 721 1231 l 1,10,-1
 776 1490 l 1,11,-1
 901 1530 l 1,12,13
 1049 1501 1049 1501 1049 1384 c 0,14,15
 1049 1362 1049 1362 1043 1336 c 2,16,-1
 1021 1231 l 1,17,-1
 1322 1231 l 1,18,-1
 1336 1114 l 1,19,20
 1263 951 1263 951 1107 951 c 2,21,-1
 961 951 l 1,22,-1
 763 19 l 1,23,-1
 638 -20 l 1,0,1
EndSplineSet
Validated: 1
EndChar

StartChar: daggerdbl
Encoding: 8225 8225 116
Width: 1219
GlyphClass: 2
Flags: W
HStem: -20 21G<565 701.5> 279 280<294.192 519 879 1104.81> 951 280<435.194 662 1022 1245.31> 1510 20G<837.897 975.5>
DStem2: 455.764 -20 755.446 -20 0.207912 0.978148<150.809 305.614 654.343 992.66 1341.39 1495.99>
LayerCount: 2
Fore
SplineSet
639 -20 m 1,0,1
 491 9 491 9 491 126 c 0,2,3
 491 148 491 148 497 174 c 2,4,-1
 519 279 l 1,5,-1
 218 279 l 1,6,-1
 204 396 l 1,7,8
 277 559 277 559 433 559 c 2,9,-1
 579 559 l 1,10,-1
 662 951 l 1,11,-1
 361 951 l 1,12,-1
 347 1068 l 1,13,14
 416 1231 416 1231 576 1231 c 2,15,-1
 722 1231 l 1,16,-1
 777 1491 l 1,17,-1
 902 1530 l 1,18,19
 1049 1499 1049 1499 1049 1384 c 0,20,21
 1049 1362 1049 1362 1044 1337 c 2,22,-1
 1022 1231 l 1,23,-1
 1322 1231 l 1,24,-1
 1336 1114 l 1,25,26
 1262 951 1262 951 1107 951 c 2,27,-1
 962 951 l 1,28,-1
 879 559 l 1,29,-1
 1179 559 l 1,30,-1
 1193 442 l 1,31,32
 1124 279 1124 279 964 279 c 2,33,-1
 819 279 l 1,34,-1
 764 20 l 1,35,-1
 639 -20 l 1,0,1
EndSplineSet
Validated: 1
EndChar

StartChar: bullet
Encoding: 8226 8226 117
Width: 968
GlyphClass: 2
Flags: W
HStem: 384 740<538.106 750.894>
LayerCount: 2
Fore
SplineSet
723 1124 m 128,-1,1
 875 1124 875 1124 958 1016 c 0,2,3
 1018 938 1018 938 1018 837 c 0,4,5
 1018 797 1018 797 1008 754 c 0,6,7
 976 600 976 600 847 492 c 128,-1,8
 718 384 718 384 566 384 c 128,-1,9
 414 384 414 384 331 492 c 0,10,11
 271 570 271 570 271 671 c 4,12,13
 271 713 271 713 280 754 c 0,14,15
 312 908 312 908 441.5 1016 c 128,-1,0
 571 1124 571 1124 723 1124 c 128,-1,1
EndSplineSet
Validated: 1
EndChar

StartChar: ellipsis
Encoding: 8230 8230 118
Width: 1234
GlyphClass: 2
Flags: W
HStem: -20 370<147.766 326.234 563.695 742.305 977.695 1156.31>
LayerCount: 2
Fore
SplineSet
1028 -20 m 0,0,1
 950 -20 950 -20 910 34 c 0,2,3
 881 73 881 73 881 124 c 0,4,5
 881 144 881 144 885 165 c 0,6,7
 901 242 901 242 965.5 296 c 128,-1,8
 1030 350 1030 350 1106 350 c 0,9,10
 1184 350 1184 350 1224 296 c 0,11,12
 1253 257 1253 257 1253 206 c 0,13,14
 1253 186 1253 186 1249 165 c 0,15,16
 1233 88 1233 88 1168.5 34 c 128,-1,17
 1104 -20 1104 -20 1028 -20 c 0,0,1
614 -20 m 0,18,19
 536 -20 536 -20 496 34 c 0,20,21
 467 73 467 73 467 124 c 0,22,23
 467 144 467 144 471 165 c 0,24,25
 487 242 487 242 551.5 296 c 128,-1,26
 616 350 616 350 692 350 c 0,27,28
 770 350 770 350 810 296 c 0,29,30
 839 257 839 257 839 206 c 0,31,32
 839 186 839 186 835 165 c 0,33,34
 819 88 819 88 754.5 34 c 128,-1,35
 690 -20 690 -20 614 -20 c 0,18,19
198 -20 m 128,-1,37
 122 -20 122 -20 80 34 c 0,38,39
 51 72 51 72 51 124 c 0,40,41
 51 144 51 144 55 165 c 0,42,43
 71 242 71 242 135.5 296 c 128,-1,44
 200 350 200 350 276 350 c 128,-1,45
 352 350 352 350 394 296 c 0,46,47
 423 258 423 258 423 206 c 0,48,49
 423 186 423 186 419 165 c 0,50,51
 403 88 403 88 338.5 34 c 128,-1,36
 274 -20 274 -20 198 -20 c 128,-1,37
EndSplineSet
Validated: 1
EndChar

StartChar: perthousand
Encoding: 8240 8240 119
Width: 2611
GlyphClass: 2
Flags: W
HStem: -20 158<1286.35 1471.99 2056.35 2241.99> 0 21G<647.5 783.542> 539 151<1395.75 1579.78 2165.75 2349.78> 820 158<585.354 770.987> 1379 151<694.745 878.777>
VStem: 360 211<990.119 1238.59> 892 209<1116.93 1367.52> 1061 211<150.119 398.591> 1593 209<276.926 527.517> 1831 211<150.119 398.591> 2363 209<276.926 527.517>
DStem2: 1385 1510 772 0 0.499844 0.866115<-1597.17 -15.6716>
LayerCount: 2
Fore
SplineSet
2135 138 m 0,0,1
 2186 138 2186 138 2239 180 c 0,2,3
 2288 218 2288 218 2324 286 c 0,4,5
 2348 332 2348 332 2357 378 c 0,6,7
 2363 408 2363 408 2363 432 c 128,-1,8
 2363 456 2363 456 2357 476 c 0,9,10
 2338 539 2338 539 2270 539 c 0,11,12
 2221 539 2221 539 2167 497 c 0,13,14
 2121 461 2121 461 2081 391 c 24,15,16
 2058 351 2058 351 2048 299 c 0,17,18
 2042 269 2042 269 2042 245.5 c 128,-1,19
 2042 222 2042 222 2048 201 c 0,20,21
 2067 138 2067 138 2135 138 c 0,0,1
2126 -20 m 0,22,23
 1971 -20 1971 -20 1893 75 c 0,24,25
 1831 150 1831 150 1831 251 c 0,26,27
 1831 291 1831 291 1841 335 c 0,28,29
 1875 495 1875 495 2004 596 c 0,30,31
 2125 690 2125 690 2277 690 c 0,32,33
 2432 690 2432 690 2510 596 c 0,34,35
 2572 520 2572 520 2572 418 c 0,36,37
 2572 379 2572 379 2563 335 c 0,38,39
 2530 179 2530 179 2399 74 c 0,40,41
 2282 -20 2282 -20 2126 -20 c 0,22,23
1365 138 m 0,42,43
 1416 138 1416 138 1469 180 c 0,44,45
 1518 218 1518 218 1554 286 c 0,46,47
 1578 332 1578 332 1587 378 c 0,48,49
 1593 408 1593 408 1593 432 c 128,-1,50
 1593 456 1593 456 1587 476 c 0,51,52
 1568 539 1568 539 1500 539 c 0,53,54
 1451 539 1451 539 1397 497 c 0,55,56
 1351 461 1351 461 1311 391 c 24,57,58
 1288 351 1288 351 1278 299 c 0,59,60
 1272 269 1272 269 1272 245.5 c 128,-1,61
 1272 222 1272 222 1278 201 c 0,62,63
 1297 138 1297 138 1365 138 c 0,42,43
1356 -20 m 0,64,65
 1201 -20 1201 -20 1123 75 c 0,66,67
 1061 150 1061 150 1061 251 c 0,68,69
 1061 291 1061 291 1071 335 c 0,70,71
 1105 495 1105 495 1234 596 c 0,72,73
 1355 690 1355 690 1507 690 c 0,74,75
 1662 690 1662 690 1740 596 c 0,76,77
 1802 520 1802 520 1802 418 c 0,78,79
 1802 379 1802 379 1793 335 c 0,80,81
 1760 179 1760 179 1629 74 c 0,82,83
 1512 -20 1512 -20 1356 -20 c 0,64,65
664 978 m 0,84,85
 715 978 715 978 768 1020 c 0,86,87
 817 1058 817 1058 853 1126 c 0,88,89
 877 1172 877 1172 886 1218 c 0,90,91
 892 1248 892 1248 892 1272 c 128,-1,92
 892 1296 892 1296 886 1316 c 0,93,94
 867 1379 867 1379 799 1379 c 0,95,96
 750 1379 750 1379 696 1337 c 0,97,98
 650 1301 650 1301 610 1231 c 24,99,100
 587 1191 587 1191 577 1139 c 0,101,102
 571 1109 571 1109 571 1085.5 c 128,-1,103
 571 1062 571 1062 577 1041 c 0,104,105
 596 978 596 978 664 978 c 0,84,85
674 0 m 1,106,107
 621 32 621 32 621 106 c 0,108,109
 621 133 621 133 628 165 c 0,110,111
 642 222 642 222 674 278 c 2,112,-1
 1385 1510 l 1,113,-1
 1484 1510 l 1,114,115
 1537 1478 1537 1478 1537 1405 c 0,116,117
 1537 1379 1537 1379 1530 1347 c 0,118,119
 1516 1290 1516 1290 1483 1232 c 2,120,-1
 772 0 l 1,121,-1
 674 0 l 1,106,107
806 1530 m 0,122,123
 961 1530 961 1530 1039 1436 c 0,124,125
 1101 1360 1101 1360 1101 1258 c 0,126,127
 1101 1219 1101 1219 1092 1175 c 0,128,129
 1059 1019 1059 1019 928 914 c 0,130,131
 811 820 811 820 655 820 c 0,132,133
 500 820 500 820 422 915 c 0,134,135
 360 990 360 990 360 1091 c 0,136,137
 360 1131 360 1131 370 1175 c 0,138,139
 404 1335 404 1335 533 1436 c 0,140,141
 654 1530 654 1530 806 1530 c 0,122,123
EndSplineSet
Validated: 1
EndChar

StartChar: minute
Encoding: 8242 8242 120
Width: 388
GlyphClass: 2
Flags: W
HStem: 1137 442
VStem: 273 413
LayerCount: 2
Fore
SplineSet
462 1579 m 1,0,-1
 686 1498 l 1,1,2
 577 1283 577 1283 423 1137 c 1,3,-1
 273 1190 l 1,4,5
 397 1363 397 1363 462 1579 c 1,0,-1
EndSplineSet
Validated: 1
EndChar

StartChar: second
Encoding: 8243 8243 121
Width: 715
GlyphClass: 2
Flags: W
HStem: 1137 442
LayerCount: 2
Fore
SplineSet
789 1579 m 1,0,-1
 1013 1498 l 1,1,2
 904 1283 904 1283 750 1137 c 1,3,-1
 600 1190 l 1,4,5
 724 1363 724 1363 789 1579 c 1,0,-1
462 1579 m 1,6,-1
 686 1498 l 1,7,8
 577 1283 577 1283 423 1137 c 1,9,-1
 273 1190 l 1,10,11
 397 1363 397 1363 462 1579 c 1,6,-1
EndSplineSet
Validated: 1
EndChar

StartChar: guilsinglleft
Encoding: 8249 8249 122
Width: 767
GlyphClass: 2
Flags: W
VStem: 276 564
DStem2: 497 726 288 668 0.436334 -0.899785<0 396.936> 376 902 497 726 0.674536 0.738242<-48.3118 501.514>
LayerCount: 2
Fore
SplineSet
736 1296 m 1,0,-1
 831 1268 l 1,1,2
 840 1243 840 1243 840 1211 c 0,3,4
 840 1189 840 1189 836 1164 c 0,5,6
 821 1083 821 1083 754 1009 c 2,7,-1
 497 726 l 1,8,-1
 674 361 l 1,9,-1
 602 286 l 1,10,11
 587 283 587 283 573 283 c 0,12,13
 478 283 478 283 419 402 c 2,14,-1
 288 668 l 2,15,16
 276 693 276 693 276 721 c 0,17,18
 276 744 276 744 284 770 c 0,19,20
 301 820 301 820 376 902 c 2,21,-1
 736 1296 l 1,0,-1
EndSplineSet
Validated: 1
EndChar

StartChar: guilsinglright
Encoding: 8250 8250 123
Width: 767
GlyphClass: 2
Flags: W
VStem: 263 564
DStem2: 684 1177 429 1218 0.436334 -0.899785<-141.605 257.496> 606 853 367 283 0.674536 0.738242<-549.826 0>
LayerCount: 2
Fore
SplineSet
367 283 m 1,0,-1
 272 311 l 1,1,2
 263 336 263 336 263 368 c 0,3,4
 263 390 263 390 267 415 c 0,5,6
 282 496 282 496 349 570 c 2,7,-1
 606 853 l 1,8,-1
 429 1218 l 1,9,-1
 501 1293 l 1,10,11
 516 1296 516 1296 530 1296 c 0,12,13
 625 1296 625 1296 684 1177 c 2,14,-1
 815 911 l 2,15,16
 827 886 827 886 827 858 c 0,17,18
 827 835 827 835 819 809 c 0,19,20
 802 759 802 759 727 677 c 2,21,-1
 367 283 l 1,0,-1
EndSplineSet
Validated: 1
EndChar

StartChar: fraction
Encoding: 8260 8260 124
Width: 791
GlyphClass: 2
Flags: W
HStem: 0 21G<124.5 260.542>
DStem2: 862 1510 249 0 0.499844 0.866115<-1597.17 -15.6716>
LayerCount: 2
Fore
SplineSet
151 0 m 1,0,1
 98 32 98 32 98 106 c 0,2,3
 98 133 98 133 105 165 c 0,4,5
 116 218 116 218 151 278 c 2,6,-1
 862 1510 l 1,7,-1
 961 1510 l 1,8,9
 1014 1478 1014 1478 1014 1405 c 0,10,11
 1014 1379 1014 1379 1007 1347 c 0,12,13
 996 1295 996 1295 960 1232 c 2,14,-1
 249 0 l 1,15,-1
 151 0 l 1,0,1
EndSplineSet
Validated: 1
EndChar

StartChar: Euro
Encoding: 8364 8364 125
Width: 1812
GlyphClass: 2
Flags: W
HStem: -20 180<809.436 1202.9> 586 150<195.088 354 702 1242.47> 807 150<242.088 387 801 1289.47> 1348 182<1191.63 1587.26>
VStem: 354 310<342.895 586>
LayerCount: 2
Fore
SplineSet
1031 -20 m 0,0,1
 686 -20 686 -20 495 191 c 0,2,3
 354 346 354 346 354 586 c 1,4,-1
 162 586 l 1,5,-1
 156 639 l 1,6,7
 209 736 209 736 302 736 c 2,8,-1
 371 736 l 1,9,-1
 387 807 l 1,10,-1
 209 807 l 1,11,-1
 203 860 l 1,12,13
 256 957 256 957 349 957 c 2,14,-1
 439 957 l 1,15,16
 536 1173 536 1173 734 1319 c 0,17,18
 1020 1530 1020 1530 1361 1530 c 0,19,20
 1705 1530 1705 1530 1898 1319 c 1,21,-1
 1730 1014 l 1,22,23
 1702 1348 1702 1348 1410 1348 c 0,24,25
 1232 1348 1232 1348 1072 1239 c 0,26,27
 902 1123 902 1123 801 957 c 1,28,-1
 1323 957 l 1,29,-1
 1329 904 l 1,30,31
 1275 807 1275 807 1183 807 c 2,32,-1
 727 807 l 1,33,34
 714 772 714 772 702 736 c 1,35,-1
 1276 736 l 1,36,-1
 1282 683 l 1,37,38
 1228 586 1228 586 1136 586 c 2,39,-1
 669 586 l 1,40,41
 664 539 664 539 664 498 c 0,42,43
 664 404 664 404 690 342 c 0,44,45
 768 160 768 160 983 160 c 0,46,47
 1200 160 1200 160 1382 319 c 1,48,-1
 1687 213 l 1,49,50
 1378 -20 1378 -20 1031 -20 c 0,0,1
EndSplineSet
Validated: 1
EndChar

StartChar: afii61248
Encoding: 8453 8453 126
Width: 2200
GlyphClass: 2
Flags: W
HStem: -20 130<1518.49 1773.73> 0 21G<787.5 923.542> 664 130<1687.47 1943.01> 716 130<581.935 831.654> 1400 130<747.285 1015.41>
VStem: 348 195<883.858 1179.58> 1289 193<145.562 439.368> 1978 195<330.418 630.705>
DStem2: 1525 1510 912 0 0.499844 0.866115<-1597.17 -15.6716>
LayerCount: 2
Fore
SplineSet
1630 110 m 0,0,1
 1709 110 1709 110 1792 166 c 0,2,3
 1938 266 1938 266 1971 444 c 0,4,5
 1978 481 1978 481 1978 512 c 0,6,7
 1978 553 1978 553 1966 582 c 0,8,9
 1934 664 1934 664 1831 664 c 0,10,11
 1752 664 1752 664 1669 608 c 0,12,13
 1529 512 1529 512 1490 330 c 16,14,15
 1482 294 1482 294 1482 263 c 0,16,17
 1482 223 1482 223 1495 192 c 0,18,19
 1527 110 1527 110 1630 110 c 0,0,1
814 0 m 1,20,21
 761 32 761 32 761 106 c 0,22,23
 761 133 761 133 768 165 c 0,24,25
 779 218 779 218 814 278 c 2,26,-1
 1525 1510 l 1,27,-1
 1624 1510 l 1,28,29
 1677 1478 1677 1478 1677 1405 c 0,30,31
 1677 1379 1677 1379 1670 1347 c 0,32,33
 1659 1295 1659 1295 1623 1232 c 2,34,-1
 912 0 l 1,35,-1
 814 0 l 1,20,21
1644 -20 m 0,36,37
 1464 -20 1464 -20 1362 92 c 0,38,39
 1289 172 1289 172 1289 291 c 0,40,41
 1289 337 1289 337 1300 388 c 0,42,43
 1339 573 1339 573 1489 683.5 c 128,-1,44
 1639 794 1639 794 1818 794 c 0,45,46
 1998 794 1998 794 2100 682 c 0,47,48
 2173 602 2173 602 2173 483 c 0,49,50
 2173 437 2173 437 2162 386 c 0,51,52
 2123 201 2123 201 1972 90 c 0,53,54
 1822 -20 1822 -20 1644 -20 c 0,36,37
877 1530 m 0,55,56
 1056 1530 1056 1530 1165 1411 c 1,57,-1
 1064 1228 l 1,58,59
 1052 1400 1052 1400 893 1400 c 0,60,61
 812 1400 812 1400 729 1344 c 0,62,63
 583 1244 583 1244 550 1066 c 0,64,65
 543 1029 543 1029 543 999 c 0,66,67
 543 957 543 957 556 928 c 0,68,69
 593 846 593 846 694 846 c 0,70,71
 788 846 788 846 881 928 c 1,72,-1
 1076 860 l 1,73,74
 904 716 904 716 703 716 c 0,75,76
 523 716 523 716 421 828 c 0,77,78
 348 908 348 908 348 1027 c 0,79,80
 348 1073 348 1073 359 1124 c 0,81,82
 398 1309 398 1309 549 1420 c 0,83,84
 699 1530 699 1530 877 1530 c 0,55,56
EndSplineSet
Validated: 1
EndChar

StartChar: afii61289
Encoding: 8467 8467 127
Width: 1267
GlyphClass: 2
Flags: W
HStem: -20 236<642 810.645> 0 21G<120 500.364> 1510 20G<1139.5 1237>
LayerCount: 2
Fore
SplineSet
696 -20 m 0,0,1
 588 -20 588 -20 520 44 c 1,2,-1
 484 0 l 1,3,-1
 120 0 l 1,4,5
 316 162 316 162 454 325 c 1,6,7
 463 420 463 420 485 524 c 0,8,9
 519 686 519 686 605 865 c 0,10,11
 783 1240 783 1240 973 1423 c 0,12,13
 1084 1530 1084 1530 1195 1530 c 0,14,15
 1279 1530 1279 1530 1319 1480 c 0,16,17
 1351 1439 1351 1439 1351 1371 c 0,18,19
 1351 1331 1351 1331 1340 1281 c 0,20,21
 1320 1186 1320 1186 1260 1041 c 0,22,23
 1115 688 1115 688 744 272 c 1,24,25
 741 254 741 254 741 242 c 0,26,27
 741 216 741 216 755 216 c 0,28,29
 776 216 776 216 810 260 c 0,30,31
 831 286 831 286 849 319 c 1,32,-1
 1165 319 l 1,33,34
 1035 144 1035 144 920.5 62 c 128,-1,35
 806 -20 806 -20 696 -20 c 0,0,1
EndSplineSet
Validated: 1
EndChar

StartChar: trademark
Encoding: 8482 8482 128
Width: 2372
GlyphClass: 2
Flags: W
HStem: 726 127<568.828 674 676 808.645> 746 130<1294.04 1414 1980 2109.96> 1400 130<413.645 540 722.902 1168.76> 1429 111<1461.22 1693.97 2023 2282.26>
VStem: 333 195<892.473 1182.71> 1060 195<912.358 1208.31> 1624 181<774 842.013> 2315 190<1097.81 1391.19>
DStem2: 1594.07 726 1794.07 726 0.207912 0.978148<126.107 605.838>
LayerCount: 2
Fore
SplineSet
1712 745 m 1,0,1
 1624 767 1624 767 1624 848 c 0,2,3
 1624 866 1624 866 1629 888 c 2,4,-1
 1691 1182 l 2,5,6
 1711 1275 1711 1275 1711 1322 c 0,7,8
 1711 1340 1711 1340 1708 1351 c 0,9,10
 1691 1429 1691 1429 1608 1429 c 0,11,12
 1526 1429 1526 1429 1444 1374 c 0,13,14
 1295 1274 1295 1274 1262 1091 c 0,15,16
 1255 1052 1255 1052 1255 1021 c 0,17,18
 1255 983 1255 983 1266 958 c 0,19,20
 1303 876 1303 876 1414 876 c 1,21,-1
 1431 746 l 1,22,23
 1247 746 1247 746 1139 855 c 0,24,25
 1060 935 1060 935 1060 1054 c 0,26,27
 1060 1096 1060 1096 1070 1144 c 0,28,29
 1109 1326 1109 1326 1258.5 1433 c 128,-1,30
 1408 1540 1408 1540 1583 1540 c 128,-1,31
 1758 1540 1758 1540 1842 1437 c 1,32,33
 1980 1540 1980 1540 2156 1540 c 128,-1,34
 2332 1540 2332 1540 2432 1429 c 0,35,36
 2505 1348 2505 1348 2505 1232 c 0,37,38
 2504 1189 2504 1189 2494 1141 c 0,39,40
 2456 964 2456 964 2307.5 855 c 128,-1,41
 2159 746 2159 746 1980 746 c 1,42,-1
 1963 876 l 1,43,44
 2041 876 2041 876 2124 929 c 0,45,46
 2272 1023 2272 1023 2308 1212 c 0,47,48
 2315 1249 2315 1249 2315 1279 c 0,49,50
 2315 1319 2315 1319 2303 1349 c 0,51,52
 2270 1429 2270 1429 2175 1429 c 0,53,54
 2086 1429 2086 1429 2015 1380 c 0,55,56
 1919 1313 1919 1313 1891 1182 c 2,57,-1
 1805 774 l 1,58,-1
 1712 745 l 1,0,1
688 726 m 0,59,60
 508 726 508 726 407 838 c 0,61,62
 333 920 333 920 333 1035 c 0,63,64
 333 1077 333 1077 343 1123 c 0,65,66
 378 1287 378 1287 540 1400 c 1,67,-1
 444 1400 l 2,68,69
 409 1400 409 1400 366 1346 c 1,70,-1
 336 1346 l 1,71,-1
 410 1480 l 2,72,73
 438 1530 438 1530 503 1530 c 2,74,-1
 1139 1530 l 2,75,76
 1174 1530 1174 1530 1217 1586 c 1,77,-1
 1247 1586 l 1,78,-1
 1174 1452 l 2,79,80
 1146 1400 1146 1400 1080 1400 c 2,81,-1
 878 1400 l 2,82,83
 792 1400 792 1400 713 1349 c 0,84,85
 633 1297 633 1297 593 1224 c 0,86,87
 547 1141 547 1141 535 1078 c 0,88,89
 528 1041 528 1041 528 1010 c 0,90,91
 528 968 528 968 541 938 c 0,92,93
 579 853 579 853 674 853 c 0,94,-1
 676 854 l 0,95,96
 772 854 772 854 866 938 c 1,97,-1
 1061 870 l 1,98,99
 884 726 884 726 688 726 c 0,59,60
EndSplineSet
Validated: 1
EndChar

StartChar: uni2126
Encoding: 8486 8486 129
Width: 1986
GlyphClass: 2
Flags: W
HStem: 0 198<225.01 497 728.085 792 1520 1802.99> 1348 182<1149.73 1547.54>
VStem: 314 301<390.797 739.989> 1689 307<762.026 1165.93>
LayerCount: 2
Fore
SplineSet
792 0 m 1,0,-1
 208 0 l 2,1,2
 96 0 96 0 91 98 c 1,3,-1
 220 334 l 1,4,-1
 252 324 l 1,5,6
 234 285 234 285 227 251 c 0,7,8
 225 241 225 241 225 234 c 0,9,10
 225 198 225 198 266 198 c 2,11,-1
 497 198 l 1,12,13
 314 370 314 370 314 607 c 0,14,15
 314 678 314 678 330 755 c 0,16,17
 405 1109 405 1109 690 1319 c 0,18,19
 976 1530 976 1530 1317 1530 c 0,20,21
 1668 1530 1668 1530 1854 1319 c 0,22,23
 1996 1158 1996 1158 1996 933 c 0,24,25
 1996 849 1996 849 1976 755 c 0,26,27
 1897 383 1897 383 1520 198 c 1,28,-1
 1820 198 l 2,29,30
 1932 198 1932 198 1937 100 c 1,31,-1
 1808 -136 l 1,32,-1
 1776 -126 l 1,33,34
 1794 -87 1794 -87 1801 -53 c 0,35,36
 1803 -43 1803 -43 1803 -36 c 0,37,38
 1803 0 1803 0 1762 0 c 2,39,-1
 1127 0 l 1,40,-1
 1236 198 l 1,41,42
 1435 332 1435 332 1570 586 c 0,43,44
 1643 724 1643 724 1675 874 c 24,45,46
 1689 940 1689 940 1689 1014 c 0,47,48
 1689 1101 1689 1101 1663 1166 c 0,49,50
 1588 1348 1588 1348 1368 1348 c 0,51,52
 1193 1348 1193 1348 1032 1240 c 0,53,54
 843 1114 843 1114 737 921 c 0,55,56
 662 785 662 785 631 631 c 0,57,58
 615 549 615 549 615 483 c 0,59,60
 615 399 615 399 641 343 c 0,61,62
 709 198 709 198 901 198 c 1,63,-1
 792 0 l 1,0,-1
EndSplineSet
Validated: 1
EndChar

StartChar: estimated
Encoding: 8494 8494 130
Width: 1261
GlyphClass: 2
Flags: W
HStem: -20 183<494.071 854.178> 491 189<548 1000> 935 185<639.618 998.502>
LayerCount: 2
Fore
SplineSet
625 -20 m 0,0,1
 374 -20 374 -20 255 145 c 0,2,3
 172 260 172 260 172 412 c 0,4,5
 172 479 172 479 188 553 c 0,6,7
 241 802 241 802 430 960 c 0,8,9
 622 1120 622 1120 864 1120 c 0,10,11
 1107 1120 1107 1120 1224 974 c 0,12,13
 1316 858 1316 858 1316 679 c 0,14,15
 1316 593 1316 593 1295 491 c 1,16,-1
 507 491 l 1,17,-1
 454 239 l 1,18,19
 533 163 533 163 664 163 c 0,20,21
 872 163 872 163 1030 351 c 1,22,-1
 1173 255 l 1,23,24
 1013 85 1013 85 883 32.5 c 128,-1,25
 753 -20 753 -20 625 -20 c 0,0,1
1000 680 m 1,26,-1
 1038 862 l 1,27,28
 956 935 956 935 826 935 c 0,29,30
 694 935 694 935 586 861 c 1,31,-1
 548 680 l 1,32,-1
 1000 680 l 1,26,-1
EndSplineSet
Validated: 1
EndChar

StartChar: partialdiff
Encoding: 8706 8706 131
Width: 1345
GlyphClass: 2
Flags: W
HStem: -20 273<528.171 740.08> 823 260<752.537 995.899> 1257 273<791.982 1096.06>
VStem: 193 317<275.435 519.417> 1140 310<1024.77 1213.04>
LayerCount: 2
Fore
SplineSet
538 -20 m 0,0,1
 268 -20 268 -20 209 171 c 0,2,3
 193 223 193 223 193 285 c 0,4,5
 193 345 193 345 208 416 c 0,6,7
 263 673 263 673 460.5 878 c 128,-1,8
 658 1083 658 1083 930 1083 c 0,9,10
 1049 1083 1049 1083 1134 1024 c 1,11,12
 1140 1059 1140 1059 1140 1089 c 0,13,14
 1140 1138 1140 1138 1124 1173 c 0,15,16
 1085 1257 1085 1257 963 1257 c 0,17,18
 808 1257 808 1257 631 1132 c 1,19,-1
 697 1443 l 1,20,21
 861 1530 861 1530 1058 1530 c 0,22,23
 1375 1530 1375 1530 1436 1271 c 0,24,25
 1450 1213 1450 1213 1450 1145 c 0,26,27
 1450 1057 1450 1057 1427 950 c 0,28,29
 1345 563 1345 563 1100 272 c 0,30,31
 857 -20 857 -20 538 -20 c 0,0,1
1038 699 m 1,32,33
 1029 756 1029 756 992 788 c 0,34,35
 952 823 952 823 885 823 c 0,36,37
 776 823 776 823 670 706 c 0,38,39
 545 567 545 567 517 431 c 0,40,41
 510 396 510 396 510 367 c 0,42,43
 510 324 510 324 526 295 c 0,44,45
 549 253 549 253 609 253 c 0,46,47
 716 253 716 253 837 376 c 128,-1,48
 958 499 958 499 1038 699 c 1,32,33
EndSplineSet
Validated: 1
EndChar

StartChar: uni2206
Encoding: 8710 8710 132
Width: 1624
GlyphClass: 2
Flags: W
HStem: 0 172<341 1288> 1510 20G<1134.52 1361.5>
LayerCount: 2
Fore
SplineSet
341 172 m 1,0,-1
 1288 174 l 1,1,2
 1237 726 1237 726 1005 1213 c 1,3,4
 580 675 580 675 341 172 c 1,0,-1
5 0 m 1,5,6
 390 809 390 809 896 1427 c 1,7,-1
 1192 1530 l 1,8,9
 1531 833 1531 833 1619 0 c 1,10,-1
 5 0 l 1,5,6
EndSplineSet
Validated: 1
EndChar

StartChar: product
Encoding: 8719 8719 133
Width: 1609
GlyphClass: 2
Flags: W
HStem: -430 21G<194 328.556 1143.5 1277.56> 1360 174<779 1408>
VStem: 496 1269<265 1534>
DStem2: 78.5389 -430 398.524 -430 0.207912 0.978148<182.378 1896.52> 1027.52 -430 1347.54 -430 0.207912 0.978148<185.492 1829.99>
LayerCount: 2
Fore
SplineSet
265 -430 m 1,0,1
 123 -389 123 -389 123 -254 c 0,2,3
 123 -222 123 -222 131 -185 c 2,4,-1
 496 1534 l 1,5,-1
 1765 1534 l 1,6,-1
 1357 -385 l 1,7,-1
 1214 -430 l 1,8,9
 1073 -384 1073 -384 1073 -251 c 0,10,11
 1073 -220 1073 -220 1080 -185 c 2,12,-1
 1408 1360 l 1,13,-1
 779 1360 l 1,14,-1
 408 -385 l 1,15,-1
 265 -430 l 1,0,1
EndSplineSet
Validated: 1
EndChar

StartChar: summation
Encoding: 8721 8721 134
Width: 1350
GlyphClass: 2
Flags: W
HStem: -410 179<466 1152.68> 1331 179<703 1384.75>
VStem: 414 289<966.523 1331>
LayerCount: 2
Fore
SplineSet
77 -410 m 1,0,-1
 60 -281 l 1,1,2
 483 123 483 123 637 509 c 1,3,4
 414 878 414 878 414 1381 c 1,5,-1
 484 1510 l 1,6,-1
 1277 1510 l 2,7,8
 1434 1510 1434 1510 1445 1414 c 10,9,-1
 1468 1220 l 1,10,-1
 1438 1220 l 1,11,12
 1382 1331 1382 1331 1246 1331 c 2,13,14
 703 1331 l 1,15,16
 703 863 703 863 953 516 c 1,17,18
 810 89 810 89 466 -231 c 1,19,-1
 1035 -231 l 2,20,21
 1174 -231 1174 -231 1274 -120 c 1,22,-1
 1304 -120 l 1,23,-1
 1198 -314 l 2,24,25
 1146 -410 1146 -410 990 -410 c 2,26,-1
 77 -410 l 1,0,-1
EndSplineSet
Validated: 1
EndChar

StartChar: uni2215
Encoding: 8725 8725 135
Width: 791
GlyphClass: 2
Flags: W
HStem: 0 21G<124.5 260.542>
DStem2: 862 1510 249 0 0.499844 0.866115<-1597.17 -15.6716>
LayerCount: 2
Fore
SplineSet
151 0 m 1,0,1
 98 32 98 32 98 106 c 0,2,3
 98 133 98 133 105 165 c 0,4,5
 116 218 116 218 151 278 c 2,6,-1
 862 1510 l 1,7,-1
 961 1510 l 1,8,9
 1014 1478 1014 1478 1014 1405 c 0,10,11
 1014 1379 1014 1379 1007 1347 c 0,12,13
 996 1295 996 1295 960 1232 c 2,14,-1
 249 0 l 1,15,-1
 151 0 l 1,0,1
EndSplineSet
Validated: 1
EndChar

StartChar: uni2219
Encoding: 8729 8729 136
Width: 404
GlyphClass: 2
Flags: W
HStem: 569 370<273.356 451.305>
VStem: 176 372<664.783 843.217>
LayerCount: 2
Fore
SplineSet
402 939 m 128,-1,1
 478 939 478 939 520 885 c 0,2,3
 548 849 548 849 548 796 c 0,4,5
 548 773 548 773 544 754 c 0,6,7
 528 677 528 677 463.5 623 c 128,-1,8
 399 569 399 569 323 569 c 0,9,10
 248 569 248 569 206 623 c 0,11,12
 176 662 176 662 176 712 c 0,13,14
 176 732 176 732 180 754 c 0,15,16
 196 831 196 831 261 885 c 128,-1,0
 326 939 326 939 402 939 c 128,-1,1
EndSplineSet
Validated: 1
EndChar

StartChar: radical
Encoding: 8730 8730 137
Width: 1441
GlyphClass: 2
Flags: W
HStem: -20 21G<500.5 589.333> 658 34<133.735 178.592> 1510 20G<1500 1595.25>
LayerCount: 2
Fore
SplineSet
530 -20 m 1,0,1
 471 4 471 4 462 67 c 0,2,3
 420 383 420 383 294 621 c 0,4,5
 270 667 270 667 210 667 c 0,6,7
 172 667 172 667 135 658 c 1,8,-1
 132 692 l 1,9,-1
 457 792 l 1,10,11
 546 779 546 779 587 705 c 0,12,13
 674 545 674 545 704 342 c 1,14,15
 975 965 975 965 1405 1446 c 0,16,17
 1461 1509 1461 1509 1539 1530 c 1,18,-1
 1764 1450 l 1,19,-1
 1747 1416 l 1,20,21
 1714 1425 1714 1425 1676 1425 c 0,22,23
 1613 1425 1613 1425 1572 1379 c 0,24,25
 1153 897 1153 897 797 70 c 1,26,-1
 530 -20 l 1,0,1
EndSplineSet
Validated: 1
EndChar

StartChar: infinity
Encoding: 8734 8734 138
Width: 1496
GlyphClass: 2
Flags: W
HStem: 384 173<499.516 684.365 1023.61 1208.22> 958 166<609.754 793.473 1132.54 1316.9>
VStem: 271 215<568.059 818.896> 807 202<694.558 818.617> 1330 216<696.213 946.441>
LayerCount: 2
Fore
SplineSet
1102 557 m 0,0,1
 1153 557 1153 557 1206 599 c 0,2,3
 1255 637 1255 637 1291 705 c 0,4,5
 1315 751 1315 751 1324 797 c 0,6,7
 1330 827 1330 827 1330 851 c 128,-1,8
 1330 875 1330 875 1324 895 c 0,9,10
 1305 958 1305 958 1237 958 c 0,11,12
 1188 958 1188 958 1134 916 c 0,13,14
 1088 880 1088 880 1048 810 c 24,15,16
 1025 770 1025 770 1015 718 c 0,17,18
 1009 688 1009 688 1009 664.5 c 128,-1,19
 1009 641 1009 641 1015 620 c 0,20,21
 1034 557 1034 557 1102 557 c 0,0,1
579 557 m 0,22,23
 630 557 630 557 683 599 c 0,24,25
 732 637 732 637 768 705 c 0,26,27
 792 751 792 751 801 797 c 0,28,29
 807 827 807 827 807 851 c 128,-1,30
 807 875 807 875 801 895 c 0,31,32
 782 958 782 958 714 958 c 0,33,34
 665 958 665 958 611 916 c 0,35,36
 565 880 565 880 525 810 c 24,37,38
 502 770 502 770 492 718 c 0,39,40
 486 688 486 688 486 664.5 c 128,-1,41
 486 641 486 641 492 620 c 0,42,43
 511 557 511 557 579 557 c 0,22,23
727 1124 m 0,44,45
 875 1124 875 1124 963 1010 c 1,46,47
 1099 1124 1099 1124 1249 1124 c 0,48,49
 1402 1124 1402 1124 1486 1016 c 0,50,51
 1546 938 1546 938 1546 837 c 0,52,53
 1546 797 1546 797 1536 754 c 0,54,55
 1504 600 1504 600 1374 492 c 128,-1,56
 1244 384 1244 384 1092 384 c 0,57,58
 942 384 942 384 854 498 c 1,59,60
 718 384 718 384 567 384 c 128,-1,61
 416 384 416 384 332 492 c 0,62,63
 271 571 271 571 271 671 c 0,64,65
 271 712 271 712 280 754 c 0,66,67
 312 908 312 908 443.5 1016 c 128,-1,68
 575 1124 575 1124 727 1124 c 0,44,45
EndSplineSet
Validated: 1
EndChar

StartChar: approxequal
Encoding: 8776 8776 139
Width: 1307
GlyphClass: 2
Flags: W
HStem: 272 237<808.275 1078.68> 518 237<444.129 714.473> 721 237<903.885 1174.55> 967 237<540.026 809.873>
LayerCount: 2
Fore
SplineSet
1342 727 m 1,0,-1
 1130 340 l 1,1,2
 1020 272 1020 272 913 272 c 0,3,4
 787 272 787 272 727 443 c 2,5,-1
 722 459 l 2,6,7
 702 518 702 518 624 518 c 256,8,9
 414 518 414 518 256 300 c 1,10,-1
 184 300 l 1,11,-1
 396 688 l 1,12,13
 497 755 497 755 608 755 c 0,14,15
 736 755 736 755 799 577 c 2,16,-1
 804 561 l 2,17,18
 822 509 822 509 899 509 c 256,19,20
 1108 509 1108 509 1270 727 c 1,21,-1
 1342 727 l 1,0,-1
1437 1176 m 1,22,-1
 1226 789 l 1,23,24
 1116 721 1116 721 1008 721 c 0,25,26
 882 721 882 721 823 892 c 2,27,-1
 817 908 l 2,28,29
 797 967 797 967 720 967 c 256,30,31
 510 967 510 967 351 749 c 1,32,-1
 279 749 l 1,33,-1
 492 1137 l 1,34,35
 593 1204 593 1204 704 1204 c 0,36,37
 832 1204 832 1204 894 1026 c 2,38,-1
 900 1010 l 2,39,40
 918 958 918 958 995 958 c 256,41,42
 1204 958 1204 958 1365 1176 c 1,43,-1
 1437 1176 l 1,22,-1
EndSplineSet
Validated: 1
EndChar

StartChar: notequal
Encoding: 8800 8800 140
Width: 1219
GlyphClass: 2
Flags: W
HStem: 438 211<301.961 510 791 1151.42> 840 211<386.961 743 1023 1236.59>
DStem2: 510 438 533 201 0.499616 0.866247<-170.676 0 323.17 464.642 787.312 960.72>
LayerCount: 2
Fore
SplineSet
1002 1291 m 1,0,-1
 1058 1291 l 1,1,2
 1095 1254 1095 1254 1095 1210 c 0,3,4
 1095 1199 1095 1199 1093 1187 c 0,5,6
 1088 1163 1088 1163 1074 1137 c 2,7,-1
 1023 1051 l 1,8,-1
 1295 1051 l 1,9,-1
 1304 966 l 1,10,11
 1245 840 1245 840 1068 840 c 2,12,-1
 902 840 l 1,13,-1
 791 649 l 1,14,-1
 1210 649 l 1,15,-1
 1219 564 l 1,16,17
 1160 438 1160 438 982 438 c 2,18,-1
 669 438 l 1,19,-1
 533 201 l 1,20,-1
 477 201 l 1,21,22
 440 237 440 237 440 281 c 0,23,24
 440 292 440 292 442 304 c 0,25,26
 447 327 447 327 461 353 c 2,27,-1
 510 438 l 1,28,-1
 239 438 l 1,29,-1
 231 520 l 1,30,31
 290 649 290 649 468 649 c 2,32,-1
 632 649 l 1,33,-1
 743 840 l 1,34,-1
 325 840 l 1,35,-1
 316 922 l 1,36,37
 375 1051 375 1051 553 1051 c 2,38,-1
 864 1051 l 1,39,-1
 1002 1291 l 1,0,-1
EndSplineSet
Validated: 1
EndChar

StartChar: lessequal
Encoding: 8804 8804 141
Width: 1311
GlyphClass: 2
Flags: W
HStem: 118 211<233.961 1083.42>
DStem2: 694 872 295 822 0.888486 -0.458904<0 526.951> 505 1033 694 872 0.920594 0.390522<111.118 876.84>
LayerCount: 2
Fore
SplineSet
1356 1394 m 1,0,-1
 1419 1308 l 1,1,2
 1391 1159 1391 1159 1230 1093 c 2,3,-1
 694 872 l 1,4,-1
 1267 588 l 1,5,-1
 1242 513 l 1,6,7
 1184 467 1184 467 1081 467 c 0,8,9
 982 467 982 467 901 509 c 2,10,-1
 295 822 l 1,11,12
 323 956 323 956 505 1033 c 2,13,-1
 1356 1394 l 1,0,-1
1142 329 m 1,14,-1
 1151 244 l 1,15,16
 1092 118 1092 118 914 118 c 2,17,-1
 171 118 l 1,18,-1
 163 200 l 1,19,20
 222 329 222 329 400 329 c 2,21,-1
 1142 329 l 1,14,-1
EndSplineSet
Validated: 1
EndChar

StartChar: greaterequal
Encoding: 8805 8805 142
Width: 1311
GlyphClass: 2
Flags: W
HStem: 118 211<283.961 1133.42>
DStem2: 801 1330 435 1251 0.888486 -0.458904<-176.452 350.499> 472 746 346 445 0.920594 0.390522<-174.876 579.744>
LayerCount: 2
Fore
SplineSet
346 445 m 1,0,-1
 283 531 l 1,1,2
 311 680 311 680 472 746 c 2,3,-1
 1008 967 l 1,4,-1
 435 1251 l 1,5,-1
 460 1326 l 1,6,7
 518 1372 518 1372 621 1372 c 0,8,9
 720 1372 720 1372 801 1330 c 2,10,-1
 1407 1017 l 1,11,12
 1379 883 1379 883 1197 806 c 2,13,-1
 346 445 l 1,0,-1
1192 329 m 1,14,-1
 1201 244 l 1,15,16
 1142 118 1142 118 964 118 c 2,17,-1
 221 118 l 1,18,-1
 213 200 l 1,19,20
 272 329 272 329 450 329 c 2,21,-1
 1192 329 l 1,14,-1
EndSplineSet
Validated: 1
EndChar

StartChar: lozenge
Encoding: 9674 9674 143
Width: 1198
GlyphClass: 2
Flags: W
HStem: -20 21G<585.29 613.16> 1510 20G<906.399 933.176>
DStem2: 227 738 508 771 0.660649 0.750695<210.415 666.759> 508 771 227 738 0.436739 -0.899588<0 452.144> 707 365 595 -20 0.672237 0.740336<0 449.148> 924 1530 809 1114 0.417012 -0.908901<330.147 785.931>
LayerCount: 2
Fore
SplineSet
707 365 m 1,0,-1
 1004 702 l 1,1,-1
 809 1114 l 1,2,-1
 508 771 l 1,3,-1
 707 365 l 1,0,-1
595 -20 m 1,4,-1
 227 738 l 1,5,-1
 924 1530 l 1,6,-1
 1286 741 l 1,7,-1
 595 -20 l 1,4,-1
EndSplineSet
Validated: 1
EndChar

StartChar: four
Encoding: 52 52 144
Width: 1268
Flags: W
HStem: -20 21G<896.5 1027.82> 334 177<511 858 1206 1260> 1100 20G<1090.18 1221.5>
DStem2: 783.136 -20 1092.75 -20 0.207912 0.978148<178.402 361.829 607.315 1051.4>
LayerCount: 2
Fore
SplineSet
966 -20 m 1,0,1
 827 16 827 16 827 152 c 0,2,3
 827 186 827 186 835 224 c 2,4,-1
 858 334 l 1,5,-1
 126 334 l 1,6,-1
 109 464 l 1,7,8
 574 882 574 882 821 1440 c 1,9,-1
 1176 1550 l 1,10,11
 898 863 898 863 511 511 c 1,12,-1
 896 511 l 1,13,-1
 1016 1076 l 1,14,-1
 1152 1120 l 1,15,16
 1291 1084 1291 1084 1291 948 c 0,17,18
 1291 914 1291 914 1283 876 c 2,19,-1
 1206 511 l 1,20,-1
 1357 511 l 1,21,-1
 1260 334 l 1,22,-1
 1168 334 l 1,23,-1
 1102 24 l 1,24,-1
 966 -20 l 1,0,1
EndSplineSet
Validated: 1
EndChar

StartChar: ampersand
Encoding: 38 38 145
Width: 1847
Flags: W
HStem: -20 180<649.398 1074.27> 74 34<1832.4 1876.26> 623 178<571 1019.48> 1348 182<1040.27 1462.1>
VStem: 210 295<341.057 622.683>
LayerCount: 2
Fore
SplineSet
888 -20 m 0,0,1
 542 -20 542 -20 351 191 c 0,2,3
 210 347 210 347 210 574 c 0,4,5
 210 659 210 659 230 755 c 0,6,7
 305 1109 305 1109 590 1319 c 0,8,9
 876 1530 876 1530 1217 1530 c 0,10,11
 1563 1530 1563 1530 1756 1319 c 1,12,-1
 1605 1045 l 1,13,14
 1577 1348 1577 1348 1268 1348 c 0,15,16
 1083 1348 1083 1348 922 1240 c 0,17,18
 733 1114 733 1114 627 921 c 0,19,20
 596 864 596 864 571 801 c 1,21,-1
 1176 801 l 1,22,23
 1255 583 1255 583 1383 417 c 1,24,25
 1457 497 1457 497 1512 597 c 0,26,27
 1584 727 1584 727 1617 885 c 1,28,-1
 1895 962 l 1,29,30
 1896 948 1896 948 1896 933 c 0,31,32
 1896 849 1896 849 1876 755 c 0,33,34
 1808 436 1808 436 1561 228 c 1,35,36
 1602 194 1602 194 1674 144 c 0,37,38
 1750 92 1750 92 1785 92 c 0,39,40
 1825 92 1825 92 1875 108 c 1,41,-1
 1878 74 l 1,42,-1
 1579 -20 l 1,43,44
 1473 37 1473 37 1384 106 c 1,45,46
 1154 -20 1154 -20 888 -20 c 0,0,1
1209 273 m 1,47,48
 1079 426 1079 426 1002 623 c 1,49,-1
 519 623 l 1,50,51
 505 550 505 550 505 489 c 0,52,53
 505 401 505 401 533 337 c 0,54,55
 611 160 611 160 839 160 c 0,56,57
 1032 160 1032 160 1209 273 c 1,47,48
EndSplineSet
Validated: 1
EndChar

StartChar: afii61352
Encoding: 8470 8470 146
Width: 2460
Flags: W
HStem: -20 21G<232 337.242 1084 1368.82> 0 174<1741.19 2310.35> 210 115<1969.76 2145.27> 705 115<2089.01 2264.17> 1397 34<290.157 334.615> 1417 34<1537.74 1581.73> 1510 20G<540.364 647.5 1724.2 1829.5>
VStem: 191 188<13 80.9736> 1657 214<1191.71 1463.76> 1777 186<350.914 570.419> 2271 186<457.541 680.832>
DStem2: 161.087 -20 370.381 -20 0.207912 0.978148<121.214 1070.97> 1359.63 -20 1570.08 -20 0.207912 0.978148<290.345 1437.74>
LayerCount: 2
Fore
SplineSet
273 -20 m 1,0,1
 191 16 191 16 191 97 c 0,2,3
 191 115 191 115 196 139 c 2,4,-1
 444 1311 l 1,5,6
 422 1406 422 1406 366 1406 c 0,7,8
 328 1406 328 1406 291 1397 c 1,9,-1
 289 1431 l 1,10,-1
 604 1530 l 1,11,12
 691 1519 691 1519 719 1423 c 0,13,14
 945 651 945 651 1420 264 c 1,15,-1
 1655 1367 l 2,16,17
 1657 1376 1657 1376 1657 1387 c 0,18,19
 1657 1426 1657 1426 1614 1426 c 0,20,21
 1576 1426 1576 1426 1539 1417 c 1,22,-1
 1536 1451 l 1,23,-1
 1788 1530 l 1,24,25
 1871 1494 1871 1494 1871 1413 c 0,26,27
 1871 1396 1871 1396 1866 1372 c 2,28,-1
 1589 69 l 1,29,-1
 1305 -20 l 1,30,31
 863 329 863 329 584 985 c 1,32,-1
 379 13 l 1,33,-1
 273 -20 l 1,0,1
2356 174 m 1,34,-1
 2363 109 l 1,35,36
 2307 0 2307 0 2155 0 c 2,37,-1
 1696 0 l 1,38,-1
 1689 65 l 1,39,40
 1744 174 1744 174 1897 174 c 2,41,-1
 2356 174 l 1,34,-1
2196 705 m 0,42,43
 2150 704 2150 704 2095 666 c 128,-1,44
 2040 628 2040 628 2005 566 c 0,45,46
 1979 519 1979 519 1970 475 c 0,47,48
 1963 441 1963 441 1963 414 c 0,49,50
 1963 389 1963 389 1969 370 c 0,51,52
 1983 325 1983 325 2037 325 c 0,53,54
 2085 325 2085 325 2140 364 c 0,55,56
 2241 436 2241 436 2265 558 c 0,57,58
 2271 591 2271 591 2271 617 c 0,59,60
 2271 645 2271 645 2264 663 c 0,61,62
 2247 705 2247 705 2196 705 c 0,42,43
2183 820 m 0,63,64
 2324 820 2324 820 2401 734 c 0,65,66
 2457 672 2457 672 2457 584 c 0,67,68
 2457 551 2457 551 2449 514 c 0,69,70
 2420 379 2420 379 2306 295 c 0,71,72
 2191 210 2191 210 2051 210 c 0,73,74
 1912 210 1912 210 1834 296 c 0,75,76
 1777 359 1777 359 1777 447 c 0,77,78
 1777 483 1777 483 1784 515 c 0,79,80
 1812 648 1812 648 1929 735 c 0,81,82
 2043 820 2043 820 2183 820 c 0,63,64
EndSplineSet
Validated: 1
EndChar

StartChar: uni2117
Encoding: 8471 8471 147
Width: 1358
Flags: W
HStem: 386 77<594.878 969.312> 796 120<842 954.252> 1218 124<885.483 1037.09> 1252 30<601.566 645.828> 1453 77<795.688 1170.37>
VStem: 313 82<659.426 1055.31> 565 168<553 620.874> 1041 189<1006.72 1215.24> 1370 82<860.688 1256.57>
DStem2: 508.634 386 697.503 386 0.207912 0.978148<251.916 857.945>
LayerCount: 2
Fore
SplineSet
988 1530 m 0,0,1
 1230 1530 1230 1530 1357 1368 c 0,2,3
 1452 1247 1452 1247 1452 1097 c 0,4,5
 1452 1019 1452 1019 1443 964 c 0,6,7
 1403 718 1403 718 1204 553 c 0,8,9
 1002 386 1002 386 777 386 c 0,10,11
 535 386 535 386 408 548 c 0,12,13
 313 669 313 669 313 819 c 0,14,15
 313 897 313 897 322 952 c 0,16,17
 362 1199 362 1199 561 1363 c 0,18,19
 763 1530 763 1530 988 1530 c 0,0,1
987 1453 m 0,20,21
 797 1453 797 1453 625 1312 c 0,22,23
 447 1166 447 1166 406 953 c 0,24,25
 395 896 395 896 395 849 c 0,26,27
 395 701 395 701 471 602 c 0,28,29
 578 463 578 463 778 463 c 0,30,31
 968 463 968 463 1140 604 c 0,32,33
 1318 750 1318 750 1359 963 c 0,34,35
 1370 1020 1370 1020 1370 1067 c 0,36,37
 1370 1213 1370 1213 1294 1314 c 0,38,39
 1188 1453 1188 1453 987 1453 c 0,20,21
842 796 m 1,40,-1
 815 916 l 1,41,42
 892 916 892 916 931 941 c 0,43,44
 1012 994 1012 994 1036 1104 c 0,45,46
 1041 1129 1041 1129 1041 1149 c 0,47,48
 1041 1218 1041 1218 975 1218 c 0,49,50
 931 1218 931 1218 895.5 1185 c 128,-1,51
 860 1152 860 1152 846 1088 c 2,52,-1
 733 553 l 1,53,-1
 651 527 l 1,54,55
 565 551 565 551 565 631 c 0,56,57
 565 649 565 649 569 670 c 2,58,-1
 682 1198 l 2,59,60
 685 1214 685 1214 685 1226 c 0,61,62
 685 1261 685 1261 656 1261 c 0,63,64
 628 1261 628 1261 603 1252 c 1,65,-1
 600 1282 l 1,66,-1
 795 1343 l 1,67,68
 829 1333 829 1333 847 1314 c 1,69,70
 912 1342 912 1342 982 1342 c 0,71,72
 1112 1342 1112 1342 1180 1266 c 0,73,74
 1230 1208 1230 1208 1230 1126 c 0,75,76
 1230 1094 1230 1094 1222 1059 c 0,77,78
 1196 936 1196 936 1089 866 c 128,-1,79
 982 796 982 796 842 796 c 1,40,-1
EndSplineSet
Validated: 1
EndChar

StartChar: integral
Encoding: 8747 8747 148
Width: 1550
Flags: W
HStem: -430 149<149.398 425.607> 1381 149<1358.39 1634.6>
DStem2: 533.432 -430 833.432 -430 0.207912 0.978148<336.325 1727.15>
LayerCount: 2
Fore
SplineSet
310 -430 m 0,0,1
 82 -430 82 -430 -60 -308 c 1,2,-1
 84 -46 l 1,3,4
 90 -281 90 -281 276 -281 c 0,5,6
 374 -281 374 -281 476 -202 c 0,7,8
 603 -104 603 -104 648 109 c 2,9,-1
 836 991 l 2,10,11
 890 1246 890 1246 1042 1378 c 0,12,13
 1217 1530 1217 1530 1474 1530 c 0,14,15
 1702 1530 1702 1530 1844 1408 c 1,16,-1
 1700 1146 l 1,17,18
 1694 1381 1694 1381 1508 1381 c 0,19,20
 1410 1381 1410 1381 1308 1302 c 0,21,22
 1181 1204 1181 1204 1136 991 c 2,23,-1
 948 109 l 2,24,25
 894 -146 894 -146 742 -278 c 0,26,27
 567 -430 567 -430 310 -430 c 0,0,1
EndSplineSet
Validated: 1
EndChar

StartChar: caron
Encoding: 711 711 149
Width: 682
Flags: W
HStem: 1160 400
VStem: 335 643
LayerCount: 2
Fore
SplineSet
490 1160 m 1,0,1
 481 1363 481 1363 335 1484 c 1,2,-1
 577 1560 l 1,3,4
 623 1437 623 1437 623 1306 c 1,5,6
 660 1444 660 1444 776 1560 c 1,7,-1
 978 1486 l 1,8,9
 817 1383 817 1383 759 1243 c 1,10,-1
 490 1160 l 1,0,1
EndSplineSet
Validated: 1
EndChar

StartChar: circumflex
Encoding: 710 710 150
Width: 682
Flags: W
HStem: 1160 400
VStem: 282 643
LayerCount: 2
Fore
SplineSet
770 1560 m 1,0,1
 779 1357 779 1357 925 1236 c 1,2,-1
 683 1160 l 1,3,4
 637 1283 637 1283 637 1414 c 1,5,6
 600 1276 600 1276 484 1160 c 1,7,-1
 282 1234 l 1,8,9
 443 1337 443 1337 501 1477 c 1,10,-1
 770 1560 l 1,0,1
EndSplineSet
Validated: 1
EndChar

StartChar: uni02C9
Encoding: 713 713 151
Width: 698
Flags: W
HStem: 1230 174<347.188 910.222>
VStem: 302 661<1216.52 1287.48>
LayerCount: 2
Fore
SplineSet
955 1404 m 1,0,-1
 963 1339 l 1,1,2
 907 1230 907 1230 754 1230 c 2,3,-1
 302 1230 l 1,4,-1
 295 1295 l 1,5,6
 350 1404 350 1404 503 1404 c 2,7,-1
 955 1404 l 1,0,-1
EndSplineSet
Validated: 1
EndChar

StartChar: dotaccent
Encoding: 729 729 152
Width: 404
Flags: W
HStem: 1170 370<401.356 578.644>
VStem: 304 372<1266 1444>
LayerCount: 2
Fore
SplineSet
529 1540 m 0,0,1
 604 1540 604 1540 646 1486 c 0,2,3
 676 1447 676 1447 676 1396 c 0,4,5
 676 1376 676 1376 672 1355 c 0,6,7
 656 1278 656 1278 591.5 1224 c 128,-1,8
 527 1170 527 1170 451 1170 c 0,9,10
 376 1170 376 1170 334 1224 c 0,11,12
 304 1263 304 1263 304 1314 c 0,13,14
 304 1334 304 1334 308 1355 c 0,15,16
 324 1432 324 1432 388.5 1486 c 128,-1,17
 453 1540 453 1540 529 1540 c 0,0,1
EndSplineSet
Validated: 1
EndChar

StartChar: ring
Encoding: 730 730 153
Width: 480
Flags: W
HStem: 1140 114<438.34 576.398> 1468 116<481.625 621.324>
VStem: 304 132<1287.28 1422.61> 624 131<1302.94 1433.72>
LayerCount: 2
Fore
SplineSet
580 1584 m 0,0,1
 669 1584 669 1584 718 1520 c 0,2,3
 755 1472 755 1472 755 1411 c 0,4,5
 755 1388 755 1388 750 1363 c 0,6,7
 730 1271 730 1271 651 1206 c 0,8,9
 571 1140 571 1140 482 1140 c 128,-1,10
 393 1140 393 1140 341 1206 c 0,11,12
 304 1253 304 1253 304 1313 c 0,13,14
 304 1337 304 1337 310 1363 c 0,15,16
 329 1454 329 1454 408 1520 c 0,17,18
 486 1584 486 1584 580 1584 c 0,0,1
493 1254 m 0,19,20
 522 1254 522 1254 552 1277 c 0,21,22
 582 1299 582 1299 601 1332 c 0,23,24
 615 1356 615 1356 621 1386 c 0,25,26
 624 1401 624 1401 624 1413 c 128,-1,27
 624 1425 624 1425 621 1434 c 0,28,29
 610 1468 610 1468 567 1468 c 0,30,31
 536 1468 536 1468 506 1446 c 128,-1,32
 476 1424 476 1424 458 1390 c 0,33,34
 445 1366 445 1366 439 1336 c 0,35,36
 436 1321 436 1321 436 1309 c 0,37,38
 436 1296 436 1296 439 1287 c 0,39,40
 450 1254 450 1254 493 1254 c 0,19,20
EndSplineSet
Validated: 1
EndChar

StartChar: breve
Encoding: 728 728 154
Width: 739
Flags: W
HStem: 1174 160<489.623 796.017>
LayerCount: 2
Fore
SplineSet
412 1506 m 1,0,-1
 442 1506 l 1,1,2
 442 1334 442 1334 635.5 1334 c 128,-1,3
 829 1334 829 1334 1009 1506 c 1,4,-1
 1039 1506 l 9,5,-1
 919 1288 l 1,6,7
 757 1174 757 1174 582 1174 c 0,8,9
 408 1174 408 1174 294 1288 c 1,10,-1
 412 1506 l 1,0,-1
EndSplineSet
Validated: 1
EndChar

StartChar: hungarumlaut
Encoding: 733 733 155
Width: 826
Flags: W
HStem: 1160 400
LayerCount: 2
Fore
SplineSet
881 1560 m 1,0,1
 1119 1473 l 1,2,3
 894 1344 894 1344 791 1160 c 1,4,-1
 627 1219 l 1,5,6
 708 1420 708 1420 881 1560 c 1,0,1
533 1560 m 1,7,-1
 771 1473 l 1,8,9
 546 1344 546 1344 443 1160 c 1,10,-1
 279 1219 l 1,11,12
 360 1420 360 1420 533 1560 c 1,7,-1
EndSplineSet
Validated: 1
EndChar

StartChar: tilde
Encoding: 732 732 156
Width: 727
Flags: W
HStem: 1174 179<677.498 863.224> 1322 178<434.029 619.756>
LayerCount: 2
Fore
SplineSet
1023 1485 m 1,0,-1
 888 1237 l 1,1,2
 814 1174 814 1174 738 1174 c 0,3,4
 650 1174 650 1174 619 1283 c 0,5,6
 608 1322 608 1322 561 1322 c 256,7,8
 414 1322 414 1322 303 1189 c 1,9,-1
 273 1189 l 1,10,-1
 410 1438 l 1,11,12
 483 1500 483 1500 559 1500 c 0,13,14
 648 1500 648 1500 678 1392 c 0,15,16
 689 1353 689 1353 736 1353 c 256,17,18
 883 1353 883 1353 993 1485 c 1,19,-1
 1023 1485 l 1,0,-1
EndSplineSet
Validated: 1
EndChar

StartChar: ogonek
Encoding: 731 731 157
Width: 430
Flags: W
HStem: -486 579
VStem: -40 223<-398 -152.887>
LayerCount: 2
Fore
SplineSet
265 93 m 1,0,-1
 317 0 l 1,1,2
 209 -80 209 -80 186 -188 c 0,3,4
 183 -200 183 -200 183 -211 c 0,5,6
 183 -297 183 -297 347 -297 c 1,7,-1
 244 -486 l 1,8,9
 -40 -486 -40 -486 -40 -310 c 0,10,11
 -40 -284 -40 -284 -34 -253 c 0,12,13
 7 -62 7 -62 265 93 c 1,0,-1
EndSplineSet
Validated: 1
EndChar

StartChar: uni1E9E
Encoding: 7838 7838 158
Width: 1345
Flags: W
HStem: -20 169<695 822> 1360 170<861.119 1129.46> 1391 34<286.735 330.739>
VStem: 1077 311<439.6 747.111>
DStem2: 165.624 -20 461.135 -20 0.207912 0.978148<177.2 1354.44>
LayerCount: 2
Fore
SplineSet
353 -20 m 1,0,1
 209 18 209 18 209 151 c 0,2,3
 209 181 209 181 216 217 c 2,4,-1
 443 1284 l 2,5,6
 447 1305 447 1305 447 1322 c 0,7,8
 447 1399 447 1399 360 1399 c 0,9,10
 319 1399 319 1399 288 1391 c 1,11,-1
 285 1425 l 1,12,-1
 620 1530 l 1,13,14
 688 1510 688 1510 721 1458 c 1,15,16
 860 1530 860 1530 992 1530 c 0,17,18
 1242 1530 1242 1530 1368 1386 c 0,19,20
 1421 1325 1421 1325 1444 1245 c 1,21,22
 1190 1149 1190 1149 1120 939 c 1,23,24
 1228 904 1228 904 1298 825 c 0,25,26
 1388 724 1388 724 1388 582 c 0,27,28
 1388 530 1388 530 1376 473 c 0,29,30
 1330 256 1330 256 1149 122 c 0,31,32
 958 -20 958 -20 695 -20 c 1,33,-1
 674 149 l 1,34,35
 767 157 767 157 839 202 c 0,36,37
 946 268 946 268 1007 381 c 0,38,39
 1048 458 1048 458 1067 545 c 0,40,41
 1077 591 1077 591 1077 628 c 0,42,43
 1077 680 1077 680 1058 714 c 0,44,45
 1010 803 1010 803 884 803 c 1,46,-1
 865 952 l 1,47,48
 925 1164 925 1164 1146 1290 c 1,49,50
 1112 1360 1112 1360 1010.5 1360 c 128,-1,51
 909 1360 909 1360 829 1292 c 0,52,53
 720 1199 720 1199 689 1052 c 2,54,-1
 469 17 l 1,55,-1
 353 -20 l 1,0,1
EndSplineSet
Validated: 1
EndChar

StartChar: uni203D
Encoding: 8253 8253 159
Width: 1374
Flags: W
HStem: -20 370<609.356 786.644> 1360 170<890.385 1147.44>
VStem: 1182 305<1014.32 1325.01>
LayerCount: 2
Fore
SplineSet
1021 1530 m 0,0,1
 1271 1530 1271 1530 1397 1388 c 0,2,3
 1487 1288 1487 1288 1487 1147 c 0,4,5
 1487 1095 1487 1095 1474 1037 c 0,6,7
 1396 672 1396 672 938 444 c 1,8,-1
 579 444 l 1,9,10
 614 467 614 467 647 490 c 1,11,12
 695 654 695 654 732 826 c 0,13,14
 764 978 764 978 782 1087 c 1,15,-1
 1020 1136 l 1,16,17
 976 902 976 902 916 703 c 1,18,19
 1045 824 1045 824 1104 936 c 0,20,21
 1158 1039 1158 1039 1173 1122 c 0,22,23
 1182 1172 1182 1172 1182 1211 c 0,24,25
 1182 1259 1182 1259 1168 1288 c 0,26,27
 1133 1360 1133 1360 1038 1360 c 0,28,29
 955 1360 955 1360 877 1309 c 0,30,31
 767 1237 767 1237 710 1131 c 0,32,33
 667 1050 667 1050 650 968 c 1,34,-1
 331 868 l 1,35,36
 328 896 328 896 328 924 c 0,37,38
 328 978 328 978 340 1035 c 0,39,40
 387 1254 387 1254 567 1388 c 0,41,42
 758 1530 758 1530 1021 1530 c 0,0,1
659 -20 m 0,43,44
 584 -20 584 -20 542 34 c 0,45,46
 512 73 512 73 512 124 c 0,47,48
 512 144 512 144 516 165 c 0,49,50
 532 242 532 242 596.5 296 c 128,-1,51
 661 350 661 350 737 350 c 0,52,53
 812 350 812 350 854 296 c 0,54,55
 884 257 884 257 884 206 c 0,56,57
 884 186 884 186 880 165 c 0,58,59
 864 88 864 88 799.5 34 c 128,-1,60
 735 -20 735 -20 659 -20 c 0,43,44
EndSplineSet
Validated: 1
EndChar

StartChar: minus
Encoding: 8722 8722 160
Width: 1219
Flags: W
HStem: 639 211<344.139 1194.42>
LayerCount: 2
Fore
SplineSet
1253 850 m 1,0,-1
 1262 765 l 1,1,2
 1203 639 1203 639 1025 639 c 2,3,-1
 282 639 l 1,4,-1
 273 721 l 1,5,6
 332 850 332 850 511 850 c 2,7,-1
 1253 850 l 1,0,-1
EndSplineSet
Validated: 1
EndChar

StartChar: W
Encoding: 87 87 161
Width: 2566
Flags: W
HStem: -20 21G<904 1019.85 1604 1719.85> 1388 34<283.735 329.256 983.735 1029.26> 1480 30<2050 2091.59> 1510 20G<572.074 692.5 1272.07 1392.5>
VStem: 2382 344<922.797 1299.06>
LayerCount: 2
Fore
SplineSet
1654 -20 m 1,0,1
 1554 -20 1554 -20 1493 84 c 0,2,3
 1195 587 1195 587 1153 1328 c 0,4,5
 1149 1398 1149 1398 1050 1398 c 0,6,7
 1015 1398 1015 1398 985 1388 c 1,8,-1
 982 1422 l 1,9,-1
 1338 1530 l 1,10,11
 1447 1505 1447 1505 1454 1363 c 0,12,13
 1489 687 1489 687 1868 45 c 1,14,-1
 1654 -20 l 1,0,1
2050 1510 m 1,15,16
 2726 1510 2726 1510 2726 1135 c 0,17,18
 2726 1083 2726 1083 2713 1023 c 0,19,20
 2611 564 2611 564 1901 122 c 1,21,-1
 1888 146 l 1,22,23
 2303 703 2303 703 2368 1011 c 0,24,25
 2382 1076 2382 1076 2382 1133 c 0,26,27
 2382 1413 2382 1413 2044 1480 c 1,28,-1
 2050 1510 l 1,15,16
954 -20 m 1,29,30
 854 -20 854 -20 793 84 c 0,31,32
 495 587 495 587 453 1328 c 0,33,34
 449 1398 449 1398 350 1398 c 0,35,36
 315 1398 315 1398 285 1388 c 1,37,-1
 282 1422 l 1,38,-1
 638 1530 l 1,39,40
 747 1505 747 1505 754 1363 c 0,41,42
 789 687 789 687 1168 45 c 1,43,-1
 954 -20 l 1,29,30
EndSplineSet
Validated: 1
EndChar

StartChar: u
Encoding: 117 117 162
Width: 1388
Flags: W
HStem: -20 149<519.909 806.13> 79 34<1377.24 1421.26> 971 149<819.426 932>
VStem: 173 293<231.832 573.606>
DStem2: 923.432 -20 1213.56 -20 0.207912 0.978148<305.953 1043.26>
LayerCount: 2
Fore
SplineSet
690 -20 m 0,0,1
 422 -20 422 -20 282 136 c 0,2,3
 173 257 173 257 173 425 c 0,4,5
 173 485 173 485 187 550 c 0,6,7
 241 804 241 804 458 964 c 0,8,9
 669 1120 669 1120 932 1120 c 1,10,-1
 950 971 l 1,11,12
 851 957 851 957 757 892 c 0,13,14
 624 797 624 797 551 665 c 0,15,16
 497 568 497 568 478 464 c 0,17,18
 466 400 466 400 466 346.5 c 128,-1,19
 466 293 466 293 478 250 c 0,20,21
 514 129 514 129 634 129 c 0,22,23
 751 129 751 129 865 208 c 24,24,25
 990 295 990 295 1038 519 c 2,26,-1
 1158 1084 l 1,27,-1
 1273 1120 l 1,28,29
 1411 1081 1411 1081 1411 944 c 0,30,31
 1411 910 1411 910 1403 871 c 2,32,-1
 1265 222 l 2,33,34
 1260 199 1260 199 1260 181 c 0,35,36
 1260 104 1260 104 1345 104 c 0,37,38
 1383 104 1383 104 1420 113 c 1,39,-1
 1423 79 l 1,40,-1
 1107 -20 l 1,41,42
 1033 1 1033 1 998 49 c 1,43,44
 863 -20 863 -20 690 -20 c 0,0,1
EndSplineSet
Validated: 1
EndChar

StartChar: q
Encoding: 113 113 163
Width: 1388
Flags: W
HStem: -430 24<1043.73 1070.74> -20 153<513.529 611> 971 149<816.636 1102.09>
VStem: 173 293<229.091 573.517> 629 263<-298.149 -62.6437> 1156 293<526.662 868.168>
LayerCount: 2
Fore
SplineSet
630 -20 m 1,0,1
 424 -20 424 -20 282 136 c 0,2,3
 173 256 173 256 173 424 c 0,4,5
 173 484 173 484 187 550 c 0,6,7
 241 803 241 803 458 964 c 0,8,9
 668 1120 668 1120 932 1120 c 0,10,11
 1200 1120 1200 1120 1340 964 c 0,12,13
 1449 843 1449 843 1449 675 c 0,14,15
 1449 615 1449 615 1435 550 c 0,16,17
 1382 299 1382 299 1164 136 c 0,18,19
 1034 39 1034 39 999 7 c 0,20,21
 915 -69 915 -69 899 -146 c 0,22,23
 892 -179 892 -179 892 -208 c 0,24,25
 892 -360 892 -360 1080 -406 c 1,26,-1
 1057 -430 l 1,27,28
 629 -406 629 -406 629 -169 c 0,29,30
 629 -137 629 -137 637 -101 c 0,31,32
 659 1 659 1 731 90 c 0,33,34
 769 137 769 137 865 205 c 0,35,36
 992 295 992 295 1070 435 c 0,37,38
 1124 532 1124 532 1144 636 c 0,39,40
 1156 700 1156 700 1156 753.5 c 128,-1,41
 1156 807 1156 807 1144 850 c 0,42,43
 1108 971 1108 971 988 971 c 0,44,45
 871 971 871 971 757 892 c 0,46,47
 625 800 625 800 551 665 c 0,48,49
 497 567 497 567 478 464 c 0,50,51
 466 400 466 400 466 346.5 c 128,-1,52
 466 293 466 293 478 250 c 0,53,54
 510 133 510 133 611 133 c 1,55,-1
 630 -20 l 1,0,1
EndSplineSet
Validated: 1
EndChar

StartChar: d
Encoding: 100 100 164
Width: 1388
Flags: W
HStem: -20 149<520.409 813.859> 79 34<1377.24 1421.26> 971 149<819.426 932> 1397 34<1045.74 1089.76> 1510 20G<1296.16 1429>
VStem: 173 294<231.832 580.754> 1207 291<1111.65 1399.05>
DStem2: 923.432 -20 1213.56 -20 0.207912 0.978148<306.852 1377.93>
LayerCount: 2
Fore
SplineSet
690 -20 m 0,0,1
 422 -20 422 -20 282 136 c 0,2,3
 173 257 173 257 173 425 c 0,4,5
 173 485 173 485 187 550 c 0,6,7
 241 804 241 804 458 964 c 0,8,9
 669 1120 669 1120 932 1120 c 1,10,-1
 950 971 l 1,11,12
 844 952 844 952 757 892 c 0,13,14
 628 802 628 802 551 665 c 0,15,16
 499 572 499 572 479 464 c 0,17,18
 467 400 467 400 467 346.5 c 128,-1,19
 467 293 467 293 479 250 c 0,20,21
 515 129 515 129 635 129 c 0,22,23
 764 129 764 129 866 208 c 24,24,25
 993 307 993 307 1038 519 c 2,26,-1
 1202 1288 l 2,27,28
 1207 1311 1207 1311 1207 1329 c 0,29,30
 1207 1406 1207 1406 1122 1406 c 0,31,32
 1084 1406 1084 1406 1047 1397 c 1,33,-1
 1044 1431 l 1,34,-1
 1360 1530 l 1,35,36
 1498 1491 1498 1491 1498 1354 c 0,37,38
 1498 1320 1498 1320 1490 1281 c 2,39,-1
 1265 222 l 2,40,41
 1260 199 1260 199 1260 181 c 0,42,43
 1260 104 1260 104 1345 104 c 0,44,45
 1383 104 1383 104 1420 113 c 1,46,-1
 1423 79 l 1,47,-1
 1107 -20 l 1,48,49
 1033 1 1033 1 998 49 c 1,50,51
 863 -20 863 -20 690 -20 c 0,0,1
EndSplineSet
Validated: 1
EndChar

StartChar: f
Encoding: 102 102 165
Width: 1070
Flags: W
HStem: -430 21G<192.5 326.103> 435 158<596 869.789> 1381 149<903.393 1179.6>
DStem2: 78.9571 -430 378.139 -430 0.207912 0.978148<181.374 946.528 1108.14 1729.84>
LayerCount: 2
Fore
SplineSet
262 -430 m 1,0,1
 123 -391 123 -391 123 -255 c 0,2,3
 123 -221 123 -221 132 -181 c 2,4,-1
 381 991 l 2,5,6
 435 1246 435 1246 587 1378 c 0,7,8
 762 1530 762 1530 1019 1530 c 0,9,10
 1247 1530 1247 1530 1389 1408 c 1,11,-1
 1245 1146 l 1,12,13
 1239 1381 1239 1381 1053 1381 c 0,14,15
 955 1381 955 1381 853 1302 c 0,16,17
 726 1204 726 1204 681 991 c 2,18,-1
 596 593 l 1,19,-1
 799 593 l 2,20,21
 890 593 890 593 979 704 c 1,22,-1
 1000 704 l 1,23,-1
 893 509 l 2,24,25
 852 435 852 435 748 435 c 2,26,-1
 562 435 l 1,27,-1
 387 -391 l 1,28,-1
 262 -430 l 1,0,1
EndSplineSet
Validated: 1
EndChar

StartChar: g
Encoding: 103 103 166
Width: 1378
Flags: W
HStem: -430 21G<936 1070.22> -20 149<519.96 809.574> 971 149<816.354 1098.31>
VStem: 173 293<228.449 573.517>
DStem2: 826.199 -430 1116.35 -430 0.207912 0.978148<176.164 455.964 685.049 838.034>
LayerCount: 2
Fore
SplineSet
690 -20 m 0,0,1
 424 -20 424 -20 282 136 c 0,2,3
 173 256 173 256 173 424 c 0,4,5
 173 484 173 484 187 550 c 0,6,7
 241 803 241 803 458 964 c 0,8,9
 668 1120 668 1120 932 1120 c 0,10,11
 1160 1120 1160 1120 1302 998 c 1,12,-1
 1157 736 l 1,13,14
 1151 971 1151 971 985 971 c 0,15,16
 870 971 870 971 757 892 c 0,17,18
 625 800 625 800 551 665 c 0,19,20
 497 567 497 567 478 464 c 0,21,22
 466 400 466 400 466 346.5 c 128,-1,23
 466 293 466 293 478 250 c 0,24,25
 512 129 512 129 635 129 c 0,26,27
 796 129 796 129 920 257 c 1,28,-1
 969 240 l 1,29,-1
 1017 465 l 1,30,-1
 1138 501 l 1,31,32
 1272 464 1272 464 1272 333 c 0,33,34
 1272 301 1272 301 1264 262 c 2,35,-1
 1124 -394 l 1,36,-1
 1003 -430 l 1,37,38
 869 -393 869 -393 869 -260 c 0,39,40
 869 -228 869 -228 877 -191 c 2,41,-1
 921 16 l 1,42,43
 808 -20 808 -20 690 -20 c 0,0,1
EndSplineSet
Validated: 1
EndChar

StartChar: k
Encoding: 107 107 167
Width: 1422
Flags: W
HStem: -20 21G<279.5 412.333 935 1178.05> 87 34<1414.37 1459.26> 1100 20G<1171.68 1211.94> 1397 34<287.735 331.759> 1510 20G<538.162 671.5>
VStem: 449 292<1122.7 1399.4>
DStem2: 165.976 -20 455.464 -20 0.207912 0.978148<181.37 1377.81> 642 726 914 740 0.816887 0.576798<214.886 672.008>
LayerCount: 2
Fore
SplineSet
349 -20 m 1,0,1
 210 19 210 19 210 155 c 0,2,3
 210 189 210 189 219 229 c 2,4,-1
 444 1288 l 2,5,6
 449 1311 449 1311 449 1329 c 0,7,8
 449 1406 449 1406 364 1406 c 0,9,10
 326 1406 326 1406 289 1397 c 1,11,-1
 286 1431 l 1,12,-1
 602 1530 l 1,13,14
 741 1491 741 1491 741 1355 c 0,15,16
 741 1321 741 1321 732 1281 c 2,17,-1
 463 16 l 17,18,-1
 349 -20 l 1,0,1
1113 -20 m 1,19,20
 757 210 757 210 642 726 c 1,21,-1
 1200 1120 l 1,22,-1
 1274 996 l 1,23,-1
 914 740 l 1,24,25
 1005 386 1005 386 1266 168 c 0,26,27
 1333 112 1333 112 1383 112 c 0,28,29
 1421 112 1421 112 1458 121 c 1,30,-1
 1461 87 l 1,31,-1
 1113 -20 l 1,19,20
EndSplineSet
Validated: 1
EndChar

StartChar: r
Encoding: 114 114 168
Width: 1070
Flags: W
HStem: -20 21G<279.5 412.333> 971 149<807.195 1092.1> 987 34<200.735 244.759>
DStem2: 166.124 -20 455.254 -20 0.207912 0.978148<181.339 914.483>
LayerCount: 2
Fore
SplineSet
349 -20 m 1,0,1
 210 19 210 19 210 155 c 0,2,3
 210 189 210 189 219 229 c 2,4,-1
 357 878 l 2,5,6
 362 901 362 901 362 919 c 0,7,8
 362 996 362 996 277 996 c 0,9,10
 239 996 239 996 202 987 c 1,11,-1
 199 1021 l 1,12,-1
 515 1120 l 1,13,14
 589 1099 589 1099 623 1051 c 1,15,16
 759 1120 759 1120 932 1120 c 0,17,18
 1160 1120 1160 1120 1302 998 c 1,19,-1
 1157 736 l 1,20,21
 1151 971 1151 971 965 971 c 0,22,23
 857 971 857 971 756 892 c 0,24,25
 629 794 629 794 583 581 c 2,26,-1
 463 16 l 1,27,-1
 349 -20 l 1,0,1
EndSplineSet
Validated: 1
EndChar

StartChar: t
Encoding: 116 116 169
Width: 1268
Flags: W
HStem: -20 149<567.96 858.845> 942 158<286.364 524 814.188 1375.64>
VStem: 221 293<228.449 578.293>
LayerCount: 2
Fore
SplineSet
738 -20 m 0,0,1
 472 -20 472 -20 330 136 c 0,2,3
 221 256 221 256 221 424 c 0,4,5
 221 484 221 484 235 550 c 0,6,7
 285 787 285 787 524 942 c 1,8,-1
 357 942 l 2,9,10
 266 942 266 942 178 831 c 1,11,-1
 157 831 l 1,12,-1
 263 1026 l 2,13,14
 303 1100 303 1100 408 1100 c 2,15,-1
 1305 1100 l 2,16,17
 1396 1100 1396 1100 1484 1211 c 1,18,-1
 1505 1211 l 1,19,-1
 1399 1016 l 2,20,21
 1359 942 1359 942 1254 942 c 2,22,-1
 997 942 l 2,23,24
 877 942 877 942 805 892 c 0,25,26
 673 800 673 800 599 665 c 0,27,28
 545 567 545 567 526 464 c 0,29,30
 514 400 514 400 514 346.5 c 128,-1,31
 514 293 514 293 526 250 c 0,32,33
 560 129 560 129 683 129 c 0,34,35
 844 129 844 129 968 257 c 1,36,-1
 1244 161 l 1,37,38
 1003 -20 1003 -20 738 -20 c 0,0,1
EndSplineSet
Validated: 1
EndChar

StartChar: y
Encoding: 121 121 170
Width: 1443
Flags: W
HStem: -430 21G<212.167 806.5> 980 34<197.157 241.983> 1070 30<973 1007.15> 1100 20G<471.849 582>
VStem: 360 268<624.791 982.435> 1206 322<585.949 930.156>
LayerCount: 2
Fore
SplineSet
536 1120 m 1,0,1
 628 1088 628 1088 628 975 c 0,2,3
 628 594 628 594 836 189 c 1,4,-1
 656 132 l 1,5,6
 549 132 549 132 517 196 c 0,7,8
 361 512 361 512 360 906 c 0,9,10
 360 989 360 989 273 989 c 0,11,12
 235 989 235 989 198 980 c 1,13,-1
 196 1014 l 1,14,-1
 536 1120 l 1,0,1
973 1100 m 1,15,16
 1528 1100 1528 1100 1528 776 c 0,17,18
 1528 731 1528 731 1517 679 c 0,19,20
 1390 80 1390 80 223 -430 c 1,21,-1
 210 -406 l 1,22,23
 1086 177 1086 177 1194 689 c 0,24,25
 1206 743 1206 743 1206 790 c 0,26,27
 1206 1005 1206 1005 966 1070 c 1,28,-1
 973 1100 l 1,15,16
EndSplineSet
Validated: 1
EndChar

StartChar: z
Encoding: 122 122 171
Width: 1185
Flags: W
HStem: 0 178<117 958.99> 214 24<222.832 236.679> 942 158<424.412 830.059>
VStem: 881 339<677.349 895.428>
LayerCount: 2
Fore
SplineSet
20 0 m 1,0,-1
 117 178 l 1,1,-1
 981 178 l 2,2,3
 1076 178 1076 178 1082 82 c 1,4,-1
 964 -136 l 1,5,-1
 932 -126 l 1,6,7
 948 -91 948 -91 957 -53 c 0,8,9
 959 -43 959 -43 959 -36 c 0,10,11
 959 0 959 0 918 0 c 2,12,-1
 20 0 l 1,0,-1
546 1100 m 2,13,-1
 692 1100 l 2,14,15
 1220 1100 1220 1100 1220 823 c 0,16,17
 1220 788 1220 788 1212 749 c 0,18,19
 1128 355 1128 355 230 214 c 1,20,-1
 218 238 l 1,21,22
 820 500 820 500 877 770 c 0,23,24
 881 791 881 791 881 809 c 0,25,26
 881 942 881 942 642 942 c 2,27,-1
 496 942 l 2,28,29
 403 942 403 942 317 832 c 1,30,-1
 296 832 l 1,31,-1
 401 1026 l 2,32,33
 441 1100 441 1100 546 1100 c 2,13,-1
EndSplineSet
Validated: 1
EndChar

StartChar: x
Encoding: 120 120 172
Width: 1198
Flags: W
HStem: -20 21G<882 993.894> 0 30<504.945 533> 74 34<1187.48 1232.26> 983 34<197.735 242.488> 1070 30<880 907.932> 1100 20G<465.146 567.5>
VStem: 77 315<84.2061 277.438> 1019 315<800.056 1017.08>
LayerCount: 2
Fore
SplineSet
929 -20 m 1,0,1
 835 -12 835 -12 792 45 c 0,2,3
 474 478 474 478 383 926 c 0,4,5
 371 992 371 992 274 992 c 0,6,7
 236 992 236 992 199 983 c 1,8,-1
 196 1017 l 1,9,-1
 530 1120 l 1,10,11
 605 1097 605 1097 624 1013 c 0,12,13
 723 551 723 551 1038 149 c 0,14,15
 1077 99 1077 99 1156 99 c 0,16,17
 1194 99 1194 99 1231 108 c 1,18,-1
 1234 74 l 1,19,-1
 929 -20 l 1,0,1
880 1100 m 1,20,21
 1334 1100 1334 1100 1334 925 c 0,22,23
 1334 909 1334 909 1330 892 c 0,24,25
 1282 668 1282 668 859 545 c 1,26,-1
 845 569 l 1,27,28
 981 708 981 708 1013 862 c 0,29,30
 1019 889 1019 889 1019 913 c 0,31,32
 1019 1033 1019 1033 873 1070 c 1,33,-1
 880 1100 l 1,20,21
533 0 m 1,34,35
 77 0 77 0 77 163 c 0,36,37
 77 177 77 177 80 191 c 0,38,39
 119 376 119 376 467 464 c 1,40,-1
 481 440 l 1,41,42
 421 336 421 336 396 220 c 0,43,44
 392 200 392 200 392 182 c 0,45,46
 392 75 392 75 539 30 c 1,47,-1
 533 0 l 1,34,35
EndSplineSet
Validated: 1
EndChar

StartChar: U
Encoding: 85 85 173
Width: 1786
Flags: W
HStem: -20 182<658.962 1066.47> 86 34<1776.42 1820.84> 1350 180<1050.81 1219>
VStem: 211 306<345.319 747.602>
DStem2: 1301.81 -20 1612.07 -20 0.207912 0.978148<469.685 1470.62>
LayerCount: 2
Fore
SplineSet
890 -20 m 0,0,1
 539 -20 539 -20 353 191 c 0,2,3
 211 352 211 352 211 579 c 0,4,5
 211 663 211 663 230 755 c 0,6,7
 304 1104 304 1104 592 1319 c 0,8,9
 875 1530 875 1530 1219 1530 c 1,10,-1
 1242 1350 l 1,11,12
 1097 1350 1097 1350 931 1242 c 0,13,14
 746 1122 746 1122 637 924 c 0,15,16
 565 794 565 794 532 636 c 0,17,18
 517 562 517 562 517 498 c 0,19,20
 517 412 517 412 544 344 c 0,21,22
 617 162 617 162 839 162 c 0,23,24
 1027 162 1027 162 1185 270 c 0,25,26
 1394 414 1394 414 1454 696 c 2,27,-1
 1622 1486 l 1,28,-1
 1758 1530 l 1,29,30
 1897 1494 1897 1494 1897 1358 c 0,31,32
 1897 1325 1897 1325 1889 1286 c 2,33,-1
 1665 229 l 2,34,35
 1660 206 1660 206 1660 188 c 0,36,37
 1660 111 1660 111 1745 111 c 0,38,39
 1783 111 1783 111 1820 120 c 1,40,-1
 1822 86 l 1,41,-1
 1485 -20 l 1,42,43
 1378 10 1378 10 1353 99 c 1,44,45
 1141 -20 1141 -20 890 -20 c 0,0,1
EndSplineSet
Validated: 1
EndChar

StartChar: D
Encoding: 68 68 174
Width: 1786
Flags: W
HStem: -20 180<888 1056.19> 1348 182<1040.53 1447.54> 1390 34<286.157 330.578>
VStem: 1589 307<758.686 1165.93>
DStem2: 165.464 -20 475.728 -20 0.207912 0.978148<178.512 1179.45>
LayerCount: 2
Fore
SplineSet
349 -20 m 1,0,1
 210 16 210 16 210 152 c 0,2,3
 210 185 210 185 218 224 c 2,4,-1
 442 1281 l 2,5,6
 447 1304 447 1304 447 1322 c 0,7,8
 447 1399 447 1399 362 1399 c 0,9,10
 324 1399 324 1399 287 1390 c 1,11,-1
 285 1424 l 1,12,-1
 622 1530 l 1,13,14
 729 1500 729 1500 754 1411 c 1,15,16
 966 1530 966 1530 1217 1530 c 0,17,18
 1568 1530 1568 1530 1754 1319 c 0,19,20
 1896 1158 1896 1158 1896 933 c 0,21,22
 1896 849 1896 849 1876 755 c 0,23,24
 1802 406 1802 406 1515 191 c 0,25,26
 1232 -20 1232 -20 888 -20 c 1,27,-1
 865 160 l 1,28,29
 1010 160 1010 160 1176 268 c 0,30,31
 1361 388 1361 388 1470 586 c 0,32,33
 1542 716 1542 716 1575 874 c 24,34,35
 1589 941 1589 941 1589 1014 c 0,36,37
 1589 1101 1589 1101 1563 1166 c 0,38,39
 1488 1348 1488 1348 1268 1348 c 0,40,41
 1080 1348 1080 1348 922 1240 c 0,42,43
 713 1096 713 1096 653 814 c 2,44,-1
 485 24 l 1,45,-1
 349 -20 l 1,0,1
EndSplineSet
Validated: 1
EndChar

StartChar: M
Encoding: 77 77 175
Width: 2912
Flags: W
HStem: -20 180<668.44 865 2014 2182.19> 1348 182<1049.73 1427.04 2174.13 2573.54>
VStem: 210 306<341.552 741.572> 2715 307<758.686 1165.93>
DStem2: 1291.73 -20 1611.73 -20 0.207912 0.978148<179.435 1139.93>
LayerCount: 2
Fore
SplineSet
1478 -20 m 1,0,1
 1336 16 1336 16 1336 153 c 0,2,3
 1336 186 1336 186 1344 224 c 2,4,-1
 1469 814 l 2,5,6
 1507 996 1507 996 1507 1103 c 0,7,8
 1507 1139 1507 1139 1503 1167 c 0,9,10
 1475 1348 1475 1348 1268 1348 c 0,11,12
 1093 1348 1093 1348 932 1240 c 0,13,14
 743 1114 743 1114 637 921 c 0,15,16
 567 794 567 794 531 634 c 0,17,18
 516 565 516 565 516 496 c 0,19,20
 516 410 516 410 543 342 c 0,21,22
 616 160 616 160 865 160 c 1,23,-1
 888 -20 l 1,24,25
 542 -20 542 -20 351 191 c 0,26,27
 210 347 210 347 210 574 c 0,28,29
 210 659 210 659 230 755 c 0,30,31
 305 1109 305 1109 590 1319 c 0,32,33
 876 1530 876 1530 1217 1530 c 0,34,35
 1570 1530 1570 1530 1727 1306 c 1,36,37
 1999 1530 1999 1530 2343 1530 c 0,38,39
 2694 1530 2694 1530 2880 1319 c 0,40,41
 3022 1158 3022 1158 3022 933 c 0,42,43
 3022 849 3022 849 3002 755 c 0,44,45
 2928 406 2928 406 2641 191 c 0,46,47
 2358 -20 2358 -20 2014 -20 c 1,48,-1
 1991 160 l 1,49,50
 2136 160 2136 160 2302 268 c 0,51,52
 2487 388 2487 388 2596 586 c 0,53,54
 2668 716 2668 716 2701 874 c 24,55,56
 2715 941 2715 941 2715 1014 c 0,57,58
 2715 1101 2715 1101 2689 1166 c 0,59,60
 2614 1348 2614 1348 2394 1348 c 0,61,62
 2213 1348 2213 1348 2058 1240 c 0,63,64
 1848 1094 1848 1094 1789 814 c 2,65,-1
 1622 26 l 1,66,-1
 1478 -20 l 1,0,1
EndSplineSet
Validated: 1
EndChar

StartChar: P
Encoding: 80 80 176
Width: 1786
Flags: W
HStem: -430 21G<192 323.818> -20 180<888 1056.19> 1348 182<1040.53 1447.54> 1390 34<286.157 330.578>
VStem: 1589 307<758.686 1165.93>
DStem2: 78.3157 -430 388.58 -430 0.207912 0.978148<179.282 1598.61>
LayerCount: 2
Fore
SplineSet
262 -430 m 1,0,1
 122 -394 122 -394 122 -257 c 0,2,3
 122 -225 122 -225 130 -186 c 2,4,-1
 442 1281 l 2,5,6
 447 1304 447 1304 447 1322 c 0,7,8
 447 1399 447 1399 362 1399 c 0,9,10
 324 1399 324 1399 287 1390 c 1,11,-1
 285 1424 l 1,12,-1
 622 1530 l 1,13,14
 729 1500 729 1500 754 1411 c 1,15,16
 966 1530 966 1530 1217 1530 c 0,17,18
 1568 1530 1568 1530 1754 1319 c 0,19,20
 1896 1158 1896 1158 1896 933 c 0,21,22
 1896 849 1896 849 1876 755 c 0,23,24
 1802 406 1802 406 1515 191 c 0,25,26
 1232 -20 1232 -20 888 -20 c 1,27,-1
 865 160 l 1,28,29
 1010 160 1010 160 1176 268 c 0,30,31
 1361 388 1361 388 1470 586 c 0,32,33
 1542 716 1542 716 1575 874 c 24,34,35
 1589 941 1589 941 1589 1014 c 0,36,37
 1589 1101 1589 1101 1563 1166 c 0,38,39
 1488 1348 1488 1348 1268 1348 c 0,40,41
 1080 1348 1080 1348 922 1240 c 0,42,43
 713 1096 713 1096 653 814 c 2,44,-1
 398 -386 l 1,45,-1
 262 -430 l 1,0,1
EndSplineSet
Validated: 1
EndChar

StartChar: R
Encoding: 82 82 177
Width: 1570
Flags: W
HStem: -20 21G<279.5 410.538 1064 1309.6> 93 34<1563.69 1608.26> 1361 169<850.807 1117.72> 1390 34<286.157 330.578>
VStem: 1160 294<981 1321.24>
DStem2: 165.464 -20 461.014 -20 0.207912 0.978148<178.542 1367.48>
LayerCount: 2
Fore
SplineSet
349 -20 m 1,0,1
 210 16 210 16 210 152 c 0,2,3
 210 186 210 186 218 224 c 2,4,-1
 442 1281 l 2,5,6
 447 1305 447 1305 447 1322 c 0,7,8
 447 1399 447 1399 362 1399 c 0,9,10
 324 1399 324 1399 287 1390 c 1,11,-1
 285 1424 l 1,12,-1
 622 1530 l 1,13,14
 686 1510 686 1510 716 1465 c 1,15,16
 845 1530 845 1530 994 1530 c 0,17,18
 1241 1530 1241 1530 1367 1385 c 0,19,20
 1454 1284 1454 1284 1454 1140 c 0,21,22
 1454 1082 1454 1082 1440 1020 c 0,23,24
 1392 803 1392 803 1213 657 c 0,25,26
 1159 613 1159 613 1053 562 c 1,27,28
 1141 363 1141 363 1426 165 c 0,29,30
 1494 118 1494 118 1532 118 c 128,-1,31
 1570 118 1570 118 1607 127 c 1,32,-1
 1610 93 l 1,33,-1
 1245 -20 l 1,34,35
 883 220 883 220 703 678 c 1,36,37
 832 678 832 678 917 735 c 0,38,39
 1100 857 1100 857 1148 1091 c 0,40,41
 1160 1149 1160 1149 1160 1194 c 0,42,43
 1160 1241 1160 1241 1147 1273 c 0,44,45
 1111 1361 1111 1361 997 1361 c 0,46,47
 899 1361 899 1361 822 1295 c 0,48,49
 722 1209 722 1209 691 1062 c 2,50,-1
 469 19 l 1,51,-1
 349 -20 l 1,0,1
EndSplineSet
Validated: 1
EndChar

StartChar: Z
Encoding: 90 90 178
Width: 1478
Flags: W
HStem: 0 198<129 1244.99> 1330 180<562.679 1123.07>
VStem: 1215 363<945.438 1250.15>
LayerCount: 2
Fore
SplineSet
20 0 m 1,0,-1
 129 198 l 1,1,-1
 1262 198 l 2,2,3
 1374 198 1374 198 1379 100 c 1,4,-1
 1250 -136 l 1,5,-1
 1218 -126 l 1,6,7
 1234 -91 1234 -91 1243 -53 c 0,8,9
 1245 -43 1245 -43 1245 -36 c 0,10,11
 1245 0 1245 0 1204 0 c 2,12,-1
 20 0 l 1,0,-1
685 1510 m 2,13,-1
 962 1510 l 2,14,15
 1578 1510 1578 1510 1578 1145 c 0,16,17
 1578 1092 1578 1092 1565 1032 c 0,18,19
 1457 522 1457 522 269 241 c 1,20,-1
 257 266 l 1,21,22
 1131 684 1131 684 1205 1034 c 0,23,24
 1215 1080 1215 1080 1215 1118 c 0,25,26
 1215 1330 1215 1330 923 1330 c 2,27,-1
 622 1330 l 2,28,29
 530 1330 530 1330 444 1221 c 1,30,-1
 423 1221 l 1,31,-1
 540 1436 l 2,32,33
 581 1510 581 1510 685 1510 c 2,13,-1
EndSplineSet
Validated: 1
EndChar

StartChar: K
Encoding: 75 75 179
Width: 1724
Flags: W
HStem: -20 21G<284.5 415.818 1116 1454.1> 97 34<1719.05 1763.84> 1390 34<291.157 335.578> 1510 20G<563.415 696.5 1466.87 1507.54>
VStem: 452 314<1119.86 1435.11>
DStem2: 170.464 -20 480.464 -20 0.207912 0.978148<178.512 1370.66> 727 984 1014 982 0.815022 0.57943<216.636 932.564>
LayerCount: 2
Fore
SplineSet
354 -20 m 1,0,1
 215 16 215 16 215 152 c 0,2,3
 215 185 215 185 223 224 c 2,4,-1
 447 1281 l 2,5,6
 452 1304 452 1304 452 1322 c 0,7,8
 452 1399 452 1399 367 1399 c 0,9,10
 329 1399 329 1399 292 1390 c 1,11,-1
 290 1424 l 1,12,-1
 627 1530 l 1,13,14
 766 1491 766 1491 766 1355 c 0,15,16
 766 1321 766 1321 757 1281 c 2,17,-1
 490 24 l 1,18,-1
 354 -20 l 1,0,1
1390 -20 m 1,19,20
 842 347 842 347 727 984 c 1,21,-1
 1495 1530 l 1,22,-1
 1584 1388 l 1,23,-1
 1014 982 l 1,24,25
 1132 505 1132 505 1588 164 c 0,26,27
 1644 122 1644 122 1688 122 c 0,28,29
 1726 122 1726 122 1763 131 c 1,30,-1
 1765 97 l 1,31,-1
 1390 -20 l 1,19,20
EndSplineSet
Validated: 1
EndChar

StartChar: H
Encoding: 72 72 180
Width: 1786
Flags: W
HStem: -430 180<801 968.75> -20 21G<279.5 410.818> 938 182<951.906 1360.04> 1390 34<286.157 330.578> 1510 20G<558.415 691.5>
VStem: 447 314<1113.86 1435.11> 1501 308<348.686 755.931>
DStem2: 78.988 -430 388.728 -430 0.207912 0.978148<597.531 1179.78 1543.66 1789.68>
LayerCount: 2
Fore
SplineSet
349 -20 m 1,0,1
 210 16 210 16 210 152 c 0,2,3
 210 185 210 185 218 224 c 2,4,-1
 442 1281 l 2,5,6
 447 1304 447 1304 447 1322 c 0,7,8
 447 1399 447 1399 362 1399 c 0,9,10
 324 1399 324 1399 287 1390 c 1,11,-1
 285 1424 l 1,12,-1
 622 1530 l 1,13,14
 761 1491 761 1491 761 1355 c 0,15,16
 761 1321 761 1321 752 1281 c 2,17,-1
 696 1017 l 1,18,19
 896 1120 896 1120 1130 1120 c 0,20,21
 1481 1120 1481 1120 1667 909 c 0,22,23
 1809 748 1809 748 1809 523 c 0,24,25
 1809 439 1809 439 1789 345 c 0,26,27
 1715 -4 1715 -4 1427 -219 c 0,28,29
 1144 -430 1144 -430 801 -430 c 1,30,-1
 778 -250 l 1,31,32
 923 -250 923 -250 1089 -142 c 0,33,34
 1271 -24 1271 -24 1382 176 c 0,35,36
 1454 306 1454 306 1487 464 c 24,37,38
 1501 531 1501 531 1501 604 c 0,39,40
 1501 691 1501 691 1475 756 c 0,41,42
 1400 938 1400 938 1180 938 c 0,43,44
 992 938 992 938 834 830 c 0,45,46
 626 687 626 687 566 404 c 2,47,-1
 485 24 l 1,48,-1
 349 -20 l 1,0,1
EndSplineSet
Validated: 1
EndChar

StartChar: B
Encoding: 66 66 181
Width: 1299
Flags: W
HStem: -20 170<668 811.736> 734 166<794 935.56> 1364 166<811.269 1063.46> 1390 34<286.157 330.578>
VStem: 1039 295<402.216 701.088> 1089 281<1067.69 1337.87>
DStem2: 166.136 -20 460.71 -20 0.207912 0.978148<178.372 1370.52>
LayerCount: 2
Fore
SplineSet
349 -20 m 1,0,1
 210 16 210 16 210 152 c 0,2,3
 210 185 210 185 218 224 c 2,4,-1
 442 1281 l 2,5,6
 447 1304 447 1304 447 1322 c 0,7,8
 447 1399 447 1399 362 1399 c 0,9,10
 324 1399 324 1399 287 1390 c 1,11,-1
 285 1424 l 1,12,-1
 622 1530 l 1,13,14
 687 1510 687 1510 717 1459 c 1,15,16
 845 1530 845 1530 993 1530 c 0,17,18
 1185 1530 1185 1530 1293 1417 c 0,19,20
 1370 1334 1370 1334 1370 1217 c 0,21,22
 1370 1176 1370 1176 1361 1131 c 0,23,24
 1327 969 1327 969 1181 857 c 0,25,26
 1168 847 1168 847 1155 838 c 1,27,28
 1199 813 1199 813 1234 778 c 0,29,30
 1334 678 1334 678 1334 539 c 0,31,32
 1334 494 1334 494 1323 444 c 0,33,34
 1280 241 1280 241 1100 103 c 0,35,36
 939 -20 939 -20 668 -20 c 1,37,-1
 647 150 l 1,38,39
 776 150 776 150 874 236 c 0,40,41
 993 340 993 340 1030 513 c 0,42,43
 1039 558 1039 558 1039 593 c 0,44,45
 1039 640 1039 640 1023 671 c 0,46,47
 990 734 990 734 874 734 c 2,48,-1
 794 734 l 1,49,-1
 775 900 l 1,50,51
 862 905 862 905 925 938 c 0,52,53
 980 967 980 967 1025 1035 c 0,54,55
 1068 1099 1068 1099 1083 1174 c 0,56,57
 1089 1206 1089 1206 1089 1233 c 0,58,59
 1089 1282 1089 1282 1068 1315 c 0,60,61
 1036 1364 1036 1364 950 1364 c 0,62,63
 870 1364 870 1364 807 1317 c 0,64,65
 733 1262 733 1262 712 1164 c 2,66,-1
 469 19 l 1,67,-1
 349 -20 l 1,0,1
EndSplineSet
Validated: 1
EndChar

StartChar: X
Encoding: 88 88 182
Width: 1487
Flags: W
HStem: -20 121<1208 1446> 0 30<570.73 601> 76 34<1475.96 1521.84> 1394 34<284.735 330.224> 1480 30<1193 1222.96> 1510 20G<553.118 665.5>
VStem: 109 329<100.221 326.656> 1354 326<1154.51 1406.18>
LayerCount: 2
Fore
SplineSet
1208 -20 m 1,0,1
 1113 -20 1113 -20 1064 43 c 0,2,3
 635 589 635 589 470 1331 c 0,4,5
 454 1403 454 1403 361 1403 c 0,6,7
 323 1403 323 1403 286 1394 c 1,8,-1
 283 1428 l 1,9,-1
 619 1530 l 1,10,11
 712 1509 712 1509 734 1402 c 0,12,13
 863 752 863 752 1328 153 c 0,14,15
 1367 101 1367 101 1446 101 c 0,16,17
 1484 101 1484 101 1521 110 c 1,18,-1
 1523 76 l 1,19,-1
 1208 -20 l 1,0,1
601 0 m 1,20,21
 109 0 109 0 109 194 c 0,22,23
 109 212 109 212 113 231 c 0,24,25
 163 468 163 468 607 637 c 1,26,-1
 621 613 l 1,27,28
 481 426 481 426 442 239 c 0,29,30
 438 219 438 219 438 201 c 0,31,32
 438 85 438 85 607 30 c 1,33,-1
 601 0 l 1,20,21
1193 1510 m 1,34,35
 1680 1510 1680 1510 1680 1300 c 0,36,37
 1680 1279 1680 1279 1675 1256 c 0,38,39
 1617 977 1617 977 1039 773 c 1,40,-1
 1025 797 l 1,41,42
 1294 1001 1294 1001 1349 1256 c 0,43,44
 1354 1281 1354 1281 1354 1303 c 0,45,46
 1354 1429 1354 1429 1187 1480 c 1,47,-1
 1193 1510 l 1,34,35
EndSplineSet
Validated: 1
EndChar

StartChar: ae
Encoding: 230 230 183
Width: 2001
Flags: W
HStem: -20 149<1285.76 1574.79> 0 30<608.9 639> 435 158<1286 1778.79> 971 149<1584.73 1861.1> 983 34<588.157 633.766>
VStem: 127 316<125.018 393.539>
LayerCount: 2
Fore
SplineSet
1459 -20 m 0,0,1
 1325 -20 1325 -20 1223 19 c 1,2,-1
 1093 -20 l 1,3,4
 980 6 980 6 974 104 c 0,5,6
 946 583 946 583 748 946 c 0,7,8
 723 992 723 992 664 992 c 0,9,10
 626 992 626 992 589 983 c 1,11,-1
 587 1017 l 1,12,-1
 923 1120 l 1,13,14
 995 1106 995 1106 1038 1024 c 0,15,16
 1076 951 1076 951 1111 859 c 1,17,18
 1163 916 1163 916 1227 964 c 0,19,20
 1437 1120 1437 1120 1701 1120 c 0,21,22
 1929 1120 1929 1120 2071 998 c 1,23,-1
 1926 736 l 1,24,25
 1920 971 1920 971 1734 971 c 0,26,27
 1639 971 1639 971 1526 892 c 0,28,29
 1393 799 1393 799 1320 665 c 0,30,31
 1301 630 1301 630 1286 593 c 1,32,-1
 1708 593 l 2,33,34
 1799 593 1799 593 1888 704 c 1,35,-1
 1909 704 l 1,36,-1
 1802 509 l 2,37,38
 1761 435 1761 435 1657 435 c 2,39,-1
 1240 435 l 1,40,41
 1233 388 1233 388 1233 346 c 0,42,43
 1233 292 1233 292 1245 250 c 0,44,45
 1279 129 1279 129 1402 129 c 0,46,47
 1563 129 1563 129 1687 257 c 1,48,-1
 1965 161 l 1,49,50
 1724 -20 1724 -20 1459 -20 c 0,0,1
639 0 m 1,51,52
 127 0 127 0 127 242 c 0,53,54
 127 269 127 269 133 300 c 0,55,56
 188 559 188 559 732 815 c 1,57,-1
 745 791 l 1,58,59
 505 568 505 568 449 304 c 0,60,61
 443 274 443 274 443 247 c 0,62,63
 443 94 443 94 645 30 c 1,64,-1
 639 0 l 1,51,52
EndSplineSet
Validated: 1
EndChar

StartChar: N
Encoding: 78 78 184
Width: 1744
Flags: W
HStem: -20 21G<232 337.242 1084 1368.82> 1397 34<290.157 334.615> 1417 34<1537.74 1581.73> 1510 20G<540.364 647.5 1724.2 1829.5>
VStem: 191 188<13 80.9736> 1657 214<1191.71 1463.76>
DStem2: 161.087 -20 370.381 -20 0.207912 0.978148<121.214 1070.97> 1359.63 -20 1570.08 -20 0.207912 0.978148<290.345 1437.74>
LayerCount: 2
Fore
SplineSet
273 -20 m 1,0,1
 191 16 191 16 191 97 c 0,2,3
 191 115 191 115 196 139 c 2,4,-1
 444 1311 l 1,5,6
 422 1406 422 1406 366 1406 c 0,7,8
 328 1406 328 1406 291 1397 c 1,9,-1
 289 1431 l 1,10,-1
 604 1530 l 1,11,12
 691 1519 691 1519 719 1423 c 0,13,14
 945 651 945 651 1420 264 c 1,15,-1
 1655 1367 l 2,16,17
 1657 1376 1657 1376 1657 1387 c 0,18,19
 1657 1426 1657 1426 1614 1426 c 0,20,21
 1576 1426 1576 1426 1539 1417 c 1,22,-1
 1536 1451 l 1,23,-1
 1788 1530 l 1,24,25
 1871 1494 1871 1494 1871 1413 c 0,26,27
 1871 1396 1871 1396 1866 1372 c 2,28,-1
 1589 69 l 1,29,-1
 1305 -20 l 1,30,31
 863 329 863 329 584 985 c 1,32,-1
 379 13 l 1,33,-1
 273 -20 l 1,0,1
EndSplineSet
Validated: 1
EndChar

StartChar: Dcroat
Encoding: 272 272 185
Width: 1786
Flags: W
HStem: -20 180<888 1056.19> 612 150<165.196 300 642 857.364> 1348 182<1040.53 1447.54> 1390 34<286.157 330.578>
VStem: 1589 307<758.686 1165.93>
DStem2: 165.664 -20 475.664 -20 0.207912 0.978148<178.47 646.119 863.947 1179.41>
LayerCount: 2
Fore
SplineSet
349 -20 m 1,0,1
 210 16 210 16 210 152 c 0,2,3
 210 185 210 185 218 224 c 2,4,-1
 300 612 l 1,5,-1
 132 612 l 1,6,-1
 126 665 l 1,7,8
 179 762 179 762 273 762 c 2,9,-1
 332 762 l 1,10,-1
 442 1281 l 2,11,12
 447 1304 447 1304 447 1322 c 0,13,14
 447 1399 447 1399 362 1399 c 0,15,16
 324 1399 324 1399 287 1390 c 1,17,-1
 285 1424 l 1,18,-1
 622 1530 l 1,19,20
 729 1500 729 1500 754 1411 c 1,21,22
 966 1530 966 1530 1217 1530 c 0,23,24
 1568 1530 1568 1530 1754 1319 c 0,25,26
 1896 1158 1896 1158 1896 933 c 0,27,28
 1896 849 1896 849 1876 755 c 0,29,30
 1802 406 1802 406 1515 191 c 0,31,32
 1232 -20 1232 -20 888 -20 c 1,33,-1
 865 160 l 1,34,35
 1010 160 1010 160 1176 268 c 0,36,37
 1361 388 1361 388 1470 586 c 0,38,39
 1542 716 1542 716 1575 874 c 0,40,41
 1589 941 1589 941 1589 1014 c 0,42,43
 1589 1101 1589 1101 1563 1166 c 0,44,45
 1488 1348 1488 1348 1268 1348 c 0,46,47
 1080 1348 1080 1348 922 1240 c 0,48,49
 713 1096 713 1096 653 814 c 2,50,-1
 642 762 l 1,51,-1
 891 762 l 1,52,-1
 897 709 l 1,53,54
 843 612 843 612 750 612 c 2,55,-1
 610 612 l 1,56,-1
 485 24 l 1,57,-1
 349 -20 l 1,0,1
EndSplineSet
Validated: 1
EndChar

StartChar: dcroat
Encoding: 273 273 186
Width: 1388
VWidth: 2458
Flags: W
HStem: -20 149<520.409 813.859> 79 34<1377.24 1421.26> 544 150<809.196 1043 1365 1500.47> 971 149<819.426 932> 1397 34<1045.74 1089.76> 1510 20G<1296.16 1429>
VStem: 173 294<231.832 580.754> 1207 291<1113.78 1399.05>
DStem2: 923.432 -20 1213.12 -20 0.207912 0.978148<306.852 576.535 790.205 1377.93>
LayerCount: 2
Fore
SplineSet
690 -20 m 0,0,1
 422 -20 422 -20 282 136 c 0,2,3
 173 257 173 257 173 425 c 0,4,5
 173 485 173 485 187 550 c 0,6,7
 241 804 241 804 458 964 c 0,8,9
 669 1120 669 1120 932 1120 c 1,10,-1
 950 971 l 1,11,12
 844 952 844 952 757 892 c 0,13,14
 628 802 628 802 551 665 c 0,15,16
 499 572 499 572 479 464 c 0,17,18
 467 400 467 400 467 346.5 c 128,-1,19
 467 293 467 293 479 250 c 0,20,21
 515 129 515 129 635 129 c 0,22,23
 764 129 764 129 866 208 c 0,24,25
 993 307 993 307 1038 519 c 2,26,-1
 1043 544 l 1,27,-1
 776 544 l 1,28,-1
 770 597 l 1,29,30
 823 694 823 694 917 694 c 2,31,-1
 1075 694 l 1,32,-1
 1202 1288 l 2,33,34
 1207 1311 1207 1311 1207 1329 c 0,35,36
 1207 1406 1207 1406 1122 1406 c 0,37,38
 1084 1406 1084 1406 1047 1397 c 1,39,-1
 1044 1431 l 1,40,-1
 1360 1530 l 1,41,42
 1498 1491 1498 1491 1498 1354 c 0,43,44
 1498 1320 1498 1320 1490 1281 c 2,45,-1
 1365 694 l 1,46,-1
 1535 694 l 1,47,-1
 1540 641 l 1,48,49
 1486 544 1486 544 1394 544 c 2,50,-1
 1333 544 l 1,51,-1
 1265 222 l 2,52,53
 1260 199 1260 199 1260 181 c 0,54,55
 1260 104 1260 104 1345 104 c 0,56,57
 1383 104 1383 104 1420 113 c 1,58,-1
 1423 79 l 1,59,-1
 1107 -20 l 1,60,61
 1033 1 1033 1 998 49 c 1,62,63
 863 -20 863 -20 690 -20 c 0,0,1
EndSplineSet
Validated: 1
EndChar

StartChar: oslash
Encoding: 248 248 187
Width: 1388
Flags: W
HStem: -20 149<648.097 802.574> 971 149<819.084 971.844>
VStem: 173 293<229.039 573.517> 1156 293<526.394 870.961>
DStem2: 431 29 486 -152 0.499563 0.866278<-106.179 0 194.533 1086.8 1282.83 1386.78>
LayerCount: 2
Fore
SplineSet
690 -20 m 0,0,1
 625 -20 625 -20 567 -11 c 1,2,-1
 486 -152 l 1,3,-1
 430 -152 l 1,4,5
 393 -116 393 -116 393 -72 c 0,6,7
 393 -61 393 -61 395 -49 c 0,8,9
 400 -26 400 -26 414 0 c 2,10,-1
 431 29 l 1,11,12
 344 67 344 67 282 136 c 0,13,14
 173 257 173 257 173 425 c 0,15,16
 173 485 173 485 187 550 c 0,17,18
 241 803 241 803 458 964 c 0,19,20
 668 1120 668 1120 932 1120 c 0,21,22
 997 1120 997 1120 1054 1111 c 1,23,-1
 1135 1252 l 1,24,-1
 1191 1252 l 1,25,26
 1229 1214 1229 1214 1229 1170 c 0,27,28
 1229 1159 1229 1159 1227 1148 c 0,29,30
 1222 1125 1222 1125 1208 1100 c 2,31,-1
 1192 1071 l 1,32,33
 1279 1033 1279 1033 1340 964 c 0,34,35
 1449 843 1449 843 1449 675 c 0,36,37
 1449 615 1449 615 1435 550 c 0,38,39
 1381 296 1381 296 1164 136 c 0,40,41
 953 -20 953 -20 690 -20 c 0,0,1
516 178 m 1,42,-1
 973 971 l 1,43,44
 864 966 864 966 757 892 c 0,45,46
 627 802 627 802 551 665 c 0,47,48
 497 568 497 568 478 464 c 0,49,50
 466 400 466 400 466 346.5 c 128,-1,51
 466 293 466 293 478 250 c 0,52,53
 492 206 492 206 516 178 c 1,42,-1
1106 923 m 1,54,-1
 647 129 l 1,55,56
 757 133 757 133 865 208 c 0,57,58
 994 298 994 298 1070 435 c 0,59,60
 1124 532 1124 532 1144 636 c 0,61,62
 1156 700 1156 700 1156 753.5 c 128,-1,63
 1156 807 1156 807 1144 850 c 0,64,65
 1131 895 1131 895 1106 923 c 1,54,-1
EndSplineSet
Validated: 1
EndChar

StartChar: kgreenlandic
Encoding: 312 312 188
Width: 1422
Flags: W
HStem: -20 21G<279.5 412.333 935 1178.05> 87 34<1414.37 1459.26> 987 34<200.735 244.759> 1100 20G<451.162 584.5 1171.68 1211.94>
VStem: 362 292<708.148 989.397>
DStem2: 166.124 -20 455.612 -20 0.207912 0.978148<181.339 958.654> 642 726 914 740 0.816887 0.576798<214.886 672.008>
LayerCount: 2
Fore
SplineSet
1113 -20 m 1,0,1
 757 210 757 210 642 726 c 1,2,-1
 1200 1120 l 1,3,-1
 1274 996 l 1,4,-1
 914 740 l 1,5,6
 1005 386 1005 386 1266 168 c 0,7,8
 1333 112 1333 112 1383 112 c 0,9,10
 1421 112 1421 112 1458 121 c 1,11,-1
 1461 87 l 1,12,-1
 1113 -20 l 1,0,1
349 -20 m 1,13,14
 210 19 210 19 210 155 c 0,15,16
 210 189 210 189 219 229 c 2,17,-1
 357 878 l 2,18,19
 362 901 362 901 362 919 c 0,20,21
 362 996 362 996 277 996 c 0,22,23
 239 996 239 996 202 987 c 1,24,-1
 199 1021 l 1,25,-1
 515 1120 l 1,26,27
 654 1081 654 1081 654 945 c 0,28,29
 654 911 654 911 645 871 c 2,30,-1
 463 16 l 17,31,-1
 349 -20 l 1,13,14
EndSplineSet
Validated: 1
EndChar

StartChar: S
Encoding: 83 83 189
Width: 1303
Flags: W
HStem: -20 175<360.891 727.116> 745 171<710.692 962.115> 1365 165<845.244 1177.28>
VStem: 346 334<945.321 1198.42> 1007 338<419.931 701.131>
LayerCount: 2
Fore
SplineSet
549 -20 m 0,0,1
 268 -20 268 -20 99 138 c 1,2,-1
 232 381 l 1,3,4
 303 155 303 155 527 155 c 0,5,6
 639 155 639 155 748 209 c 0,7,8
 880 274 880 274 945 388 c 0,9,10
 987 461 987 461 1001 531 c 0,11,12
 1007 564 1007 564 1007 591 c 0,13,14
 1007 657 1007 657 970 695 c 0,15,16
 920 745 920 745 803 745 c 0,17,18
 564 745 564 745 441 855 c 0,19,20
 346 940 346 940 346 1059 c 0,21,22
 346 1094 346 1094 354 1132 c 0,23,24
 391 1307 391 1307 560 1412 c 0,25,26
 752 1530 752 1530 1006 1530 c 0,27,28
 1247 1530 1247 1530 1404 1409 c 1,29,-1
 1262 1147 l 1,30,31
 1237 1365 1237 1365 1028 1365 c 0,32,33
 950 1365 950 1365 888 1341 c 0,34,35
 802 1308 802 1308 747 1234 c 0,36,37
 702 1173 702 1173 686 1096 c 0,38,39
 680 1066 680 1066 680 1041 c 0,40,41
 680 992 680 992 704 962 c 0,42,43
 742 916 742 916 846 916 c 0,44,45
 1110 916 1110 916 1235 805 c 0,46,47
 1345 709 1345 709 1345 567 c 0,48,49
 1345 525 1345 525 1335 480 c 0,50,51
 1288 261 1288 261 1075 126 c 0,52,53
 843 -20 843 -20 549 -20 c 0,0,1
EndSplineSet
Validated: 1
EndChar

StartChar: Oslash
Encoding: 216 216 190
Width: 1786
Flags: W
HStem: -20 180<791.978 1056.11> 1348 182<1049.73 1312.26>
VStem: 210 307<341.552 746.286> 1589 307<756.593 1165.93>
DStem2: 546 12 617 -140 0.499326 0.866414<-72.2023 33.1152 252.297 1539.28 1762.06 1866.48>
LayerCount: 2
Fore
SplineSet
888 -20 m 0,0,1
 786 -20 786 -20 697 -1 c 1,2,-1
 617 -140 l 1,3,-1
 562 -140 l 1,4,5
 524 -103 524 -103 524 -59 c 0,6,7
 524 -48 524 -48 526 -36 c 0,8,9
 531 -13 531 -13 546 12 c 2,10,-1
 562 41 l 1,11,12
 440 93 440 93 351 191 c 0,13,14
 210 347 210 347 210 574 c 0,15,16
 210 659 210 659 230 755 c 0,17,18
 305 1109 305 1109 590 1319 c 0,19,20
 876 1530 876 1530 1217 1530 c 0,21,22
 1321 1530 1321 1530 1410 1512 c 1,23,-1
 1490 1650 l 1,24,-1
 1545 1650 l 1,25,26
 1583 1613 1583 1613 1583 1569 c 0,27,28
 1583 1557 1583 1557 1580 1545 c 0,29,30
 1575 1522 1575 1522 1561 1498 c 2,31,-1
 1545 1470 l 1,32,33
 1668 1417 1668 1417 1754 1319 c 0,34,35
 1896 1158 1896 1158 1896 933 c 0,36,37
 1896 849 1896 849 1876 755 c 0,38,39
 1802 406 1802 406 1515 191 c 0,40,41
 1232 -20 1232 -20 888 -20 c 0,0,1
839 160 m 0,42,43
 1010 160 1010 160 1176 268 c 0,44,45
 1361 388 1361 388 1470 586 c 0,46,47
 1546 723 1546 723 1575 874 c 0,48,49
 1589 950 1589 950 1589 1014 c 0,50,51
 1589 1101 1589 1101 1563 1166 c 0,52,53
 1525 1258 1525 1258 1450 1304 c 1,54,-1
 791 162 l 1,55,56
 814 160 814 160 839 160 c 0,42,43
656 205 m 1,57,-1
 1314 1346 l 1,58,59
 1292 1348 1292 1348 1268 1348 c 0,60,61
 1093 1348 1093 1348 932 1240 c 0,62,63
 743 1114 743 1114 637 921 c 0,64,65
 564 788 564 788 532 634 c 0,66,67
 517 560 517 560 517 496 c 0,68,69
 517 410 517 410 544 342 c 0,70,71
 581 250 581 250 656 205 c 1,57,-1
EndSplineSet
Validated: 1
EndChar

StartChar: s
Encoding: 115 115 191
Width: 1073
Flags: W
HStem: -20 151<320.494 607.365> 528 159<594.698 747.175> 977 143<671.878 918.401>
VStem: 271 307<704.451 885.26> 768 318<302.181 506.495>
LayerCount: 2
Fore
SplineSet
461 -20 m 0,0,1
 233 -20 233 -20 95 118 c 1,2,-1
 238 376 l 1,3,4
 260 131 260 131 451 131 c 0,5,6
 533 131 533 131 601 172 c 0,7,8
 669 212 669 212 714 284 c 0,9,10
 747 338 747 338 762 395 c 0,11,12
 768 419 768 419 768 439 c 0,13,14
 768 476 768 476 748 499 c 0,15,16
 722 528 722 528 644 528 c 0,17,18
 443 528 443 528 346 614 c 0,19,20
 271 681 271 681 271 770 c 0,21,22
 271 794 271 794 277 820 c 0,23,24
 304 946 304 946 434 1028 c 0,25,26
 579 1120 579 1120 796 1120 c 0,27,28
 975 1120 975 1120 1103 1040 c 1,29,-1
 967 794 l 1,30,31
 955 977 955 977 808 977 c 0,32,33
 764 977 764 977 713 956 c 0,34,35
 665 936 665 936 633 899 c 0,36,37
 591 850 591 850 581 797 c 0,38,39
 578 778 578 778 578 763 c 0,40,41
 578 730 578 730 594 712 c 0,42,43
 616 687 616 687 683 687 c 0,44,45
 899 687 899 687 1001 599 c 0,46,47
 1086 525 1086 525 1086 421 c 0,48,49
 1086 392 1086 392 1080 361 c 0,50,51
 1046 202 1046 202 883 101 c 0,52,53
 690 -20 690 -20 461 -20 c 0,0,1
EndSplineSet
Validated: 1
EndChar

StartChar: OE
Encoding: 338 338 192
Width: 2633
Flags: W
HStem: -20 180<659.574 1052.34 1722.73 2123.9> 622 178<1645 2455.5> 1348 182<1049.73 1442.91 2111.88 2508.26>
VStem: 210 307<341.552 744.921> 1275 307<342.177 619.393>
LayerCount: 2
Fore
SplineSet
839 160 m 0,0,1
 1010 160 1010 160 1176 268 c 0,2,3
 1247 314 1247 314 1307 372 c 1,4,5
 1275 464 1275 464 1275 573 c 0,6,7
 1275 659 1275 659 1295 755 c 0,8,9
 1352 1025 1352 1025 1533 1212 c 1,10,11
 1451 1348 1451 1348 1268 1348 c 0,12,13
 1093 1348 1093 1348 932 1240 c 0,14,15
 743 1114 743 1114 637 921 c 0,16,17
 566 792 566 792 532 634 c 0,18,19
 517 560 517 560 517 496 c 0,20,21
 517 410 517 410 544 342 c 0,22,23
 617 160 617 160 839 160 c 0,0,1
888 -20 m 0,24,25
 544 -20 544 -20 351 191 c 0,26,27
 210 347 210 347 210 574 c 0,28,29
 210 659 210 659 230 755 c 0,30,31
 305 1109 305 1109 590 1319 c 0,32,33
 876 1530 876 1530 1217 1530 c 0,34,35
 1534 1530 1534 1530 1715 1360 c 1,36,37
 1976 1530 1976 1530 2282 1530 c 0,38,39
 2626 1530 2626 1530 2819 1319 c 1,40,-1
 2651 1014 l 1,41,42
 2623 1348 2623 1348 2331 1348 c 0,43,44
 2153 1348 2153 1348 1993 1239 c 0,45,46
 1806 1111 1806 1111 1702 921 c 0,47,48
 1670 863 1670 863 1645 800 c 1,49,-1
 2396 800 l 2,50,51
 2487 800 2487 800 2576 911 c 1,52,-1
 2597 911 l 1,53,-1
 2479 696 l 2,54,55
 2438 622 2438 622 2334 622 c 2,56,-1
 1594 622 l 1,57,58
 1582 563 1582 563 1582 496 c 0,59,60
 1582 410 1582 410 1609 342 c 0,61,62
 1682 160 1682 160 1904 160 c 0,63,64
 2121 160 2121 160 2303 319 c 1,65,-1
 2608 213 l 1,66,67
 2299 -20 2299 -20 1952 -20 c 0,68,69
 1644 -20 1644 -20 1456 150 c 1,70,71
 1197 -20 1197 -20 888 -20 c 0,24,25
EndSplineSet
Validated: 1
EndChar

StartChar: oe
Encoding: 339 339 193
Width: 1950
Flags: W
HStem: -20 149<519.884 805.109 1234.87 1523.79> 435 158<1235 1727.79> 971 149<815.917 1094 1530.74 1810.1>
VStem: 173 293<231.832 573.517> 891 291<226.752 433.412>
LayerCount: 2
Fore
SplineSet
690 -20 m 0,0,1
 424 -20 424 -20 282 136 c 0,2,3
 173 257 173 257 173 425 c 0,4,5
 173 485 173 485 187 550 c 0,6,7
 241 803 241 803 458 964 c 0,8,9
 668 1120 668 1120 932 1120 c 0,10,11
 1141 1120 1141 1120 1272 1025 c 1,12,13
 1445 1120 1445 1120 1650 1120 c 0,14,15
 1878 1120 1878 1120 2020 998 c 1,16,-1
 1875 736 l 1,17,18
 1869 971 1869 971 1683 971 c 0,19,20
 1588 971 1588 971 1475 892 c 0,21,22
 1346 802 1346 802 1269 665 c 0,23,24
 1250 630 1250 630 1235 593 c 1,25,-1
 1657 593 l 2,26,27
 1748 593 1748 593 1837 704 c 1,28,-1
 1858 704 l 1,29,-1
 1751 509 l 2,30,31
 1710 435 1710 435 1606 435 c 2,32,-1
 1189 435 l 1,33,34
 1182 388 1182 388 1182 346 c 0,35,36
 1182 292 1182 292 1194 250 c 0,37,38
 1228 129 1228 129 1351 129 c 0,39,40
 1512 129 1512 129 1636 257 c 1,41,-1
 1914 161 l 1,42,43
 1673 -20 1673 -20 1408 -20 c 0,44,45
 1201 -20 1201 -20 1068 75 c 1,46,47
 895 -20 895 -20 690 -20 c 0,0,1
634 129 m 0,48,49
 750 129 750 129 865 208 c 0,50,51
 895 229 895 229 924 254 c 1,52,53
 891 332 891 332 891 424 c 0,54,55
 891 484 891 484 905 550 c 0,56,57
 950 762 950 762 1110 909 c 1,58,59
 1061 971 1061 971 965 971 c 0,60,61
 871 971 871 971 757 892 c 0,62,63
 628 802 628 802 551 665 c 0,64,65
 497 568 497 568 478 464 c 0,66,67
 466 400 466 400 466 346.5 c 128,-1,68
 466 293 466 293 478 250 c 0,69,70
 512 129 512 129 634 129 c 0,48,49
EndSplineSet
Validated: 1
EndChar

StartChar: Tbar
Encoding: 358 358 194
Width: 1608
Flags: W
HStem: -20 180<659.369 1058.9> 692 150<180.934 219 597 874.364> 1330 180<379.321 651 1030.28 1791.5>
VStem: 210 307<340.868 690.594> 219 313<573.813 692>
LayerCount: 2
Fore
SplineSet
887 -20 m 0,0,1
 544 -20 544 -20 351 191 c 0,2,3
 210 345 210 345 210 572 c 0,4,5
 210 630 210 630 219 692 c 1,6,-1
 149 692 l 1,7,-1
 143 745 l 1,8,9
 184 821 184 821 253 840 c 1,10,11
 340 1111 340 1111 608 1302 c 0,12,13
 629 1317 629 1317 651 1330 c 1,14,-1
 439 1330 l 2,15,16
 347 1330 347 1330 261 1221 c 1,17,-1
 240 1221 l 1,18,-1
 357 1436 l 2,19,20
 397 1510 397 1510 502 1510 c 2,21,-1
 1732 1510 l 2,22,23
 1823 1510 1823 1510 1912 1621 c 1,24,-1
 1933 1621 l 1,25,-1
 1815 1406 l 2,26,27
 1773 1330 1773 1330 1670 1330 c 2,28,-1
 1268 1330 l 2,29,30
 1079 1330 1079 1330 926 1232 c 0,31,32
 750 1119 750 1119 637 921 c 0,33,34
 615 883 615 883 597 842 c 1,35,-1
 908 842 l 1,36,-1
 914 789 l 1,37,38
 860 692 860 692 767 692 c 2,39,-1
 545 692 l 1,40,41
 538 664 538 664 532 634 c 0,42,43
 517 560 517 560 517 496 c 0,44,45
 517 410 517 410 544 342 c 0,46,47
 617 160 617 160 839 160 c 0,48,49
 1056 160 1056 160 1238 319 c 1,50,-1
 1543 213 l 1,51,52
 1234 -20 1234 -20 887 -20 c 0,0,1
EndSplineSet
Validated: 1
EndChar

StartChar: tbar
Encoding: 359 359 195
Width: 1268
Flags: W
HStem: -20 149<567.008 858.845> 481 150<138.088 224 581 829.364> 942 158<286.364 524 814.188 1375.64>
VStem: 221 294<228.413 481>
LayerCount: 2
Fore
SplineSet
738 -20 m 0,0,1
 472 -20 472 -20 330 136 c 0,2,3
 221 256 221 256 221 424 c 0,4,5
 221 452 221 452 224 481 c 1,6,-1
 104 481 l 1,7,-1
 99 534 l 1,8,9
 152 631 152 631 245 631 c 2,10,-1
 258 631 l 1,11,12
 327 814 327 814 524 942 c 1,13,-1
 357 942 l 2,14,15
 266 942 266 942 178 831 c 1,16,-1
 157 831 l 1,17,-1
 263 1026 l 2,18,19
 303 1100 303 1100 408 1100 c 2,20,-1
 1305 1100 l 2,21,22
 1396 1100 1396 1100 1484 1211 c 1,23,-1
 1505 1211 l 1,24,-1
 1399 1016 l 2,25,26
 1359 942 1359 942 1254 942 c 2,27,-1
 997 942 l 2,28,29
 877 942 877 942 805 892 c 0,30,31
 669 797 669 797 599 665 c 0,32,33
 590 648 590 648 581 631 c 1,34,-1
 863 631 l 1,35,-1
 869 578 l 1,36,37
 815 481 815 481 722 481 c 2,38,-1
 529 481 l 1,39,40
 515 413 515 413 515 356 c 0,41,42
 515 295 515 295 526 250 c 0,43,44
 556 129 556 129 683 129 c 0,45,46
 844 129 844 129 968 257 c 1,47,-1
 1244 161 l 1,48,49
 1003 -20 1003 -20 738 -20 c 0,0,1
EndSplineSet
Validated: 1
EndChar

StartChar: thorn
Encoding: 254 254 196
Width: 1388
Flags: W
HStem: -430 21G<192.5 325.333> -20 149<690 809.75> 971 149<809.237 1101.59> 1397 34<287.735 331.759> 1510 20G<538.162 671.5>
VStem: 449 292<1119.37 1399.4> 1155 294<526.394 868.168>
DStem2: 78.8278 -430 368.105 -430 0.207912 0.978148<181.401 1338.01 1604.07 1796.97>
LayerCount: 2
Fore
SplineSet
262 -430 m 1,0,1
 123 -391 123 -391 123 -255 c 0,2,3
 123 -221 123 -221 132 -181 c 2,4,-1
 444 1288 l 2,5,6
 449 1311 449 1311 449 1329 c 0,7,8
 449 1406 449 1406 364 1406 c 0,9,10
 326 1406 326 1406 289 1397 c 1,11,-1
 286 1431 l 1,12,-1
 602 1530 l 1,13,14
 741 1491 741 1491 741 1355 c 0,15,16
 741 1321 741 1321 732 1281 c 2,17,-1
 690 1080 l 1,18,19
 801 1120 801 1120 932 1120 c 0,20,21
 1200 1120 1200 1120 1340 964 c 0,22,23
 1449 843 1449 843 1449 675 c 0,24,25
 1449 615 1449 615 1435 550 c 0,26,27
 1381 296 1381 296 1164 136 c 0,28,29
 953 -20 953 -20 690 -20 c 1,30,-1
 671 129 l 1,31,32
 750 129 750 129 865 208 c 0,33,34
 994 298 994 298 1069 435 c 0,35,36
 1123 532 1123 532 1143 636 c 0,37,38
 1155 700 1155 700 1155 753.5 c 128,-1,39
 1155 807 1155 807 1143 850 c 0,40,41
 1107 971 1107 971 987 971 c 0,42,43
 858 971 858 971 756 892 c 24,44,45
 628 793 628 793 583 581 c 2,46,-1
 376 -394 l 1,47,-1
 262 -430 l 1,0,1
EndSplineSet
Validated: 1
EndChar

StartChar: Thorn
Encoding: 222 222 197
Width: 1294
Flags: W
HStem: -20 21G<279.5 410.538> 255 168<732 839.38> 1106 169<798.116 1063.72> 1390 34<286.157 330.578> 1510 20G<558.415 684>
VStem: 447 299<1243.28 1438.1> 1106 294<730.375 1066.24>
DStem2: 165.464 -20 461.216 -20 0.207912 0.978148<178.512 1106.82 1347.47 1370.66>
LayerCount: 2
Fore
SplineSet
349 -20 m 1,0,1
 210 16 210 16 210 152 c 0,2,3
 210 185 210 185 218 224 c 2,4,-1
 442 1281 l 2,5,6
 447 1304 447 1304 447 1322 c 0,7,8
 447 1399 447 1399 362 1399 c 0,9,10
 324 1399 324 1399 287 1390 c 1,11,-1
 285 1424 l 1,12,-1
 622 1530 l 1,13,14
 746 1492 746 1492 746 1358 c 0,15,16
 746 1321 746 1321 736 1276 c 2,17,-1
 728 1238 l 1,18,19
 829 1275 829 1275 940 1275 c 0,20,21
 1187 1275 1187 1275 1313 1130 c 0,22,23
 1400 1029 1400 1029 1400 885 c 0,24,25
 1400 828 1400 828 1386 765 c 0,26,27
 1338 540 1338 540 1158 402 c 0,28,29
 966 255 966 255 732 255 c 1,30,-1
 649 423 l 1,31,32
 781 423 781 423 863 480 c 24,33,34
 1045 607 1045 607 1094 836 c 0,35,36
 1106 894 1106 894 1106 939 c 0,37,38
 1106 986 1106 986 1093 1018 c 0,39,40
 1057 1106 1057 1106 943 1106 c 0,41,42
 845 1106 845 1106 768 1040 c 0,43,44
 668 954 668 954 637 807 c 2,45,-1
 469 19 l 1,46,-1
 349 -20 l 1,0,1
EndSplineSet
Validated: 1
EndChar

StartChar: AE
Encoding: 198 198 198
Width: 2592
Flags: W
HStem: -20 180<1680.98 2082.9> 0 30<733.363 772> 622 178<1604 2414.5> 1100 20G<605.5 991.833> 1348 182<2071.63 2467.26> 1395 34<795.735 840.982>
VStem: 144 344<168.471 488.959>
LayerCount: 2
Fore
SplineSet
1911 -20 m 0,0,1
 1736 -20 1736 -20 1599 35 c 1,2,-1
 1421 -20 l 1,3,4
 1310 -1 1310 -1 1299 96 c 0,5,6
 1218 813 1218 813 958 1340 c 0,7,8
 927 1405 927 1405 862 1405 c 0,9,10
 827 1405 827 1405 797 1395 c 1,11,-1
 794 1429 l 1,12,-1
 1125 1530 l 1,13,14
 1210 1514 1210 1514 1266 1420 c 0,15,16
 1333 1307 1333 1307 1407 1106 c 1,17,18
 1501 1237 1501 1237 1614 1319 c 0,19,20
 1900 1530 1900 1530 2241 1530 c 0,21,22
 2585 1530 2585 1530 2778 1319 c 1,23,-1
 2610 1014 l 1,24,25
 2582 1348 2582 1348 2290 1348 c 0,26,27
 2112 1348 2112 1348 1952 1239 c 0,28,29
 1765 1111 1765 1111 1661 921 c 0,30,31
 1629 863 1629 863 1604 800 c 1,32,-1
 2355 800 l 2,33,34
 2446 800 2446 800 2535 911 c 1,35,-1
 2556 911 l 1,36,-1
 2438 696 l 2,37,38
 2397 622 2397 622 2293 622 c 2,39,-1
 1553 622 l 1,40,41
 1541 563 1541 563 1541 496 c 0,42,43
 1541 410 1541 410 1568 342 c 0,44,45
 1641 160 1641 160 1863 160 c 0,46,47
 2080 160 2080 160 2262 319 c 1,48,-1
 2567 213 l 1,49,50
 2258 -20 2258 -20 1911 -20 c 0,0,1
772 0 m 1,51,52
 144 0 144 0 144 312 c 0,53,54
 144 349 144 349 153 390 c 0,55,56
 230 751 230 751 981 1120 c 1,57,-1
 994 1096 l 1,58,59
 563 705 563 705 498 402 c 0,60,61
 488 357 488 357 488 317 c 0,62,63
 488 97 488 97 778 30 c 1,64,-1
 772 0 l 1,51,52
EndSplineSet
Validated: 1
EndChar

